<svg width="310" height="353" viewBox="0 0 310 353" fill="none" xmlns="http://www.w3.org/2000/svg">
<g filter="url(#filter0_d_1774_47)">
<path d="M49 319.064V211H132.5V290L53.117 321.848C51.146 322.639 49 321.188 49 319.064Z" fill="#8C7A79"/>
<path d="M260.5 319.064V211H177V290L256.383 321.848C258.354 322.639 260.5 321.188 260.5 319.064Z" fill="#8C7A79"/>
<g filter="url(#filter1_d_1774_47)">
<path d="M146.876 32.4192L38.8764 91.17C33.4056 94.1461 30 99.8755 30 106.103L30 240.402C30 246.63 33.4055 252.359 38.8764 255.335L146.876 314.086C151.942 316.841 158.058 316.841 163.124 314.086L271.124 255.335C276.594 252.359 280 246.629 280 240.402L280 106.103C280 99.8755 276.594 94.1461 271.124 91.17L163.124 32.4192C158.058 29.6637 151.942 29.6637 146.876 32.4192Z" fill="url(#paint0_linear_1774_47)"/>
<path d="M146.757 54.4025L57.843 102.771C52.3928 105.736 49 111.444 49 117.648L49 228.352C49 234.556 52.3927 240.264 57.843 243.229L146.757 291.597C151.803 294.343 157.897 294.343 162.943 291.597L251.857 243.229C257.308 240.264 260.7 234.556 260.7 228.352L260.7 117.648C260.7 111.444 257.308 105.736 251.857 102.771L162.943 54.4025C157.897 51.6575 151.803 51.6575 146.757 54.4025Z" fill="url(#paint1_linear_1774_47)"/>
<g filter="url(#filter2_f_1774_47)">
<path d="M146.757 54.4025L57.843 102.771C52.3928 105.736 49 111.444 49 117.648L49 228.352C49 234.556 52.3927 240.264 57.843 243.229L146.757 291.597C151.803 294.343 157.897 294.343 162.943 291.597L251.857 243.229C257.308 240.264 260.7 234.556 260.7 228.352L260.7 117.648C260.7 111.444 257.308 105.736 251.857 102.771L162.943 54.4025C157.897 51.6575 151.803 51.6575 146.757 54.4025Z" stroke="url(#paint2_linear_1774_47)"/>
</g>
<g opacity="0.5">
<mask id="mask0_1774_47" style="mask-type:alpha" maskUnits="userSpaceOnUse" x="58" y="62" width="195" height="223">
<path d="M147.807 64.1811L66.417 108.417C61.2296 111.236 58 116.667 58 122.571L58 223.819C58 229.723 61.2296 235.154 66.4169 237.974L147.807 282.209C152.604 284.816 158.396 284.816 163.193 282.209L244.583 237.974C249.77 235.154 253 229.723 253 223.819L253 122.571C253 116.667 249.77 111.236 244.583 108.417L163.193 64.1811C158.396 61.5738 152.604 61.5738 147.807 64.1811Z" fill="#A6D3DE"/>
</mask>
<g mask="url(#mask0_1774_47)">
<path d="M147.807 64.1811L66.417 108.417C61.2296 111.236 58 116.667 58 122.571L58 223.819C58 229.723 61.2296 235.154 66.4169 237.974L147.807 282.209C152.604 284.816 158.396 284.816 163.193 282.209L244.583 237.974C249.77 235.154 253 229.723 253 223.819L253 122.571C253 116.667 249.77 111.236 244.583 108.417L163.193 64.1811C158.396 61.5738 152.604 61.5738 147.807 64.1811Z" fill="url(#paint3_radial_1774_47)"/>
<path opacity="0.5" d="M139.201 290.862L135.328 55.5176H175.672L171.799 290.862H139.201Z" fill="url(#paint4_linear_1774_47)"/>
<path opacity="0.5" d="M138.682 288.775L17.6553 86.8965L52.5949 66.7241L166.913 272.475L138.682 288.775Z" fill="url(#paint5_linear_1774_47)"/>
<path opacity="0.5" d="M135.319 272.476L249.638 66.7246L284.577 86.897L163.551 288.775L135.319 272.476Z" fill="url(#paint6_linear_1774_47)"/>
<rect x="58" y="159.742" width="195" height="126.638" fill="url(#paint7_linear_1774_47)"/>
<g filter="url(#filter3_i_1774_47)">
<path d="M147.807 64.1811L66.417 108.417C61.2296 111.236 58 116.667 58 122.571L58 223.819C58 229.723 61.2296 235.154 66.4169 237.974L147.807 282.209C152.604 284.816 158.396 284.816 163.193 282.209L244.583 237.974C249.77 235.154 253 229.723 253 223.819L253 122.571C253 116.667 249.77 111.236 244.583 108.417L163.193 64.1811C158.396 61.5738 152.604 61.5738 147.807 64.1811Z" fill="#BCB0AE" fill-opacity="0.03"/>
</g>
</g>
</g>
</g>
</g>
<g filter="url(#filter4_d_1774_47)">
<g filter="url(#filter5_d_1774_47)">
<path fill-rule="evenodd" clip-rule="evenodd" d="M153.151 74.2328C155.643 72.5413 162.766 80.3293 166.553 89.1156C164.79 91.8485 162.757 95.0103 160.454 98.6012C162.342 96.0328 164.892 93.8468 168.105 92.0433C166.765 95.4015 171.298 103.822 171.227 105.871C171.179 107.237 168.657 110.791 163.661 116.534C165.314 115.001 167.58 112.796 170.458 109.921L171.108 109.271C174.411 126.527 176.064 154.434 174.449 160.414C172.834 166.393 169.101 167.17 165.044 179.69C166.948 176.698 169.543 173.244 172.828 169.328C172.349 175.749 170.446 181.756 167.119 187.35C162.29 195.472 157.781 200.314 157.217 208.647C157.217 208.647 156.517 222.025 156.517 228.715C156.517 233.096 156.706 253 156.706 253L152.83 252.719C152.83 252.719 153.017 232.719 153.017 228.301C153.017 221.227 152.317 207.079 152.317 207.079C152.118 206.324 151.906 205.603 151.684 204.917C149.191 197.236 140.901 190.805 138.301 182.64C136.568 177.197 134.761 171.065 132.88 164.244C135.809 165.038 138.727 166.876 141.636 169.76C139.712 164.157 134.829 157.34 132 150.179C134.633 136.588 133.262 114.038 138.787 103.187C140.834 88.8009 150.66 75.9242 153.151 74.2328Z" fill="url(#paint8_linear_1774_47)"/>
<mask id="mask1_1774_47" style="mask-type:luminance" maskUnits="userSpaceOnUse" x="132" y="74" width="44" height="179">
<path fill-rule="evenodd" clip-rule="evenodd" d="M153.151 74.2328C155.643 72.5413 162.766 80.3293 166.553 89.1156C164.79 91.8485 162.757 95.0103 160.454 98.6012C162.342 96.0328 164.892 93.8468 168.105 92.0433C166.765 95.4015 171.298 103.822 171.227 105.871C171.179 107.237 168.657 110.791 163.661 116.534C165.314 115.001 167.58 112.796 170.458 109.921L171.108 109.271C174.411 126.527 176.064 154.434 174.449 160.414C172.834 166.393 169.101 167.17 165.044 179.69C166.948 176.698 169.543 173.244 172.828 169.328C172.349 175.749 170.446 181.756 167.119 187.35C162.29 195.472 157.781 200.314 157.217 208.647C157.217 208.647 156.517 222.025 156.517 228.715C156.517 233.096 156.706 253 156.706 253L152.83 252.719C152.83 252.719 153.017 232.719 153.017 228.301C153.017 221.227 152.317 207.079 152.317 207.079C152.118 206.324 151.906 205.603 151.684 204.917C149.191 197.236 140.901 190.805 138.301 182.64C136.568 177.197 134.761 171.065 132.88 164.244C135.809 165.038 138.727 166.876 141.636 169.76C139.712 164.157 134.829 157.34 132 150.179C134.633 136.588 133.262 114.038 138.787 103.187C140.834 88.8009 150.66 75.9242 153.151 74.2328Z" fill="white"/>
</mask>
<g mask="url(#mask1_1774_47)">
<path fill-rule="evenodd" clip-rule="evenodd" d="M175.075 149.023C175.075 159.368 165.857 170.528 165.044 179.689C171.227 169.655 173.067 165.936 176 164.356C178.933 162.776 175.075 138.678 175.075 149.023Z" fill="url(#paint9_linear_1774_47)"/>
<path fill-rule="evenodd" clip-rule="evenodd" d="M141.636 169.76L144.03 172.83C144.03 172.83 142.269 166.391 140.197 163.5C138.125 160.609 133.02 152.286 132 150.179C130.98 148.071 130.856 153.974 130.856 153.974L141.636 169.76Z" fill="url(#paint10_linear_1774_47)"/>
<path fill-rule="evenodd" clip-rule="evenodd" d="M170.587 102.965C171.21 104.685 169.876 107.479 167.352 111.157C164.827 114.834 161.193 119.028 161.193 119.028L163.661 116.535L172.346 107.275L174.029 103.649C174.029 103.649 169.965 101.244 170.587 102.965Z" fill="url(#paint11_linear_1774_47)"/>
<path fill-rule="evenodd" clip-rule="evenodd" d="M161.194 97.7037L158.521 100.957C158.521 100.957 163.251 93.5093 164.032 91.115C164.814 88.7208 166.171 87.1334 165.102 83.7881C164.032 80.4429 169.729 88.9839 169.729 88.9839L163.551 94.73L161.194 97.7037Z" fill="url(#paint12_linear_1774_47)"/>
<path fill-rule="evenodd" clip-rule="evenodd" d="M152 259.302C152 259.302 152.839 238.049 153 228.592C153.234 214.847 154 82.0312 154 82.0312C154 82.0312 156.533 201.092 156.533 229.472C156.533 257.852 162.817 263.628 162.817 263.628L152 261.47L152 259.302Z" fill="#C3BCBC"/>
</g>
</g>
<g filter="url(#filter6_d_1774_47)">
<path fill-rule="evenodd" clip-rule="evenodd" d="M154.23 253.018C153.621 252.827 152.994 252.631 152.459 254.332C152.459 265.459 150.817 269.967 150.817 269.967C150.817 269.967 154.886 276.074 154.886 279.677C154.886 276.183 158.955 269.967 158.955 269.967C158.955 269.967 157.314 264.447 157.314 254.332C156.717 252.437 156.125 252.682 155.486 252.946C155.291 253.026 155.092 253.109 154.886 253.132C154.674 253.157 154.453 253.088 154.23 253.018ZM155.849 262.459C155.849 263.017 155.396 263.47 154.837 263.47C154.279 263.47 153.826 263.017 153.826 262.459C153.826 261.9 154.279 261.447 154.837 261.447C155.396 261.447 155.849 261.9 155.849 262.459Z" fill="url(#paint13_linear_1774_47)"/>
<mask id="mask2_1774_47" style="mask-type:luminance" maskUnits="userSpaceOnUse" x="150" y="252" width="9" height="28">
<path fill-rule="evenodd" clip-rule="evenodd" d="M154.23 253.018C153.621 252.827 152.994 252.631 152.459 254.332C152.459 265.459 150.817 269.967 150.817 269.967C150.817 269.967 154.886 276.074 154.886 279.677C154.886 276.183 158.955 269.967 158.955 269.967C158.955 269.967 157.314 264.447 157.314 254.332C156.717 252.437 156.125 252.682 155.486 252.946C155.291 253.026 155.092 253.109 154.886 253.132C154.674 253.157 154.453 253.088 154.23 253.018ZM155.849 262.459C155.849 263.017 155.396 263.47 154.837 263.47C154.279 263.47 153.826 263.017 153.826 262.459C153.826 261.9 154.279 261.447 154.837 261.447C155.396 261.447 155.849 261.9 155.849 262.459Z" fill="white"/>
</mask>
<g mask="url(#mask2_1774_47)">
<path fill-rule="evenodd" clip-rule="evenodd" d="M154.886 254.332H166.215V279.677H154.886V254.332Z" fill="url(#paint14_linear_1774_47)"/>
<rect opacity="0.6" x="148.817" y="252.31" width="12.138" height="4.046" fill="url(#paint15_linear_1774_47)"/>
</g>
<path fill-rule="evenodd" clip-rule="evenodd" d="M154.886 276.397C155.649 273.257 158.955 269.967 158.955 269.967C158.955 269.967 154.886 276.183 154.886 279.677C154.886 276.073 150.817 269.967 150.817 269.967C150.817 269.967 154 273.293 154.886 276.397Z" fill="url(#paint16_linear_1774_47)"/>
<mask id="mask3_1774_47" style="mask-type:luminance" maskUnits="userSpaceOnUse" x="150" y="269" width="9" height="11">
<path fill-rule="evenodd" clip-rule="evenodd" d="M154.886 276.397C155.649 273.257 158.955 269.967 158.955 269.967C158.955 269.967 154.886 276.183 154.886 279.677C154.886 276.073 150.817 269.967 150.817 269.967C150.817 269.967 154 273.293 154.886 276.397Z" fill="white"/>
</mask>
<g mask="url(#mask3_1774_47)">
</g>
</g>
<rect x="150.917" y="251.133" width="7.7" height="4" rx="1.4" fill="url(#paint17_linear_1774_47)"/>
<path fill-rule="evenodd" clip-rule="evenodd" d="M151.16 252.175C151.16 251.72 151.529 251.351 151.985 251.351H157.419C157.874 251.351 158.244 251.72 158.244 252.175C158.244 252.631 157.874 253 157.419 253H151.985C151.529 253 151.16 252.631 151.16 252.175Z" fill="white"/>
</g>
<defs>
<filter id="filter0_d_1774_47" x="0" y="0.352539" width="310" height="351.715" filterUnits="userSpaceOnUse" color-interpolation-filters="sRGB">
<feFlood flood-opacity="0" result="BackgroundImageFix"/>
<feColorMatrix in="SourceAlpha" type="matrix" values="0 0 0 0 0 0 0 0 0 0 0 0 0 0 0 0 0 0 127 0" result="hardAlpha"/>
<feOffset/>
<feGaussianBlur stdDeviation="15"/>
<feColorMatrix type="matrix" values="0 0 0 0 0.92549 0 0 0 0 0.909804 0 0 0 0 0.913725 0 0 0 0.48 0"/>
<feBlend mode="normal" in2="BackgroundImageFix" result="effect1_dropShadow_1774_47"/>
<feBlend mode="normal" in="SourceGraphic" in2="effect1_dropShadow_1774_47" result="shape"/>
</filter>
<filter id="filter1_d_1774_47" x="24" y="30.3525" width="262" height="299.8" filterUnits="userSpaceOnUse" color-interpolation-filters="sRGB">
<feFlood flood-opacity="0" result="BackgroundImageFix"/>
<feColorMatrix in="SourceAlpha" type="matrix" values="0 0 0 0 0 0 0 0 0 0 0 0 0 0 0 0 0 0 127 0" result="hardAlpha"/>
<feOffset dy="8"/>
<feGaussianBlur stdDeviation="3"/>
<feColorMatrix type="matrix" values="0 0 0 0 0.475 0 0 0 0 0.425521 0 0 0 0 0.425521 0 0 0 0.35 0"/>
<feBlend mode="normal" in2="BackgroundImageFix" result="effect1_dropShadow_1774_47"/>
<feBlend mode="normal" in="SourceGraphic" in2="effect1_dropShadow_1774_47" result="shape"/>
</filter>
<filter id="filter2_f_1774_47" x="48.2" y="51.5437" width="213.3" height="242.913" filterUnits="userSpaceOnUse" color-interpolation-filters="sRGB">
<feFlood flood-opacity="0" result="BackgroundImageFix"/>
<feBlend mode="normal" in="SourceGraphic" in2="BackgroundImageFix" result="shape"/>
<feGaussianBlur stdDeviation="0.15" result="effect1_foregroundBlur_1774_47"/>
</filter>
<filter id="filter3_i_1774_47" x="58" y="62.2256" width="195" height="221.939" filterUnits="userSpaceOnUse" color-interpolation-filters="sRGB">
<feFlood flood-opacity="0" result="BackgroundImageFix"/>
<feBlend mode="normal" in="SourceGraphic" in2="BackgroundImageFix" result="shape"/>
<feColorMatrix in="SourceAlpha" type="matrix" values="0 0 0 0 0 0 0 0 0 0 0 0 0 0 0 0 0 0 127 0" result="hardAlpha"/>
<feOffset/>
<feGaussianBlur stdDeviation="6.72414"/>
<feComposite in2="hardAlpha" operator="arithmetic" k2="-1" k3="1"/>
<feColorMatrix type="matrix" values="0 0 0 0 0.508333 0 0 0 0 0.437506 0 0 0 0 0.415139 0 0 0 1 0"/>
<feBlend mode="normal" in2="shape" result="effect1_innerShadow_1774_47"/>
</filter>
<filter id="filter4_d_1774_47" x="128" y="74" width="51.0747" height="213.678" filterUnits="userSpaceOnUse" color-interpolation-filters="sRGB">
<feFlood flood-opacity="0" result="BackgroundImageFix"/>
<feColorMatrix in="SourceAlpha" type="matrix" values="0 0 0 0 0 0 0 0 0 0 0 0 0 0 0 0 0 0 127 0" result="hardAlpha"/>
<feOffset dy="4"/>
<feGaussianBlur stdDeviation="2"/>
<feColorMatrix type="matrix" values="0 0 0 0 0.354167 0 0 0 0 0.284809 0 0 0 0 0.284809 0 0 0 0.25 0"/>
<feBlend mode="normal" in2="BackgroundImageFix" result="effect1_dropShadow_1774_47"/>
<feBlend mode="normal" in="SourceGraphic" in2="effect1_dropShadow_1774_47" result="shape"/>
</filter>
<filter id="filter5_d_1774_47" x="125.129" y="70.3836" width="57.5405" height="193.466" filterUnits="userSpaceOnUse" color-interpolation-filters="sRGB">
<feFlood flood-opacity="0" result="BackgroundImageFix"/>
<feColorMatrix in="SourceAlpha" type="matrix" values="0 0 0 0 0 0 0 0 0 0 0 0 0 0 0 0 0 0 127 0" result="hardAlpha"/>
<feOffset dx="0.361644" dy="3.61644"/>
<feGaussianBlur stdDeviation="3.61644"/>
<feColorMatrix type="matrix" values="0 0 0 0 0.729167 0 0 0 0 0.653971 0 0 0 0 0.647135 0 0 0 0.38 0"/>
<feBlend mode="normal" in2="BackgroundImageFix" result="effect1_dropShadow_1774_47"/>
<feBlend mode="normal" in="SourceGraphic" in2="effect1_dropShadow_1774_47" result="shape"/>
</filter>
<filter id="filter6_d_1774_47" x="141.956" y="248.103" width="26.794" height="45.567" filterUnits="userSpaceOnUse" color-interpolation-filters="sRGB">
<feFlood flood-opacity="0" result="BackgroundImageFix"/>
<feColorMatrix in="SourceAlpha" type="matrix" values="0 0 0 0 0 0 0 0 0 0 0 0 0 0 0 0 0 0 127 0" result="hardAlpha"/>
<feOffset dx="0.466396" dy="4.66396"/>
<feGaussianBlur stdDeviation="4.66396"/>
<feColorMatrix type="matrix" values="0 0 0 0 0.729167 0 0 0 0 0.653971 0 0 0 0 0.647135 0 0 0 0.38 0"/>
<feBlend mode="normal" in2="BackgroundImageFix" result="effect1_dropShadow_1774_47"/>
<feBlend mode="normal" in="SourceGraphic" in2="effect1_dropShadow_1774_47" result="shape"/>
</filter>
<linearGradient id="paint0_linear_1774_47" x1="102.5" y1="63" x2="215" y2="286.5" gradientUnits="userSpaceOnUse">
<stop stop-color="#EDE9EA"/>
<stop offset="1" stop-color="#BEB5B6"/>
</linearGradient>
<linearGradient id="paint1_linear_1774_47" x1="101.5" y1="81.5" x2="198.5" y2="260.5" gradientUnits="userSpaceOnUse">
<stop stop-color="#C3BBBB"/>
<stop offset="1" stop-color="#ECE8E9"/>
</linearGradient>
<linearGradient id="paint2_linear_1774_47" x1="112" y1="75" x2="216.5" y2="263" gradientUnits="userSpaceOnUse">
<stop stop-color="#C9C2C3"/>
<stop offset="1" stop-color="white"/>
</linearGradient>
<radialGradient id="paint3_radial_1774_47" cx="0" cy="0" r="1" gradientUnits="userSpaceOnUse" gradientTransform="translate(155.5 173.195) rotate(90) scale(113.195 97.5)">
<stop stop-color="#DFD6D5"/>
<stop offset="1" stop-color="#918888"/>
</radialGradient>
<linearGradient id="paint4_linear_1774_47" x1="155.5" y1="55.5176" x2="155.5" y2="290.862" gradientUnits="userSpaceOnUse">
<stop stop-color="white"/>
<stop offset="1" stop-color="#F2EDED" stop-opacity="0"/>
</linearGradient>
<linearGradient id="paint5_linear_1774_47" x1="35.1251" y1="76.8103" x2="152.798" y2="280.625" gradientUnits="userSpaceOnUse">
<stop stop-color="white"/>
<stop offset="1" stop-color="#F2EDED" stop-opacity="0"/>
</linearGradient>
<linearGradient id="paint6_linear_1774_47" x1="267.108" y1="76.8108" x2="149.435" y2="280.625" gradientUnits="userSpaceOnUse">
<stop stop-color="white"/>
<stop offset="1" stop-color="#F2EDED" stop-opacity="0"/>
</linearGradient>
<linearGradient id="paint7_linear_1774_47" x1="155.5" y1="214.656" x2="154.912" y2="278.534" gradientUnits="userSpaceOnUse">
<stop stop-color="#DEDADA" stop-opacity="0"/>
<stop offset="1" stop-color="#DECFCF"/>
</linearGradient>
<linearGradient id="paint8_linear_1774_47" x1="150.126" y1="29.1304" x2="182.203" y2="31.4763" gradientUnits="userSpaceOnUse">
<stop offset="0.168737" stop-color="#FFFCFA"/>
<stop offset="0.360439" stop-color="white"/>
<stop offset="0.451944" stop-color="white"/>
<stop offset="0.627859" stop-color="#EEEBE6"/>
<stop offset="0.80404" stop-color="#F3F3F3"/>
</linearGradient>
<linearGradient id="paint9_linear_1774_47" x1="170.118" y1="138.119" x2="179.035" y2="139.102" gradientUnits="userSpaceOnUse">
<stop offset="0.168737" stop-color="#FFFCFA"/>
<stop offset="0.360439" stop-color="white"/>
<stop offset="0.451944" stop-color="white"/>
<stop offset="0.627859" stop-color="#EEEBE6"/>
<stop offset="0.80404" stop-color="#F3F3F3"/>
</linearGradient>
<linearGradient id="paint10_linear_1774_47" x1="136.4" y1="143.807" x2="145.977" y2="145.46" gradientUnits="userSpaceOnUse">
<stop offset="0.168737" stop-color="#FFFCFA"/>
<stop offset="0.360439" stop-color="white"/>
<stop offset="0.451944" stop-color="white"/>
<stop offset="0.627859" stop-color="#EEEBE6"/>
<stop offset="0.80404" stop-color="#F3F3F3"/>
</linearGradient>
<linearGradient id="paint11_linear_1774_47" x1="166.595" y1="98.0406" x2="175.711" y2="100.16" gradientUnits="userSpaceOnUse">
<stop offset="0.168737" stop-color="#FFFCFA"/>
<stop offset="0.360439" stop-color="white"/>
<stop offset="0.451944" stop-color="white"/>
<stop offset="0.627859" stop-color="#EEEBE6"/>
<stop offset="0.80404" stop-color="#F3F3F3"/>
</linearGradient>
<linearGradient id="paint12_linear_1774_47" x1="163.238" y1="78.307" x2="171.342" y2="79.8312" gradientUnits="userSpaceOnUse">
<stop offset="0.168737" stop-color="#FFFCFA"/>
<stop offset="0.360439" stop-color="white"/>
<stop offset="0.451944" stop-color="white"/>
<stop offset="0.627859" stop-color="#EEEBE6"/>
<stop offset="0.80404" stop-color="#F3F3F3"/>
</linearGradient>
<linearGradient id="paint13_linear_1774_47" x1="154.242" y1="246.021" x2="160.283" y2="246.576" gradientUnits="userSpaceOnUse">
<stop offset="0.168737" stop-color="#FFFCFA"/>
<stop offset="0.360439" stop-color="white"/>
<stop offset="0.451944" stop-color="white"/>
<stop offset="0.627859" stop-color="#EEEBE6"/>
<stop offset="0.80404" stop-color="#F3F3F3"/>
</linearGradient>
<linearGradient id="paint14_linear_1774_47" x1="159.653" y1="247.979" x2="167.981" y2="249.11" gradientUnits="userSpaceOnUse">
<stop offset="0.168737" stop-color="#FFFCFA"/>
<stop offset="0.360439" stop-color="white"/>
<stop offset="0.451944" stop-color="white"/>
<stop offset="0.627859" stop-color="#EEEBE6"/>
<stop offset="0.80404" stop-color="#F3F3F3"/>
</linearGradient>
<linearGradient id="paint15_linear_1774_47" x1="153.925" y1="251.295" x2="158.887" y2="255.82" gradientUnits="userSpaceOnUse">
<stop offset="0.168737" stop-color="#FFFCFA"/>
<stop offset="0.360439" stop-color="white"/>
<stop offset="0.451944" stop-color="white"/>
<stop offset="0.627859" stop-color="#EEEBE6"/>
<stop offset="0.80404" stop-color="#F3F3F3"/>
</linearGradient>
<linearGradient id="paint16_linear_1774_47" x1="154.242" y1="267.533" x2="159.963" y2="268.99" gradientUnits="userSpaceOnUse">
<stop offset="0.168737" stop-color="#FFFCFA"/>
<stop offset="0.360439" stop-color="white"/>
<stop offset="0.451944" stop-color="white"/>
<stop offset="0.627859" stop-color="#EEEBE6"/>
<stop offset="0.80404" stop-color="#F3F3F3"/>
</linearGradient>
<linearGradient id="paint17_linear_1774_47" x1="150.917" y1="251.133" x2="150.917" y2="255.133" gradientUnits="userSpaceOnUse">
<stop stop-color="#D9D2D2"/>
<stop offset="0.606973" stop-color="#F3F1EE"/>
<stop offset="1" stop-color="#BFB6B7"/>
</linearGradient>
</defs>
</svg>
