<svg width="225" height="224" viewBox="0 0 225 224" fill="none" xmlns="http://www.w3.org/2000/svg">
<g clip-path="url(#clip0_1911_42)" filter="url(#filter0_d_1911_42)">
<path fill-rule="evenodd" clip-rule="evenodd" d="M179.867 178.063C179.867 178.063 166.909 170.13 162.503 165.641C158.098 161.151 174.672 167.674 174.672 167.674L179.867 178.063Z" fill="#535E84"/>
<path fill-rule="evenodd" clip-rule="evenodd" d="M109.278 204.823C107.289 196.962 106.125 189.83 105.787 183.427C105.784 183.365 106.298 183.474 106.295 183.414C106.026 178.808 108.414 182.155 113.461 193.456L109.278 204.823Z" fill="#535E84"/>
<path fill-rule="evenodd" clip-rule="evenodd" d="M40.5736 173.953C40.5736 173.953 47.2012 162.865 52.9637 156.772C53.0057 156.728 53.3051 157.155 53.3439 157.108C57.7607 151.78 51.3856 168.493 51.3856 168.493L40.5736 173.953Z" fill="#E4E6EE"/>
<path fill-rule="evenodd" clip-rule="evenodd" d="M13.7031 104.351C22.5954 101.952 29.9487 100.757 35.7632 100.766C35.8237 100.766 36.0773 101.393 35.8206 101.27C33.6977 105.567 30.2213 107.653 25.3916 107.528L13.7031 104.351Z" fill="#E4E6EE"/>
<path fill-rule="evenodd" clip-rule="evenodd" d="M45.3302 35.6973C53.6149 39.7208 58.2839 44.3408 62.6664 48.1619C62.712 48.2017 62.4918 48.8416 62.3788 48.5803C57.9577 50.4304 55.9741 48.7237 52.4111 45.4607L45.3302 35.6973Z" fill="white"/>
<path fill-rule="evenodd" clip-rule="evenodd" d="M115.671 8.70751C118.442 17.8135 118.965 24.6639 119.195 30.8189C119.197 30.866 112.925 32.6475 118.709 30.9631C114.108 29.6185 116.099 25.0771 115.383 20.299L115.671 8.70751Z" fill="#E4E6EE"/>
<path fill-rule="evenodd" clip-rule="evenodd" d="M184.25 40.3271C184.25 40.3271 178.268 50.942 171.828 57.6909C165.388 64.4398 173.861 45.5227 173.861 45.5227L184.25 40.3271Z" fill="#535E84"/>
<path fill-rule="evenodd" clip-rule="evenodd" d="M211.238 110.646C203.229 113.465 195.354 114.14 190.176 114.14C184.997 114.14 188.917 112.02 200.217 106.974L211.238 110.646Z" fill="#535E84"/>
<path fill-rule="evenodd" clip-rule="evenodd" d="M112.828 172.964C149.193 172.964 178.672 143.485 178.672 107.12C178.672 70.7556 149.193 41.2764 112.828 41.2764C76.4636 41.2764 46.9844 70.7556 46.9844 107.12C46.9844 143.485 76.4636 172.964 112.828 172.964Z" fill="url(#paint0_linear_1911_42)"/>
<mask id="mask0_1911_42" style="mask-type:luminance" maskUnits="userSpaceOnUse" x="46" y="41" width="133" height="132">
<path fill-rule="evenodd" clip-rule="evenodd" d="M112.828 172.964C149.193 172.964 178.672 143.485 178.672 107.12C178.672 70.7556 149.193 41.2764 112.828 41.2764C76.4636 41.2764 46.9844 70.7556 46.9844 107.12C46.9844 143.485 76.4636 172.964 112.828 172.964Z" fill="white"/>
</mask>
<g mask="url(#mask0_1911_42)">
<path fill-rule="evenodd" clip-rule="evenodd" d="M112.828 171.547C148.411 171.547 177.256 142.702 177.256 107.119C177.256 71.5367 148.411 42.6914 112.828 42.6914C77.2457 42.6914 48.4004 71.5367 48.4004 107.119C48.4004 142.702 77.2457 171.547 112.828 171.547Z" fill="url(#paint1_linear_1911_42)"/>
<path fill-rule="evenodd" clip-rule="evenodd" d="M112.828 163.05C143.719 163.05 168.76 138.009 168.76 107.118C168.76 76.2281 143.719 51.1865 112.828 51.1865C81.938 51.1865 56.8965 76.2281 56.8965 107.118C56.8965 138.009 81.938 163.05 112.828 163.05Z" fill="url(#paint2_linear_1911_42)"/>
<path d="M166.99 107.118C166.99 137.031 142.741 161.28 112.828 161.28C82.9156 161.28 58.6665 137.031 58.6665 107.118C58.6665 77.2056 82.9156 52.9565 112.828 52.9565C142.741 52.9565 166.99 77.2056 166.99 107.118Z" fill="url(#paint3_linear_1911_42)" stroke="url(#paint4_linear_1911_42)" stroke-width="0.707998"/>
<g filter="url(#filter1_f_1911_42)">
<path fill-rule="evenodd" clip-rule="evenodd" d="M116.445 22.3053L115.67 15.7871L111.46 20.8235C100.341 34.1252 86.7429 42.104 70.5668 44.8387C64.8135 45.8113 59.97 47.9869 56.0349 51.3333C54.2701 49.8601 52.42 48.3618 50.4847 46.8379L45.3274 42.777L45.9119 49.3151C47.4558 66.5827 43.482 81.8401 33.9775 95.212C30.6699 99.8654 28.7926 104.717 28.3238 109.747C25.7269 109.969 23.0275 110.247 20.2252 110.58L13.707 111.356L18.7435 115.565C32.0452 126.684 40.0239 140.282 42.7586 156.458C43.7023 162.041 45.7786 166.767 48.9582 170.637C47.5801 172.294 46.1801 174.026 44.7578 175.833L40.6969 180.99L47.235 180.405C53.4509 179.85 61.6262 180.326 65.1058 180.885C68.5854 181.443 70.9785 181.995 74.0368 182.902C80.7974 184.906 87.1482 188.087 93.132 192.34C97.8045 195.661 102.677 197.54 107.729 198C107.94 200.376 108.197 202.838 108.5 205.384L109.276 211.902L113.485 206.866C124.604 193.564 138.202 185.585 154.378 182.851C160.132 181.878 164.975 179.702 168.91 176.356C170.675 177.829 172.525 179.328 174.461 180.851L179.618 184.912L179.033 178.374L178.983 177.786C177.58 160.76 181.571 145.697 190.968 132.477C193.96 128.267 195.782 123.894 196.449 119.373C199.099 119.148 201.856 118.866 204.72 118.525L211.238 117.75L206.202 113.54C192.9 102.421 184.921 88.8229 182.187 72.6469C181.214 66.8936 179.038 62.05 175.692 58.1149C177.165 56.3502 178.664 54.5001 180.187 52.5647L184.248 47.4075L177.71 47.992C160.443 49.5358 145.185 45.562 131.813 36.0575C127.16 32.7501 122.308 30.8728 117.278 30.4038C117.056 27.8069 116.778 25.1075 116.445 22.3053ZM112.841 176.965L112.867 176.547C118.656 181.372 125.168 183.561 132.333 183.046C125.455 188.506 119.021 191.556 112.975 192.258C112.622 186.55 112.579 181.451 112.841 176.965ZM81.8974 149.617C79.2836 150.576 76.4491 152.16 73.4007 154.368C72.8799 165.971 78.1544 173.809 89.2211 178.357L102.229 183.704L90.2809 183.793C92.3652 184.988 94.4094 186.298 96.4131 187.722C99.8936 190.196 103.516 191.699 107.297 192.215C106.813 184.136 106.934 177.161 107.672 171.274C104.795 167.79 102.134 163.543 99.7007 158.547C95.2973 149.505 89.6588 146.769 81.8974 149.617ZM113.644 169.543C114.236 166.005 115.098 163.018 116.225 160.585C119.699 153.083 125.621 151.031 135.128 154.311C140.495 156.162 145.476 157.293 150.055 157.701C153.705 162.332 158.525 167.287 164.517 172.584C161.437 174.985 157.742 176.537 153.433 177.266C150.524 177.758 147.69 178.407 144.931 179.214L154.45 169.553L141.471 174.971C130.58 179.517 121.411 177.816 113.644 169.543ZM67.8484 158.872L67.7434 158.966C64.2851 162.059 60.5965 165.838 56.6858 170.303C59.2855 172.398 62.4701 174.074 66.2533 175.33C69.226 176.317 71.986 176.964 75.3951 177.395C75.5866 177.42 75.7789 177.445 75.9722 177.47C76.3278 177.517 76.6866 177.564 77.0494 177.606C71.5284 172.826 68.4615 166.547 67.8484 158.872ZM157.448 157.7C164.825 156.968 170.883 153.921 175.526 148.558C174.537 157.157 172.199 163.796 168.513 168.554C164.16 164.718 160.471 161.097 157.448 157.7ZM56.6648 115.828L56.4396 116.042C48.456 123.742 46.8618 132.809 51.3459 143.552L56.7636 156.531L46.7449 146.66C46.5263 146.444 46.3095 146.229 46.0947 146.014C47.0424 149.086 47.7918 152.253 48.3431 155.514C49.0417 159.646 50.4982 163.214 52.7344 166.217C58.1701 160.041 63.2463 155.092 67.9829 151.369C68.444 147.002 69.5492 142.278 71.2979 137.209C74.5777 127.702 72.5256 121.78 65.0238 118.305C62.7294 117.243 59.9419 116.416 56.6648 115.828ZM113.86 69.4831C114.563 67.965 115.174 66.2893 115.694 64.4548C117.241 66.775 118.726 69.3983 120.152 72.3281C125.761 83.8441 134.339 88.0071 144.999 84.0959C146.836 83.4217 148.738 82.5062 150.704 81.3486C150.157 84.0766 149.353 86.9749 148.293 90.048C144.116 102.157 147.238 111.166 157.541 115.938C158.637 116.446 159.815 116.905 161.076 117.318C159.14 118.521 157.014 119.686 154.696 120.815C143.18 126.423 139.017 135.001 142.928 145.661C143.603 147.499 144.518 149.4 145.676 151.367C142.948 150.819 140.049 150.016 136.976 148.956C124.868 144.778 115.858 147.9 111.086 158.204C110.32 159.858 109.662 161.7 109.113 163.731C107.617 161.463 106.178 158.909 104.793 156.067C99.1851 144.551 90.607 140.388 79.947 144.299C78.162 144.954 76.3171 145.836 74.4099 146.948C74.9488 144.457 75.6964 141.827 76.6527 139.055C80.83 126.946 77.708 117.937 67.4047 113.165C65.8865 112.461 64.2109 111.85 62.3764 111.33C64.6965 109.784 67.3199 108.299 70.2497 106.872C81.7656 101.264 85.9286 92.6854 82.0174 82.0255C81.3433 80.1881 80.4279 78.2871 79.2701 76.3202C81.9981 76.8674 84.8964 77.671 87.9695 78.7312C100.078 82.9085 109.088 79.7865 113.86 69.4831ZM168.496 119.053L168.368 119.152C165.194 121.566 161.46 123.82 157.175 125.907C148.134 130.31 145.397 135.949 148.245 143.71C149.207 146.331 150.796 149.174 153.015 152.231C164.219 152.504 171.825 147.221 176.278 136.387L181.624 123.379L181.722 136.573C183.101 134.056 184.644 131.596 186.351 129.195C188.502 126.168 189.919 123.034 190.591 119.783C181.94 120.253 174.581 120.016 168.496 119.053ZM34.0534 115.013L34.1437 115.008C39.9946 114.673 45.1931 114.669 49.7323 114.993C44.9337 120.771 42.757 127.267 43.2711 134.414C37.7985 127.519 34.7469 121.071 34.0534 115.013ZM181.674 93.2737C182.227 100.972 179.659 107.916 174.054 114.02C178.914 114.437 184.569 114.46 191.009 114.083C190.659 107.618 187.573 100.705 181.674 93.2737ZM171.819 62.6222L171.921 62.5067C174.322 65.5868 175.874 69.2816 176.602 73.5895C177.035 76.1492 177.59 78.6508 178.266 81.0938L178.2 81.0279L168.182 71.1572L173.599 84.1361L173.788 84.5955C178.297 95.7838 176.149 105.143 166.988 113.026C164.264 112.462 161.908 111.718 159.922 110.798C152.42 107.324 150.368 101.402 153.647 91.8949C155.499 86.5278 156.629 81.5465 157.038 76.9679C161.639 73.3412 166.56 68.5594 171.819 62.6222ZM48.6662 91.3002L43.3195 104.309L43.2225 91.1123C41.8436 93.6301 40.3005 96.0902 38.5932 98.4922C36.1283 101.96 34.627 105.569 34.1064 109.335C42.1627 108.884 49.1044 109.045 54.9459 109.83C58.448 106.923 62.7263 104.235 67.7686 101.78C76.8102 97.3764 79.5466 91.738 76.6989 83.9765C75.7373 81.3557 74.1474 78.5129 71.9292 75.4551C60.7248 75.1832 53.1192 80.4659 48.6662 91.3002ZM117.706 36.4889L117.69 36.1869C121.455 36.7077 125.064 38.2089 128.532 40.6737C130.934 42.381 133.394 43.9241 135.912 45.3029L122.716 45.4L135.724 50.7466C146.558 55.1997 151.841 62.8053 151.569 74.0099C148.511 76.2279 145.668 77.8178 143.048 78.7794C135.286 81.6271 129.648 78.8907 125.244 69.849C122.789 64.8064 120.101 60.5279 117.194 57.0256C117.969 51.2572 118.136 44.4159 117.706 36.4889ZM56.432 59.1322C52.7462 63.8919 50.4076 70.5302 49.4192 79.1285C54.0623 73.7656 60.1195 70.7183 67.4967 69.9862C64.4741 66.5895 60.7855 62.9686 56.432 59.1322ZM80.7642 48.2512L81.0101 48.1752C80.7951 48.3901 80.5798 48.6068 80.3644 48.8255L70.4937 58.8441L83.4726 53.4265C94.3153 48.9006 103.451 50.5668 111.196 58.7454C110.608 62.0224 109.782 64.81 108.719 67.1043C105.244 74.6061 99.3225 76.6582 89.8154 73.3784C84.4483 71.5269 79.467 70.3967 74.8884 69.9883C71.2384 65.3573 66.4182 60.402 60.4272 55.1047C63.5073 52.7041 67.2021 51.152 71.51 50.4237C74.6844 49.887 77.7693 49.1627 80.7642 48.2512ZM147.895 51.4977C153.258 56.1408 156.305 62.1979 157.038 69.5752C160.435 66.5524 164.056 62.8636 167.892 58.5098C163.134 54.8253 156.495 52.4863 147.895 51.4977ZM111.707 36.169L112.011 36.1329C112.352 42.02 112.357 47.2482 112.032 51.8111C106.254 47.0125 99.7579 44.8358 92.6111 45.3499C99.39 39.9689 105.738 36.9286 111.707 36.169Z" fill="#535E84"/>
</g>
</g>
<path fill-rule="evenodd" clip-rule="evenodd" d="M116.183 27.4717L117.883 27.7068C121.872 28.2584 125.694 29.8423 129.352 32.4421C131.447 33.9313 133.587 35.2929 135.763 36.5224L141.298 39.6019L129.759 39.6868L136.262 42.3595C147.681 47.0531 153.269 55.2175 152.984 66.9669L152.967 67.6673L152.4 68.0786C149.246 70.3664 146.291 72.02 143.535 73.0312C135.002 76.1621 128.651 73.0013 123.971 63.3915C121.564 58.4494 118.937 54.2651 116.104 50.8526L115.707 50.3749L115.79 49.7596C116.28 46.1088 116.524 42.004 116.521 37.4399L116.52 37.3066L116.521 37.1643L116.519 36.7519C116.506 34.6774 116.444 32.5098 116.331 30.2487L116.292 29.4877L116.183 27.4717ZM57.368 50.9924L56.236 49.9949L55.3122 51.1878C51.444 56.1831 49.0262 63.0695 48.0122 71.8894L47.4887 76.444L50.4895 72.9779C54.8828 67.9036 60.5997 65.0161 67.6363 64.3178L70.4016 64.0434L68.5543 61.9675C65.4844 58.5177 61.7527 54.8563 57.368 50.9924ZM173.038 54.56L171.991 53.2155L170.759 54.6078L170.254 55.1759C168.913 56.6765 167.597 58.099 166.303 59.4439L165.19 60.588L164.858 60.924C161.829 63.9795 158.931 66.597 156.162 68.7796L155.682 69.1576L155.628 69.7659C155.23 74.2265 154.124 79.097 152.309 84.3569C148.824 94.4613 151.079 101.187 159.327 105.007C161.42 105.976 163.879 106.752 166.701 107.337L167.384 107.478L167.912 107.023C177.493 98.7796 179.858 88.791 175.102 76.99L174.91 76.5225L172.198 70.025L177.207 74.9604L177.265 75.0181L181.018 78.7776L179.386 72.7298C178.834 70.6291 178.37 68.4752 177.999 66.2773C177.231 61.7325 175.581 57.8227 173.038 54.56ZM179.933 81.7267L182.784 85.3175C188.838 92.9443 192.055 100.124 192.424 106.93L192.501 108.338L191.093 108.421C184.604 108.801 178.879 108.779 173.934 108.355L171.063 108.109L173.012 105.986C178.37 100.151 180.786 93.5846 180.262 86.2995L179.933 81.7267ZM52.5833 106.698L49.8332 106.502C45.2202 106.173 39.9593 106.177 34.0628 106.516L33.9734 106.521L32.4648 106.606L32.6924 108.47C33.5041 114.727 36.6616 121.285 42.1623 128.215L45.0127 131.806L44.6837 127.233C44.1972 120.471 46.2435 114.331 50.8218 108.819L52.5833 106.698ZM56.9143 107.356L56.2082 107.229L55.4632 107.938L55.1983 108.196C47.0441 116.226 45.363 125.817 50.0388 137.019L52.7476 143.508L47.7383 138.573L47.4137 138.252L47.094 137.933L43.0632 133.914L44.7412 139.353C45.6702 142.364 46.4054 145.471 46.9465 148.672C47.6833 153.03 49.2299 156.804 51.5983 159.984L52.6422 161.386L53.7969 160.074C55.652 157.966 57.4618 156.006 59.2272 154.192L59.9628 153.442L60.1858 153.218C63.2072 150.177 66.0965 147.574 68.8575 145.404L69.3278 145.034L69.3906 144.439C69.8401 140.183 70.9218 135.561 72.636 130.592C76.1219 120.488 73.8661 113.762 65.6184 109.942C63.2039 108.824 60.301 107.963 56.9143 107.356ZM177.456 137.09L176.933 141.644C175.919 150.465 173.501 157.352 169.633 162.346L168.709 163.539L167.577 162.541C163.193 158.678 159.461 155.017 156.39 151.567L154.542 149.49L157.308 149.216C164.345 148.518 170.062 145.63 174.455 140.556L177.456 137.09ZM108.764 163.295C105.96 159.9 103.359 155.747 100.974 150.85C96.2937 141.24 89.9427 138.079 81.4096 141.21C78.6608 142.219 75.7142 143.866 72.5699 146.145L72.0167 146.546L71.9861 147.228C71.4406 159.381 77.0178 167.796 88.6828 172.59L95.1864 175.263L85.0979 175.338L90.3484 178.393C92.1215 179.44 93.8721 180.577 95.5927 181.799C99.264 184.409 103.101 185.995 107.105 186.541L108.813 186.774L108.71 185.053C108.575 182.798 108.433 177.646 108.433 177.646L108.429 177.186C108.385 172.434 108.601 168.165 109.077 164.373L109.153 163.767L108.764 163.295ZM113.775 168.381L111.627 166.591L111.429 169.799L111.395 170.424C111.167 174.83 111.223 179.779 111.563 185.267L111.655 186.759L113.139 186.586C119.488 185.849 126.159 182.677 133.214 177.077L136.805 174.226L132.232 174.555C125.453 175.043 119.298 172.985 113.775 168.381ZM114.151 172.238C114.042 175.447 114.078 178.948 114.26 182.735L114.301 183.551C118.644 182.763 123.229 180.712 128.072 177.37C123.098 176.977 118.442 175.258 114.151 172.238ZM95.2027 178.095L105.607 178.018C105.633 179.761 105.692 181.564 105.785 183.428C102.854 182.772 100.009 181.463 97.2336 179.491C96.5612 179.013 95.8842 178.547 95.2027 178.095ZM82.3851 143.869C80.0595 144.722 77.5238 146.111 74.7914 148.038C74.5303 158.6 79.4033 165.714 89.7593 169.971L105.592 176.478C105.576 172.142 105.776 168.193 106.194 164.625C103.388 161.14 100.798 156.957 98.4276 152.09C94.3457 143.708 89.4556 141.275 82.3851 143.869ZM150.182 149.213C145.721 148.815 140.85 147.71 135.591 145.895C125.486 142.409 118.76 144.665 114.94 152.913C113.755 155.472 112.859 158.58 112.248 162.231L112.132 162.923L112.612 163.435C120.754 172.107 130.538 173.992 142.017 169.2L148.506 166.492L140.148 174.973L146.242 173.235C148.653 172.565 151.132 172.014 153.67 171.585C158.215 170.816 162.125 169.167 165.388 166.624L166.733 165.575L165.456 164.446C163.537 162.75 161.743 161.092 160.072 159.472L159.443 158.857L159.084 158.504C156.002 155.452 153.365 152.535 151.168 149.747L150.79 149.268L150.182 149.213ZM69.0332 148.837L69.2606 151.683C69.8458 159.009 72.7528 164.936 77.9769 169.459L81.443 172.46L76.8884 171.936C76.3143 171.87 75.7512 171.799 75.1994 171.721L75.094 171.706L74.992 171.676C72.0723 170.808 69.0862 170.133 66.0338 169.653L65.9185 169.634L65.8077 169.598C61.8753 168.292 58.5392 166.538 55.798 164.329L54.6492 163.404L55.6212 162.294C59.3879 157.993 62.9636 154.309 66.3443 151.245L66.8 150.835L69.0332 148.837ZM149.511 169.507L157.741 161.154C159.159 162.539 160.663 163.949 162.255 165.384C159.668 167.073 156.655 168.207 153.199 168.791C151.956 169.002 150.727 169.24 149.511 169.507ZM117.51 154.102C116.513 156.254 115.728 158.889 115.162 162.001C122.371 169.358 130.746 170.835 140.926 166.586L156.612 160.038C153.826 157.25 151.397 154.564 149.322 151.975C144.789 151.513 139.899 150.376 134.667 148.571C125.854 145.531 120.675 147.268 117.51 154.102ZM58.7596 163.017C61.5482 159.888 64.2215 157.115 66.7744 154.704C67.6117 159.837 69.5988 164.325 72.7202 168.12C70.8008 167.932 68.5734 167.538 66.5905 166.873C63.5736 165.861 60.9665 164.576 58.7596 163.017ZM173.505 145.487C169.778 148.668 165.364 150.729 160.311 151.652C162.478 153.953 164.939 156.352 167.691 158.845L168.286 159.381C170.723 155.782 172.465 151.161 173.505 145.487ZM49.7396 148.2C49.4778 146.651 49.1721 145.123 48.8224 143.616L55.7701 150.461L57.3721 152.04L56.7411 152.69C55.4758 154.002 54.1899 155.385 52.8828 156.841C51.3396 154.349 50.293 151.474 49.7396 148.2ZM57.1233 110.275C49.8689 117.456 48.4231 125.794 52.6529 135.927L58.7838 150.615C61.4986 147.919 64.1163 145.564 66.6413 143.546C67.1491 139.233 68.2569 134.603 69.9595 129.668C72.9998 120.855 71.2629 115.676 64.4289 112.511C62.4155 111.579 59.9782 110.831 57.1233 110.275ZM168.719 110.579L168.115 110.483L167.504 110.955L167.013 111.324C164.028 113.537 160.538 115.619 156.556 117.558C146.947 122.238 143.786 128.589 146.917 137.122C147.928 139.878 149.581 142.833 151.869 145.987L152.281 146.554L152.981 146.571C164.73 146.857 172.895 141.269 177.588 129.849L180.261 123.346L180.347 134.883L183.426 129.349C184.656 127.173 186.017 125.034 187.506 122.939C189.773 119.75 191.267 116.435 191.979 112.993L192.351 111.193L190.515 111.293C188.063 111.426 185.72 111.502 183.484 111.521L183.211 111.521H181.5C176.723 111.486 172.465 111.171 168.719 110.579ZM168.873 113.467L168.705 113.593C165.567 115.92 161.927 118.091 157.795 120.103C149.414 124.185 146.98 129.075 149.574 136.146C150.428 138.474 151.82 141.013 153.749 143.749C163.915 143.776 170.806 138.897 174.968 128.772L180.913 114.356C176.481 114.302 172.46 114 168.873 113.467ZM188.75 114.213C186.772 114.299 184.865 114.346 183.026 114.354L183.101 124.401C183.771 123.356 184.47 122.321 185.197 121.297C186.839 118.987 188.022 116.628 188.75 114.213ZM41.8687 123.074C38.5169 118.219 36.4638 113.622 35.6802 109.268C39.7863 109.068 43.5558 109.039 46.9825 109.18C43.9732 113.464 42.2608 118.111 41.8687 123.074ZM183.076 90.4611C182.642 95.9601 180.587 101.068 176.947 105.724C180.478 105.908 184.387 105.904 188.667 105.712L189.474 105.673C188.91 100.905 186.791 95.8422 183.076 90.4611ZM158.39 70.6257C160.954 68.5713 163.612 66.1697 166.371 63.4178L172.293 77.6054L172.478 78.0568C176.692 88.5115 174.803 97.0702 166.59 104.416C164.259 103.894 162.234 103.233 160.517 102.437C153.683 99.2721 151.946 94.0933 154.986 85.2805C156.791 80.0482 157.928 75.1585 158.39 70.6257ZM71.9644 66.9627L72.6649 66.9797L73.0763 67.5468C75.3641 70.7007 77.0178 73.6558 78.0291 76.412C81.1599 84.9451 77.9991 91.296 68.3894 95.9761C63.447 98.383 59.2632 101.01 55.8513 103.843L55.3735 104.24L54.7581 104.157C51.1762 103.676 47.1576 103.432 42.6963 103.426L42.3045 103.426L41.3445 103.431C39.0696 103.452 36.6837 103.532 34.1863 103.672L32.469 103.768L32.7046 102.064C33.256 98.0756 34.84 94.2529 37.4399 90.5951C38.9291 88.4999 40.2907 86.3602 41.5202 84.1842L44.5997 78.6487L44.6846 90.1878L47.3573 83.6851C52.0509 72.2656 60.2152 66.6775 71.9644 66.9627ZM49.9762 84.7616C54.138 74.6361 61.0288 69.7574 71.1945 69.7842C73.1241 72.5202 74.5157 75.059 75.37 77.3873C77.9642 84.4578 75.5304 89.3479 67.149 93.4298C62.2388 95.8211 58.0251 98.4364 54.522 101.271C51.1805 100.851 47.4978 100.627 43.4676 100.597L49.9762 84.7616ZM41.8449 89.1325C41.1752 90.178 40.4763 91.2128 39.7483 92.237C37.7835 95.0014 36.4766 97.8357 35.8185 100.755C37.6323 100.672 39.3877 100.621 41.0852 100.603L41.9292 100.596L41.8449 89.1325ZM118.677 49.524C119.097 46.1827 119.321 42.5002 119.351 38.4703L135.186 44.9789C145.312 49.1406 150.19 56.0315 150.163 66.1974C147.427 68.1269 144.888 69.5184 142.56 70.3726C135.49 72.9668 130.6 70.5331 126.518 62.1516C124.127 57.2417 121.511 53.0276 118.677 49.524ZM171.798 57.694C170.486 59.1489 169.195 60.5312 167.925 61.841L169.175 63.0728L175.727 69.5278C175.537 68.6093 175.363 67.6832 175.205 66.7498C174.621 63.2933 173.487 60.2809 171.798 57.694ZM82.0139 42.0964L86.0376 38.0607L80.347 39.8199L79.542 40.0596C76.865 40.8396 74.1066 41.4702 71.2749 41.949C66.7301 42.7173 62.8204 44.3664 59.5577 46.9093L58.2128 47.9575L59.4902 49.087C61.6002 50.9526 63.5604 52.7725 65.3716 54.5474L66.0061 55.1733L66.3447 55.511C69.2198 58.3886 71.6962 61.1459 73.7773 63.7863L74.1553 64.266L74.7636 64.3202C79.2241 64.718 84.0946 65.8239 89.3546 67.6385C99.459 71.1243 106.185 68.8685 110.005 60.6209C111.123 58.2063 111.984 55.3035 112.591 51.9168L112.717 51.2126L112.225 50.6932C104.105 42.1182 94.3565 40.2708 82.9282 45.0412L76.4387 47.7501L81.374 42.7407L81.6951 42.4161L82.0139 42.0964ZM56.6601 54.1532C54.223 57.7523 52.4806 62.373 51.4411 68.0462C55.1674 64.8655 59.5811 62.8052 64.6347 61.8817C62.3133 59.417 59.6539 56.8391 56.6601 54.1532ZM68.8299 53.9956L84.0186 47.6555C94.1477 43.4274 102.488 44.8686 109.67 52.1267C109.115 54.9813 108.367 57.4183 107.435 59.4315C104.269 66.2655 99.0905 68.0025 90.2776 64.9622C85.0453 63.1571 80.1556 62.0204 75.6229 61.5584C73.6725 59.1245 71.4091 56.6049 68.8299 53.9956ZM143.502 42.4913L148.057 43.0149C156.877 44.0289 163.764 46.4469 168.759 50.3142L169.952 51.2379L168.954 52.3699C165.09 56.755 161.429 60.4869 157.979 63.557L155.903 65.4043L155.628 62.639C154.93 55.6024 152.042 49.8854 146.968 45.4922L143.502 42.4913ZM158.065 59.6374C157.142 54.5838 155.081 50.1701 151.901 46.4438C157.574 47.4832 162.195 49.2257 165.794 51.6622C163.108 54.6562 160.53 57.3159 158.065 59.6374ZM76.3311 43.8241C74.8236 44.1737 73.2956 44.4794 71.7471 44.7412C68.4409 45.3001 65.541 46.3621 63.0311 47.9313L62.6913 48.1484C64.4162 49.7042 66.0389 51.23 67.5598 52.7268L69.4861 50.7717L76.3311 43.8241ZM113.426 28.9751L113.339 27.4738L111.541 27.6869C105.264 28.4856 98.6846 31.6458 91.7317 37.1649L88.1409 40.0153L92.7137 39.6863C99.4759 39.1999 105.616 41.2462 111.128 45.8245L113.249 47.5861L113.445 44.8359C113.776 40.1987 113.769 34.9078 113.426 28.9751ZM110.681 30.6819C106.327 31.4655 101.73 33.5185 96.8743 36.8704C101.838 37.2625 106.485 38.9749 110.768 41.9841C110.91 38.5569 110.881 34.7874 110.681 30.6819ZM119.353 36.9318C119.344 34.9738 119.291 32.9372 119.195 30.8212C122.114 31.4793 124.948 32.7862 127.712 34.751C128.736 35.479 129.771 36.1778 130.817 36.8475L119.353 36.9318Z" fill="url(#paint5_linear_1911_42)"/>
<mask id="mask1_1911_42" style="mask-type:luminance" maskUnits="userSpaceOnUse" x="32" y="27" width="161" height="160">
<path fill-rule="evenodd" clip-rule="evenodd" d="M116.183 27.4717L117.883 27.7068C121.872 28.2584 125.694 29.8423 129.352 32.4421C131.447 33.9313 133.587 35.2929 135.763 36.5224L141.298 39.6019L129.759 39.6868L136.262 42.3595C147.681 47.0531 153.269 55.2175 152.984 66.9669L152.967 67.6673L152.4 68.0786C149.246 70.3664 146.291 72.02 143.535 73.0312C135.002 76.1621 128.651 73.0013 123.971 63.3915C121.564 58.4494 118.937 54.2651 116.104 50.8526L115.707 50.3749L115.79 49.7596C116.28 46.1088 116.524 42.004 116.521 37.4399L116.52 37.3066L116.521 37.1643L116.519 36.7519C116.506 34.6774 116.444 32.5098 116.331 30.2487L116.292 29.4877L116.183 27.4717ZM57.368 50.9924L56.236 49.9949L55.3122 51.1878C51.444 56.1831 49.0262 63.0695 48.0122 71.8894L47.4887 76.444L50.4895 72.9779C54.8828 67.9036 60.5997 65.0161 67.6363 64.3178L70.4016 64.0434L68.5543 61.9675C65.4844 58.5177 61.7527 54.8563 57.368 50.9924ZM173.038 54.56L171.991 53.2155L170.759 54.6078L170.254 55.1759C168.913 56.6765 167.597 58.099 166.303 59.4439L165.19 60.588L164.858 60.924C161.829 63.9795 158.931 66.597 156.162 68.7796L155.682 69.1576L155.628 69.7659C155.23 74.2265 154.124 79.097 152.309 84.3569C148.824 94.4613 151.079 101.187 159.327 105.007C161.42 105.976 163.879 106.752 166.701 107.337L167.384 107.478L167.912 107.023C177.493 98.7796 179.858 88.791 175.102 76.99L174.91 76.5225L172.198 70.025L177.207 74.9604L177.265 75.0181L181.018 78.7776L179.386 72.7298C178.834 70.6291 178.37 68.4752 177.999 66.2773C177.231 61.7325 175.581 57.8227 173.038 54.56ZM179.933 81.7267L182.784 85.3175C188.838 92.9443 192.055 100.124 192.424 106.93L192.501 108.338L191.093 108.421C184.604 108.801 178.879 108.779 173.934 108.355L171.063 108.109L173.012 105.986C178.37 100.151 180.786 93.5846 180.262 86.2995L179.933 81.7267ZM52.5833 106.698L49.8332 106.502C45.2202 106.173 39.9593 106.177 34.0628 106.516L33.9734 106.521L32.4648 106.606L32.6924 108.47C33.5041 114.727 36.6616 121.285 42.1623 128.215L45.0127 131.806L44.6837 127.233C44.1972 120.471 46.2435 114.331 50.8218 108.819L52.5833 106.698ZM56.9143 107.356L56.2082 107.229L55.4632 107.938L55.1983 108.196C47.0441 116.226 45.363 125.817 50.0388 137.019L52.7476 143.508L47.7383 138.573L47.4137 138.252L47.094 137.933L43.0632 133.914L44.7412 139.353C45.6702 142.364 46.4054 145.471 46.9465 148.672C47.6833 153.03 49.2299 156.804 51.5983 159.984L52.6422 161.386L53.7969 160.074C55.652 157.966 57.4618 156.006 59.2272 154.192L59.9628 153.442L60.1858 153.218C63.2072 150.177 66.0965 147.574 68.8575 145.404L69.3278 145.034L69.3906 144.439C69.8401 140.183 70.9218 135.561 72.636 130.592C76.1219 120.488 73.8661 113.762 65.6184 109.942C63.2039 108.824 60.301 107.963 56.9143 107.356ZM177.456 137.09L176.933 141.644C175.919 150.465 173.501 157.352 169.633 162.346L168.709 163.539L167.577 162.541C163.193 158.678 159.461 155.017 156.39 151.567L154.542 149.49L157.308 149.216C164.345 148.518 170.062 145.63 174.455 140.556L177.456 137.09ZM108.764 163.295C105.96 159.9 103.359 155.747 100.974 150.85C96.2937 141.24 89.9427 138.079 81.4096 141.21C78.6608 142.219 75.7142 143.866 72.5699 146.145L72.0167 146.546L71.9861 147.228C71.4406 159.381 77.0178 167.796 88.6828 172.59L95.1864 175.263L85.0979 175.338L90.3484 178.393C92.1215 179.44 93.8721 180.577 95.5927 181.799C99.264 184.409 103.101 185.995 107.105 186.541L108.813 186.774L108.71 185.053C108.575 182.798 108.433 177.646 108.433 177.646L108.429 177.186C108.385 172.434 108.601 168.165 109.077 164.373L109.153 163.767L108.764 163.295ZM113.775 168.381L111.627 166.591L111.429 169.799L111.395 170.424C111.167 174.83 111.223 179.779 111.563 185.267L111.655 186.759L113.139 186.586C119.488 185.849 126.159 182.677 133.214 177.077L136.805 174.226L132.232 174.555C125.453 175.043 119.298 172.985 113.775 168.381ZM114.151 172.238C114.042 175.447 114.078 178.948 114.26 182.735L114.301 183.551C118.644 182.763 123.229 180.712 128.072 177.37C123.098 176.977 118.442 175.258 114.151 172.238ZM95.2027 178.095L105.607 178.018C105.633 179.761 105.692 181.564 105.785 183.428C102.854 182.772 100.009 181.463 97.2336 179.491C96.5612 179.013 95.8842 178.547 95.2027 178.095ZM82.3851 143.869C80.0595 144.722 77.5238 146.111 74.7914 148.038C74.5303 158.6 79.4033 165.714 89.7593 169.971L105.592 176.478C105.576 172.142 105.776 168.193 106.194 164.625C103.388 161.14 100.798 156.957 98.4276 152.09C94.3457 143.708 89.4556 141.275 82.3851 143.869ZM150.182 149.213C145.721 148.815 140.85 147.71 135.591 145.895C125.486 142.409 118.76 144.665 114.94 152.913C113.755 155.472 112.859 158.58 112.248 162.231L112.132 162.923L112.612 163.435C120.754 172.107 130.538 173.992 142.017 169.2L148.506 166.492L140.148 174.973L146.242 173.235C148.653 172.565 151.132 172.014 153.67 171.585C158.215 170.816 162.125 169.167 165.388 166.624L166.733 165.575L165.456 164.446C163.537 162.75 161.743 161.092 160.072 159.472L159.443 158.857L159.084 158.504C156.002 155.452 153.365 152.535 151.168 149.747L150.79 149.268L150.182 149.213ZM69.0332 148.837L69.2606 151.683C69.8458 159.009 72.7528 164.936 77.9769 169.459L81.443 172.46L76.8884 171.936C76.3143 171.87 75.7512 171.799 75.1994 171.721L75.094 171.706L74.992 171.676C72.0723 170.808 69.0862 170.133 66.0338 169.653L65.9185 169.634L65.8077 169.598C61.8753 168.292 58.5392 166.538 55.798 164.329L54.6492 163.404L55.6212 162.294C59.3879 157.993 62.9636 154.309 66.3443 151.245L66.8 150.835L69.0332 148.837ZM149.511 169.507L157.741 161.154C159.159 162.539 160.663 163.949 162.255 165.384C159.668 167.073 156.655 168.207 153.199 168.791C151.956 169.002 150.727 169.24 149.511 169.507ZM117.51 154.102C116.513 156.254 115.728 158.889 115.162 162.001C122.371 169.358 130.746 170.835 140.926 166.586L156.612 160.038C153.826 157.25 151.397 154.564 149.322 151.975C144.789 151.513 139.899 150.376 134.667 148.571C125.854 145.531 120.675 147.268 117.51 154.102ZM58.7596 163.017C61.5482 159.888 64.2215 157.115 66.7744 154.704C67.6117 159.837 69.5988 164.325 72.7202 168.12C70.8008 167.932 68.5734 167.538 66.5905 166.873C63.5736 165.861 60.9665 164.576 58.7596 163.017ZM173.505 145.487C169.778 148.668 165.364 150.729 160.311 151.652C162.478 153.953 164.939 156.352 167.691 158.845L168.286 159.381C170.723 155.782 172.465 151.161 173.505 145.487ZM49.7396 148.2C49.4778 146.651 49.1721 145.123 48.8224 143.616L55.7701 150.461L57.3721 152.04L56.7411 152.69C55.4758 154.002 54.1899 155.385 52.8828 156.841C51.3396 154.349 50.293 151.474 49.7396 148.2ZM57.1233 110.275C49.8689 117.456 48.4231 125.794 52.6529 135.927L58.7838 150.615C61.4986 147.919 64.1163 145.564 66.6413 143.546C67.1491 139.233 68.2569 134.603 69.9595 129.668C72.9998 120.855 71.2629 115.676 64.4289 112.511C62.4155 111.579 59.9782 110.831 57.1233 110.275ZM168.719 110.579L168.115 110.483L167.504 110.955L167.013 111.324C164.028 113.537 160.538 115.619 156.556 117.558C146.947 122.238 143.786 128.589 146.917 137.122C147.928 139.878 149.581 142.833 151.869 145.987L152.281 146.554L152.981 146.571C164.73 146.857 172.895 141.269 177.588 129.849L180.261 123.346L180.347 134.883L183.426 129.349C184.656 127.173 186.017 125.034 187.506 122.939C189.773 119.75 191.267 116.435 191.979 112.993L192.351 111.193L190.515 111.293C188.063 111.426 185.72 111.502 183.484 111.521L183.211 111.521H181.5C176.723 111.486 172.465 111.171 168.719 110.579ZM168.873 113.467L168.705 113.593C165.567 115.92 161.927 118.091 157.795 120.103C149.414 124.185 146.98 129.075 149.574 136.146C150.428 138.474 151.82 141.013 153.749 143.749C163.915 143.776 170.806 138.897 174.968 128.772L180.913 114.356C176.481 114.302 172.46 114 168.873 113.467ZM188.75 114.213C186.772 114.299 184.865 114.346 183.026 114.354L183.101 124.401C183.771 123.356 184.47 122.321 185.197 121.297C186.839 118.987 188.022 116.628 188.75 114.213ZM41.8687 123.074C38.5169 118.219 36.4638 113.622 35.6802 109.268C39.7863 109.068 43.5558 109.039 46.9825 109.18C43.9732 113.464 42.2608 118.111 41.8687 123.074ZM183.076 90.4611C182.642 95.9601 180.587 101.068 176.947 105.724C180.478 105.908 184.387 105.904 188.667 105.712L189.474 105.673C188.91 100.905 186.791 95.8422 183.076 90.4611ZM158.39 70.6257C160.954 68.5713 163.612 66.1697 166.371 63.4178L172.293 77.6054L172.478 78.0568C176.692 88.5115 174.803 97.0702 166.59 104.416C164.259 103.894 162.234 103.233 160.517 102.437C153.683 99.2721 151.946 94.0933 154.986 85.2805C156.791 80.0482 157.928 75.1585 158.39 70.6257ZM71.9644 66.9627L72.6649 66.9797L73.0763 67.5468C75.3641 70.7007 77.0178 73.6558 78.0291 76.412C81.1599 84.9451 77.9991 91.296 68.3894 95.9761C63.447 98.383 59.2632 101.01 55.8513 103.843L55.3735 104.24L54.7581 104.157C51.1762 103.676 47.1576 103.432 42.6963 103.426L42.3045 103.426L41.3445 103.431C39.0696 103.452 36.6837 103.532 34.1863 103.672L32.469 103.768L32.7046 102.064C33.256 98.0756 34.84 94.2529 37.4399 90.5951C38.9291 88.4999 40.2907 86.3602 41.5202 84.1842L44.5997 78.6487L44.6846 90.1878L47.3573 83.6851C52.0509 72.2656 60.2152 66.6775 71.9644 66.9627ZM49.9762 84.7616C54.138 74.6361 61.0288 69.7574 71.1945 69.7842C73.1241 72.5202 74.5157 75.059 75.37 77.3873C77.9642 84.4578 75.5304 89.3479 67.149 93.4298C62.2388 95.8211 58.0251 98.4364 54.522 101.271C51.1805 100.851 47.4978 100.627 43.4676 100.597L49.9762 84.7616ZM41.8449 89.1325C41.1752 90.178 40.4763 91.2128 39.7483 92.237C37.7835 95.0014 36.4766 97.8357 35.8185 100.755C37.6323 100.672 39.3877 100.621 41.0852 100.603L41.9292 100.596L41.8449 89.1325ZM118.677 49.524C119.097 46.1827 119.321 42.5002 119.351 38.4703L135.186 44.9789C145.312 49.1406 150.19 56.0315 150.163 66.1974C147.427 68.1269 144.888 69.5184 142.56 70.3726C135.49 72.9668 130.6 70.5331 126.518 62.1516C124.127 57.2417 121.511 53.0276 118.677 49.524ZM171.798 57.694C170.486 59.1489 169.195 60.5312 167.925 61.841L169.175 63.0728L175.727 69.5278C175.537 68.6093 175.363 67.6832 175.205 66.7498C174.621 63.2933 173.487 60.2809 171.798 57.694ZM82.0139 42.0964L86.0376 38.0607L80.347 39.8199L79.542 40.0596C76.865 40.8396 74.1066 41.4702 71.2749 41.949C66.7301 42.7173 62.8204 44.3664 59.5577 46.9093L58.2128 47.9575L59.4902 49.087C61.6002 50.9526 63.5604 52.7725 65.3716 54.5474L66.0061 55.1733L66.3447 55.511C69.2198 58.3886 71.6962 61.1459 73.7773 63.7863L74.1553 64.266L74.7636 64.3202C79.2241 64.718 84.0946 65.8239 89.3546 67.6385C99.459 71.1243 106.185 68.8685 110.005 60.6209C111.123 58.2063 111.984 55.3035 112.591 51.9168L112.717 51.2126L112.225 50.6932C104.105 42.1182 94.3565 40.2708 82.9282 45.0412L76.4387 47.7501L81.374 42.7407L81.6951 42.4161L82.0139 42.0964ZM56.6601 54.1532C54.223 57.7523 52.4806 62.373 51.4411 68.0462C55.1674 64.8655 59.5811 62.8052 64.6347 61.8817C62.3133 59.417 59.6539 56.8391 56.6601 54.1532ZM68.8299 53.9956L84.0186 47.6555C94.1477 43.4274 102.488 44.8686 109.67 52.1267C109.115 54.9813 108.367 57.4183 107.435 59.4315C104.269 66.2655 99.0905 68.0025 90.2776 64.9622C85.0453 63.1571 80.1556 62.0204 75.6229 61.5584C73.6725 59.1245 71.4091 56.6049 68.8299 53.9956ZM143.502 42.4913L148.057 43.0149C156.877 44.0289 163.764 46.4469 168.759 50.3142L169.952 51.2379L168.954 52.3699C165.09 56.755 161.429 60.4869 157.979 63.557L155.903 65.4043L155.628 62.639C154.93 55.6024 152.042 49.8854 146.968 45.4922L143.502 42.4913ZM158.065 59.6374C157.142 54.5838 155.081 50.1701 151.901 46.4438C157.574 47.4832 162.195 49.2257 165.794 51.6622C163.108 54.6562 160.53 57.3159 158.065 59.6374ZM76.3311 43.8241C74.8236 44.1737 73.2956 44.4794 71.7471 44.7412C68.4409 45.3001 65.541 46.3621 63.0311 47.9313L62.6913 48.1484C64.4162 49.7042 66.0389 51.23 67.5598 52.7268L69.4861 50.7717L76.3311 43.8241ZM113.426 28.9751L113.339 27.4738L111.541 27.6869C105.264 28.4856 98.6846 31.6458 91.7317 37.1649L88.1409 40.0153L92.7137 39.6863C99.4759 39.1999 105.616 41.2462 111.128 45.8245L113.249 47.5861L113.445 44.8359C113.776 40.1987 113.769 34.9078 113.426 28.9751ZM110.681 30.6819C106.327 31.4655 101.73 33.5185 96.8743 36.8704C101.838 37.2625 106.485 38.9749 110.768 41.9841C110.91 38.5569 110.881 34.7874 110.681 30.6819ZM119.353 36.9318C119.344 34.9738 119.291 32.9372 119.195 30.8212C122.114 31.4793 124.948 32.7862 127.712 34.751C128.736 35.479 129.771 36.1778 130.817 36.8475L119.353 36.9318Z" fill="white"/>
</mask>
<g mask="url(#mask1_1911_42)">
<path fill-rule="evenodd" clip-rule="evenodd" d="M109.906 39.621L113.265 43.3614L112.827 47.038L91.3574 39.9309L91.8374 37.8554L95.262 36.0898L103.866 36.8955L109.906 39.621Z" fill="white"/>
<path fill-rule="evenodd" clip-rule="evenodd" d="M109.671 31.3645L111.908 27.8047L113.265 29.4973V43.6943L112.033 44.7346L110.768 41.9847L108.74 36.3335L109.671 31.3645Z" fill="url(#paint6_linear_1911_42)"/>
<path fill-rule="evenodd" clip-rule="evenodd" d="M110.68 30.6825L112.011 29.0564L113.687 26.9688L107.209 27.4718L91.5801 34.284V37.8554L92.6109 38.2734L96.8732 36.8955L102.441 35.1493L110.68 30.6825Z" fill="url(#paint7_linear_1911_42)"/>
<path fill-rule="evenodd" clip-rule="evenodd" d="M111.727 49.9951L103.184 52.7266L72.6426 61.0992L74.9299 65.1413L85.8136 67.4556L99.3987 69.7837L109.174 66.6754L113.689 53.6394L111.727 49.9951Z" fill="url(#paint8_linear_1911_42)"/>
<path fill-rule="evenodd" clip-rule="evenodd" d="M67.582 54.1534L69.7739 51.4624L72.8493 50.3345L87.0665 42.8591H93.5466L101.2 42.502L104.665 45.0197L110.857 48.7225L111.198 51.6672L109.672 52.1262H104.901L77.7785 53.6401L67.582 54.1534Z" fill="url(#paint9_linear_1911_42)"/>
<path fill-rule="evenodd" clip-rule="evenodd" d="M70.4956 51.7666L67.7651 54.6211L66.7344 51.7666L72.0299 46.8627L78.0543 40.8347L82.031 39.8262L82.2338 42.7067L70.4956 51.7666Z" fill="url(#paint10_linear_1911_42)"/>
<path fill-rule="evenodd" clip-rule="evenodd" d="M63.4215 48.1485L61.272 46.7227L59.5391 47.8041L60.2931 49.7775L70.2319 60.6859L74.8716 62.9092L75.6241 61.5574L75.4646 58.747L68.8312 53.9946L67.5816 52.7269L66.3769 50.7137L63.4215 48.1485Z" fill="url(#paint11_linear_1911_42)"/>
<path fill-rule="evenodd" clip-rule="evenodd" d="M68.3101 63.5352L66.0891 59.4609L60.4278 60.693L48.8915 65.5265C48.8915 65.5265 47.4883 71.3 47.4883 71.3C47.4883 71.3 48.5572 73.8897 48.5572 73.8897L55.942 71.3L68.3101 63.5352Z" fill="url(#paint12_linear_1911_42)"/>
<path fill-rule="evenodd" clip-rule="evenodd" d="M57.5194 51.7348L57.0769 57.9182L51.4421 68.0461L49.42 72.0517H48.5586C48.5586 72.0517 48.5586 60.7082 48.5586 60.7082L51.9971 52.3479L57.0769 50.7139L57.5194 51.7348Z" fill="url(#paint13_linear_1911_42)"/>
<path fill-rule="evenodd" clip-rule="evenodd" d="M72.6416 68.0472L71.5243 73.2474L43.7919 103.251L40.9258 101.991L45.0413 88.2495L52.4816 72.2855L63.4214 66.0566H70.0269L72.6416 68.0472Z" fill="url(#paint14_linear_1911_42)"/>
<path fill-rule="evenodd" clip-rule="evenodd" d="M43.4676 83.477L43.7914 86.4269L41.3309 93.0048L35.1051 103.251H32.1035L34.3485 94.2619L42.174 83.084L43.4676 83.477Z" fill="url(#paint15_linear_1911_42)"/>
<path fill-rule="evenodd" clip-rule="evenodd" d="M43.3113 97.1197V100.592L43.1152 100.754L41.3873 100.937L41.1284 100.326L40.9258 93.518L41.8448 89.1319L43.2234 84.0362L44.1178 83.4775L44.3413 88.5202L43.3113 97.1197Z" fill="url(#paint16_linear_1911_42)"/>
<path fill-rule="evenodd" clip-rule="evenodd" d="M54.9247 100.471L56.0611 103.244L55.4929 104.095L34.6638 103.422L34.1074 102.283L35.8186 100.753L38.6342 99.8838L41.9293 100.595H43.4683L48.8986 100.317L54.9247 100.471Z" fill="white"/>
<path fill-rule="evenodd" clip-rule="evenodd" d="M33.5195 107.229L35.6813 107.675L39.4758 111.262L42.525 123.073L45.0423 127.015L41.8939 130.007L31.3594 112.79L33.5195 107.229Z" fill="url(#paint17_linear_1911_42)"/>
<path fill-rule="evenodd" clip-rule="evenodd" d="M49.9349 107.477L44.4878 109.618L41.8933 118.241L41.8691 123.074L43.2716 127.337L45.0715 126.426L48.2294 113.475C48.2294 113.475 50.836 108.801 50.836 108.671C50.836 108.54 49.9349 107.477 49.9349 107.477Z" fill="url(#paint18_linear_1911_42)"/>
<path fill-rule="evenodd" clip-rule="evenodd" d="M46.9818 109.18L49.7316 107.915L50.2948 107.23L46.0942 106.077L36.1408 106.26L34.0527 107.936L35.6795 109.267L39.474 111.263L43.8274 110.128L46.9818 109.18Z" fill="url(#paint19_linear_1911_42)"/>
<path fill-rule="evenodd" clip-rule="evenodd" d="M57.0339 107.675C57.0339 108.018 58.641 113.156 58.641 113.156L58.7844 150.615L58.369 150.995H56.3027L52.8833 146.328L46.5349 128.334L45.8281 120.263L51.5187 110.276C51.5187 110.276 57.0339 107.331 57.0339 107.675Z" fill="url(#paint20_linear_1911_42)"/>
<path fill-rule="evenodd" clip-rule="evenodd" d="M49.5707 144.908L49.1126 140.703L45.2539 137.847V146.92L49.1126 158.617L52.735 159.141L52.8831 156.843L51.6207 148.838L49.5707 144.908Z" fill="url(#paint21_linear_1911_42)"/>
<path fill-rule="evenodd" clip-rule="evenodd" d="M46.0957 138.937L48.8231 143.617L50.6777 147.08L57.3728 152.04L58.3692 150.996L56.687 149.358L51.5952 142.658L46.6644 138.683L46.0957 138.937Z" fill="url(#paint22_linear_1911_42)"/>
<path fill-rule="evenodd" clip-rule="evenodd" d="M99.4947 176.479L104.392 179.261L107.672 177.326L104.392 172.137L76.2597 147.132L73.4009 145.725L71.9863 147.229L73.4009 159.68L85.2356 172.902L99.4947 176.479Z" fill="url(#paint23_linear_1911_42)"/>
<path fill-rule="evenodd" clip-rule="evenodd" d="M108.164 164.403L105.846 165.561H104.705L74.7831 148.005L73.4023 147.292V144.795L79.3886 141.463L88.4553 138.683L92.0943 140.635L95.638 143.28L98.337 146.324L103.137 156.655L106.93 162.22L108.164 164.403Z" fill="url(#paint24_linear_1911_42)"/>
<path fill-rule="evenodd" clip-rule="evenodd" d="M95.2025 178.097L90.1465 176.677L94.2429 175.795L102.229 176.629L105.606 176.48L106.194 178.791L104.392 179.262L95.2025 178.097Z" fill="url(#paint25_linear_1911_42)"/>
<path fill-rule="evenodd" clip-rule="evenodd" d="M115.162 173.398L114.32 168.173L111.725 167.909L110.537 174.479L110.865 186.113L113.644 187.481L112.975 185.182L114.32 183.554L116.882 178.999L115.162 173.398Z" fill="url(#paint26_linear_1911_42)"/>
<path fill-rule="evenodd" clip-rule="evenodd" d="M149.511 165.733L157.915 163.41L159.425 158.179L152.46 157.553L116.001 160.138L112.133 161.155L111.727 164.47L119.605 170.134L128.646 171.254H136.805L149.511 165.733Z" fill="url(#paint27_linear_1911_42)"/>
<path fill-rule="evenodd" clip-rule="evenodd" d="M150.861 150.314L149.905 153.402L147.992 154.428L121.355 156.656L115.163 162.003L113.645 162.466L112.133 158.931L117.612 145.467L121.687 144.315L130.894 143.117C130.894 143.117 141.926 145.724 142.25 145.724C142.575 145.724 150.861 150.314 150.861 150.314Z" fill="url(#paint28_linear_1911_42)"/>
<path fill-rule="evenodd" clip-rule="evenodd" d="M161.076 165.734H164.518L166 165.386L157.448 155.421L150.056 150.625L149.322 151.977L150.056 155.421L156.741 160.138L158.09 163.539L161.076 165.734Z" fill="url(#paint29_linear_1911_42)"/>
<path fill-rule="evenodd" clip-rule="evenodd" d="M150.335 169.071L149.191 171.981C149.191 171.981 145.584 173.656 145.127 173.475C144.669 173.294 143.102 171.981 143.102 171.981L154.45 162.475L156.741 160.137L157.74 161.154L158.089 162.475L150.335 169.071Z" fill="url(#paint30_linear_1911_42)"/>
<path fill-rule="evenodd" clip-rule="evenodd" d="M149.511 169.507L144.932 172.137L144.67 173.108C144.67 173.108 150.67 173.802 150.864 173.802C151.058 173.802 160.9 170.679 161.017 170.679C161.133 170.679 165.652 167.339 165.652 167.13C165.652 166.921 164.518 165.507 164.518 165.507L162.255 165.385L161.12 165.434L154.114 167.388L149.511 169.507Z" fill="white"/>
<path fill-rule="evenodd" clip-rule="evenodd" d="M168.76 158.038L169.364 161.929L167.757 163.155L158.45 154.358L156.613 149.4L159.141 148.57L166.001 154.358L168.76 158.038Z" fill="url(#paint31_linear_1911_42)"/>
<path fill-rule="evenodd" clip-rule="evenodd" d="M172.347 146.958L173.782 140.799L177.457 140.263L174.902 157.524L168.513 161.479L168.285 159.381L168.513 151.913L172.347 146.958Z" fill="url(#paint32_linear_1911_42)"/>
<path fill-rule="evenodd" clip-rule="evenodd" d="M173.503 145.486L175.525 141.48L171.445 142.263L159.541 147.412L157.447 150.623L160.309 151.651L164.749 152.433L168.758 150.312L173.503 145.486Z" fill="#556086"/>
<path fill-rule="evenodd" clip-rule="evenodd" d="M170.078 114.215L169.05 110.483L164.098 111.977L150.166 119.827L146.32 125.534L145.75 132.61L148.022 140.623C148.022 140.623 150.213 144.201 151.621 145.488C153.03 146.776 154.542 146.582 154.542 146.582L157.914 140.623L164.098 122.877L170.078 114.215Z" fill="url(#paint33_linear_1911_42)"/>
<path fill-rule="evenodd" clip-rule="evenodd" d="M181.541 118.05L182.532 114.773L182.398 113.467L180.044 113.834L176.947 118.775L164.518 137.089L153.75 143.749L152.98 145.165C152.98 145.165 154.711 146.581 155.07 146.581C155.429 146.581 159.865 146.581 160.31 146.581C160.755 146.581 172.123 142.366 172.123 142.366C172.123 142.366 175.526 139.708 175.526 139.284C175.526 138.86 181.541 118.05 181.541 118.05Z" fill="url(#paint34_linear_1911_42)"/>
<path fill-rule="evenodd" clip-rule="evenodd" d="M182.532 129.663L184.278 121.032L183.765 111.976L181.625 112.442V116.301L180.914 120.034L180.52 128.607L181.541 130.967L182.532 129.663Z" fill="url(#paint35_linear_1911_42)"/>
<path fill-rule="evenodd" clip-rule="evenodd" d="M191.257 112.707L187.985 115.334L183.026 114.356L180.913 114.357L175.571 114.799H170.9L168.759 113.468L168.311 111.977L171.3 110.483L187.985 111.371L191.257 112.707Z" fill="#556086"/>
<path fill-rule="evenodd" clip-rule="evenodd" d="M189.474 105.673L191.01 107.017V108.537L172.072 107.478L173.469 104.933L178.91 104.416L189.474 105.673Z" fill="#F0F1F5"/>
<path fill-rule="evenodd" clip-rule="evenodd" d="M183.211 90.4585L181.782 86.4629H181.018L174.055 106.943L176.948 105.721L180.661 103.766L183.026 98.6254L183.765 93.2131L183.211 90.4585Z" fill="url(#paint36_linear_1911_42)"/>
<path fill-rule="evenodd" clip-rule="evenodd" d="M166.609 103.951L168.31 106.432L167.46 107.479L159.993 106.432L153.237 101.127L149.369 93.2374L152.531 78.94L157.038 69.5283L159.133 69.9684L160.445 71.3623L166.609 103.951Z" fill="url(#paint37_linear_1911_42)"/>
<path fill-rule="evenodd" clip-rule="evenodd" d="M172.399 54.9149L172.137 60.3953L167.894 61.8395L166.377 63.6094L161.864 69.283L158.391 70.6246L157.039 69.8907L163.119 59.636L172.137 53.459L172.399 54.9149Z" fill="url(#paint38_linear_1911_42)"/>
<path fill-rule="evenodd" clip-rule="evenodd" d="M174.989 68.0562C174.989 68.0562 178.421 71.0974 178.672 71.3607C178.923 71.6241 179.572 75.5053 179.572 75.5053L176.237 74.7895L168.181 64.0803L166.857 62.8635L167.925 61.8398H169.197L174.989 68.0562Z" fill="url(#paint39_linear_1911_42)"/>
<path fill-rule="evenodd" clip-rule="evenodd" d="M158.57 58.3539V63.0174L156.481 64.8752L153.544 58.8951L146.811 43.5824L151.901 43.1357L156.727 50.9432L158.57 58.3539Z" fill="url(#paint40_linear_1911_42)"/>
<path fill-rule="evenodd" clip-rule="evenodd" d="M168.166 50.9453C167.926 50.9453 164.504 50.9453 164.504 50.9453L158.067 59.6376L157.039 62.4994L157.658 63.6111L169.198 52.0177C169.198 52.0177 168.405 50.9453 168.166 50.9453Z" fill="url(#paint41_linear_1911_42)"/>
<path fill-rule="evenodd" clip-rule="evenodd" d="M151.901 46.4429L147.895 44.4208L146.811 42.2334L153.882 42.4905C153.882 42.4905 163.284 47.4376 163.691 47.4376C164.097 47.4376 167.892 51.4329 167.892 51.4329L165.794 51.6613L162.794 51.4329L151.901 46.4429Z" fill="#535E84"/>
<path fill-rule="evenodd" clip-rule="evenodd" d="M116.937 50.946L120.101 50.8361L120.546 36.0913L120.101 28.3902L117.436 28.0352L116.338 32.9733L116.937 50.946Z" fill="url(#paint42_linear_1911_42)"/>
<path fill-rule="evenodd" clip-rule="evenodd" d="M119.354 37.8545V39.1476L120.871 40.2376L136.661 47.9269L144.552 58.2706L150.164 66.1965L151.58 66.9351H152.532V60.8562C152.532 60.8562 150.492 51.4931 147.295 48.3949C144.098 45.2968 134.421 41.0962 134.421 41.0962L122.789 37.8545H119.354Z" fill="url(#paint43_linear_1911_42)"/>
<path fill-rule="evenodd" clip-rule="evenodd" d="M129.435 36.2901H133.329C133.329 36.2901 136.934 37.1303 136.934 37.2821C136.934 37.4338 136.934 39.621 136.934 39.621L122.717 38.3226L119.354 38.4704V36.9313L121.191 36.0898L129.435 36.2901Z" fill="white"/>
<path fill-rule="evenodd" clip-rule="evenodd" d="M119.195 30.8211L116.936 28.3482L119.512 27.4736L127.281 31.2738L135.412 33.4151L139.831 38.4708L135.912 38.226L130.816 36.8959L125.005 35.5066L119.195 30.8211Z" fill="#535E84"/>
<path fill-rule="evenodd" clip-rule="evenodd" d="M150.162 66.1968L151.578 66.9354L152.137 68.3421L146.822 70.906L140.645 74.7894H131.34L126.533 70.4931L121.783 60.4271L117.193 49.9477L118.676 49.5234H122.594L150.162 66.1968Z" fill="white"/>
<path fill-rule="evenodd" clip-rule="evenodd" d="M171.799 57.6927L171.921 55.4297L176.966 57.2768L178.924 69.2548L178.266 74.0168L175.727 69.5266L172.974 64.3321L171.799 57.6927Z" fill="url(#paint44_linear_1911_42)"/>
<path fill-rule="evenodd" clip-rule="evenodd" d="M166.857 62.8652L166.37 63.4189L166.115 64.4024L169.197 81.7281L166.589 104.417L166.987 105.951L167.935 107.122L172.58 104.417L177.784 93.5793L178.028 83.9179L175.838 76.1812L168.181 64.0821L166.857 62.8652Z" fill="url(#paint45_linear_1911_42)"/>
<path fill-rule="evenodd" clip-rule="evenodd" d="M188.749 114.214L190.592 112.706H191.953L186.263 128.91L181.781 129.359L183.101 124.402L185.271 118.423L188.749 114.214Z" fill="url(#paint46_linear_1911_42)"/>
<path fill-rule="evenodd" clip-rule="evenodd" d="M128.071 177.373L132.333 175.97L134.472 174.975L127.036 172.635L113.644 167.909L112.826 169.471L114.088 172.138L116.764 175.214L121.304 177.897L128.071 177.373Z" fill="url(#paint47_linear_1911_42)"/>
<path fill-rule="evenodd" clip-rule="evenodd" d="M107.297 185.136L105.785 183.427L105.322 179.287L105.607 178.016V176.477L104.703 168.398L106.194 164.623L107.672 164.195L109.153 164.401V181.214L107.297 185.136Z" fill="url(#paint48_linear_1911_42)"/>
<path fill-rule="evenodd" clip-rule="evenodd" d="M68.6732 150.995L66.3716 158.038L58.7611 163.017L56.6875 163.226V159.924L66.3716 150.995H68.6732Z" fill="url(#paint49_linear_1911_42)"/>
<path fill-rule="evenodd" clip-rule="evenodd" d="M67.8496 151.796L66.7754 154.705L66.3711 155.559L67.8496 164.693L72.7212 168.121C72.7212 168.121 73.3526 168.599 77.0507 170.529C80.7488 172.46 74.7826 165.561 74.7826 165.561L69.7781 152.487L67.8496 151.796Z" fill="#5C668B"/>
<path fill-rule="evenodd" clip-rule="evenodd" d="M67.9837 144.291L66.642 143.548L62.3767 130.925L57.1239 110.277L56.6657 108.751L56.3027 108.02L59.3555 108.126L65.5728 108.02L72.8084 112.985L74.7825 119.619L73.4017 132.693L69.7931 142.881L67.9837 144.291Z" fill="url(#paint50_linear_1911_42)"/>
<path fill-rule="evenodd" clip-rule="evenodd" d="M71.9291 68.3772L71.1941 69.7832L70.6524 73.9856L54.9493 100.029L54.5215 101.27L54.9458 102.753L57.4541 104.094L66.6335 97.5563L76.2115 92.6414L78.1027 89.4357L80.3905 82.3174L79.411 75.3847L75.5571 70.4173L72.5205 67.4551L71.9291 68.3772Z" fill="url(#paint51_linear_1911_42)"/>
<path fill-rule="evenodd" clip-rule="evenodd" d="M56.4316 52.0554L56.66 54.1531L56.9972 56.2657L63.3053 61.386L64.6346 61.8816L67.4963 62.9094L67.9889 61.386C67.9889 61.386 62.6818 53.2409 62.5289 53.2409C62.376 53.2409 56.4316 50.7139 56.4316 50.7139V52.0554Z" fill="url(#paint52_linear_1911_42)"/>
<path fill-rule="evenodd" clip-rule="evenodd" d="M76.3312 43.8243L81.0113 41.0967L81.7555 39.2393L71.4552 40.6563L61.9414 42.6752L58.9453 45.5248L60.4284 48.0263L62.6914 48.1486L67.9892 47.0188L76.3312 43.8243Z" fill="url(#paint53_linear_1911_42)"/>
</g>
<path fill-rule="evenodd" clip-rule="evenodd" d="M116.445 15.2272L115.67 8.70898L111.46 13.7454C100.341 27.0471 86.7429 35.0258 70.5668 37.7605C64.8135 38.7332 59.97 40.9088 56.0349 44.2552C54.2701 42.782 52.42 41.2836 50.4847 39.7597L45.3274 35.6989L45.9119 42.2369C47.4558 59.5045 43.482 74.762 33.9775 88.1339C30.6699 92.7873 28.7926 97.6392 28.3238 102.669C25.7269 102.891 23.0275 103.169 20.2252 103.502L13.707 104.278L18.7435 108.487C32.0452 119.606 40.0239 133.204 42.7586 149.38C43.7023 154.963 45.7786 159.688 48.9582 163.558C47.5801 165.216 46.1801 166.948 44.7578 168.754L40.6969 173.912L47.235 173.327C53.4509 172.771 61.6262 173.248 65.1058 173.806C68.5854 174.365 70.9785 174.917 74.0368 175.824C80.7974 177.828 87.1482 181.009 93.132 185.262C97.8045 188.583 102.677 190.462 107.729 190.921C107.94 193.298 108.197 195.76 108.5 198.306L109.276 204.824L113.485 199.788C124.604 186.486 138.202 178.507 154.378 175.773C160.132 174.8 164.975 172.624 168.91 169.278C170.675 170.751 172.525 172.249 174.461 173.773L179.618 177.834L179.033 171.296L178.983 170.708C177.58 153.682 181.571 138.619 190.968 125.399C193.96 121.189 195.782 116.816 196.449 112.295C199.099 112.07 201.856 111.787 204.72 111.447L211.238 110.672L206.202 106.462C192.9 95.3434 184.921 81.7448 182.187 65.5687C181.214 59.8155 179.038 54.9719 175.692 51.0368C177.165 49.272 178.664 47.422 180.187 45.4866L184.248 40.3293L177.71 40.9139C160.443 42.4577 145.185 38.4839 131.813 28.9794C127.16 25.672 122.308 23.7947 117.278 23.3257C117.056 20.7288 116.778 18.0294 116.445 15.2272ZM112.841 169.887L112.867 169.47C118.656 174.295 125.168 176.484 132.333 175.968C125.455 181.428 119.021 184.478 112.975 185.181C112.622 179.473 112.579 174.373 112.841 169.887ZM81.8974 142.539C79.2836 143.498 76.4491 145.082 73.4007 147.291C72.8799 158.893 78.1544 166.731 89.2211 171.28L102.229 176.627L90.2809 176.715C92.3652 177.911 94.4094 179.221 96.4131 180.645C99.8936 183.119 103.516 184.622 107.297 185.137C106.813 177.059 106.934 170.083 107.672 164.197C104.795 160.712 102.134 156.466 99.7007 151.469C95.2973 142.428 89.6588 139.691 81.8974 142.539ZM113.644 162.465C114.236 158.928 115.098 155.94 116.225 153.508C119.699 146.006 125.621 143.954 135.128 147.234C140.495 149.085 145.476 150.215 150.055 150.624C153.705 155.255 158.525 160.21 164.517 165.507C161.437 167.908 157.742 169.46 153.433 170.188C150.524 170.68 147.69 171.33 144.931 172.136L154.45 162.476L141.471 167.893C130.58 172.439 121.411 170.738 113.644 162.465ZM67.8484 151.795L67.7434 151.889C64.2851 154.982 60.5965 158.761 56.6858 163.226C59.2855 165.321 62.4701 166.996 66.2533 168.253C69.226 169.24 71.986 169.887 75.3951 170.318C75.5866 170.342 75.7789 170.367 75.9722 170.393C76.3278 170.439 76.6866 170.487 77.0494 170.528C71.5284 165.748 68.4615 159.47 67.8484 151.795ZM157.448 150.623C164.825 149.891 170.883 146.843 175.526 141.48C174.537 150.08 172.199 156.718 168.513 161.477C164.16 157.64 160.471 154.019 157.448 150.623ZM56.6648 108.751L56.4396 108.965C48.456 116.664 46.8618 125.731 51.3459 136.474L56.7636 149.453L46.7449 139.582C46.5263 139.367 46.3095 139.152 46.0947 138.937C47.0424 142.008 47.7918 145.175 48.3431 148.437C49.0417 152.569 50.4982 156.137 52.7344 159.139C58.1701 152.963 63.2463 148.014 67.9829 144.291C68.444 139.925 69.5492 135.2 71.2979 130.131C74.5777 120.624 72.5256 114.702 65.0238 111.228C62.7294 110.165 59.9419 109.338 56.6648 108.751ZM113.86 62.4056C114.563 60.8875 115.174 59.2118 115.694 57.3773C117.241 59.6975 118.726 62.3208 120.152 65.2507C125.761 76.7666 134.339 80.9296 144.999 77.0184C146.836 76.3442 148.738 75.4287 150.704 74.2711C150.157 76.9991 149.353 79.8974 148.293 82.9705C144.116 95.0792 147.238 104.089 157.541 108.861C158.637 109.368 159.815 109.828 161.076 110.24C159.14 111.443 157.014 112.608 154.696 113.737C143.18 119.346 139.017 127.924 142.928 138.584C143.603 140.421 144.518 142.322 145.676 144.289C142.948 143.742 140.049 142.938 136.976 141.878C124.868 137.701 115.858 140.823 111.086 151.126C110.32 152.781 109.662 154.623 109.113 156.654C107.617 154.385 106.178 151.832 104.793 148.989C99.1851 137.473 90.607 133.31 79.947 137.221C78.162 137.876 76.3171 138.759 74.4099 139.87C74.9488 137.379 75.6964 134.749 76.6527 131.977C80.83 119.869 77.708 110.859 67.4047 106.087C65.8865 105.384 64.2109 104.773 62.3764 104.252C64.6965 102.706 67.3199 101.221 70.2497 99.7944C81.7656 94.1861 85.9286 85.6079 82.0174 74.948C81.3433 73.1106 80.4279 71.2096 79.2701 69.2427C81.9981 69.7899 84.8964 70.5935 87.9695 71.6537C100.078 75.831 109.088 72.709 113.86 62.4056ZM168.496 111.975L168.368 112.074C165.194 114.489 161.46 116.743 157.175 118.829C148.134 123.233 145.397 128.871 148.245 136.633C149.207 139.254 150.796 142.096 153.015 145.154C164.219 145.426 171.825 140.143 176.278 129.309L181.624 116.301L181.722 129.496C183.101 126.978 184.644 124.519 186.351 122.117C188.502 119.091 189.919 115.957 190.591 112.705C181.94 113.176 174.581 112.938 168.496 111.975ZM34.0534 107.936L34.1437 107.931C39.9946 107.595 45.1931 107.592 49.7323 107.915C44.9337 113.693 42.757 120.189 43.2711 127.336C37.7985 120.442 34.7469 113.994 34.0534 107.936ZM181.674 86.1962C182.227 93.8949 179.659 100.839 174.054 106.943C178.914 107.359 184.569 107.383 191.009 107.005C190.659 100.54 187.573 93.6275 181.674 86.1962ZM171.819 55.5447L171.921 55.4292C174.322 58.5093 175.874 62.2041 176.602 66.512C177.035 69.0717 177.59 71.5733 178.266 74.0163L178.2 73.9504L168.182 64.0797L173.599 77.0587L173.788 77.518C178.297 88.7063 176.149 98.0658 166.988 105.949C164.264 105.384 161.908 104.641 159.922 103.721C152.42 100.246 150.368 94.3245 153.647 84.8174C155.499 79.4503 156.629 74.469 157.038 69.8904C161.639 66.2637 166.56 61.4819 171.819 55.5447ZM48.6662 84.2227L43.3195 97.2311L43.2225 84.0348C41.8436 86.5526 40.3005 89.0127 38.5932 91.4147C36.1283 94.8826 34.627 98.4918 34.1064 102.257C42.1627 101.807 49.1044 101.968 54.9459 102.753C58.448 99.8451 62.7263 97.1579 67.7686 94.7023C76.8102 90.2989 79.5466 84.6605 76.6989 76.899C75.7373 74.2782 74.1474 71.4354 71.9292 68.3776C60.7248 68.1057 53.1192 73.3885 48.6662 84.2227ZM117.706 29.4114L117.69 29.1094C121.455 29.6302 125.064 31.1315 128.532 33.5962C130.934 35.3035 133.394 36.8466 135.912 38.2254L122.716 38.3225L135.724 43.6691C146.558 48.1222 151.841 55.7278 151.569 66.9324C148.511 69.1504 145.668 70.7403 143.048 71.7019C135.286 74.5496 129.648 71.8132 125.244 62.7715C122.789 57.7289 120.101 53.4504 117.194 49.9481C117.969 44.1797 118.136 37.3384 117.706 29.4114ZM56.432 52.0548C52.7462 56.8144 50.4076 63.4527 49.4192 72.051C54.0623 66.6881 60.1195 63.6408 67.4967 62.9087C64.4741 59.512 60.7855 55.8911 56.432 52.0548ZM80.7642 41.1737L81.0101 41.0977C80.7951 41.3126 80.5798 41.5293 80.3644 41.748L70.4937 51.7666L83.4726 46.349C94.3153 41.8231 103.451 43.4893 111.196 51.6679C110.608 54.9449 109.782 57.7325 108.719 60.0268C105.244 67.5286 99.3225 69.5807 89.8154 66.3009C84.4483 64.4494 79.467 63.3192 74.8884 62.9109C71.2384 58.2798 66.4182 53.3245 60.4272 48.0272C63.5073 45.6266 67.2021 44.0745 71.51 43.3462C74.6844 42.8095 77.7693 42.0852 80.7642 41.1737ZM147.895 44.4202C153.258 49.0633 156.305 55.1205 157.038 62.4977C160.435 59.4749 164.056 55.7861 167.892 51.4323C163.134 47.7478 156.495 45.4088 147.895 44.4202ZM111.707 29.0915L112.011 29.0554C112.352 34.9425 112.357 40.1707 112.032 44.7336C106.254 39.935 99.7579 37.7583 92.6111 38.2724C99.39 32.8914 105.738 29.8511 111.707 29.0915Z" fill="url(#paint54_linear_1911_42)"/>
<mask id="mask2_1911_42" style="mask-type:luminance" maskUnits="userSpaceOnUse" x="13" y="8" width="199" height="197">
<path fill-rule="evenodd" clip-rule="evenodd" d="M116.445 15.2272L115.67 8.70898L111.46 13.7454C100.341 27.0471 86.7429 35.0258 70.5668 37.7605C64.8135 38.7332 59.97 40.9088 56.0349 44.2552C54.2701 42.782 52.42 41.2836 50.4847 39.7597L45.3274 35.6989L45.9119 42.2369C47.4558 59.5045 43.482 74.762 33.9775 88.1339C30.6699 92.7873 28.7926 97.6392 28.3238 102.669C25.7269 102.891 23.0275 103.169 20.2252 103.502L13.707 104.278L18.7435 108.487C32.0452 119.606 40.0239 133.204 42.7586 149.38C43.7023 154.963 45.7786 159.688 48.9582 163.558C47.5801 165.216 46.1801 166.948 44.7578 168.754L40.6969 173.912L47.235 173.327C53.4509 172.771 61.6262 173.248 65.1058 173.806C68.5854 174.365 70.9785 174.917 74.0368 175.824C80.7974 177.828 87.1482 181.009 93.132 185.262C97.8045 188.583 102.677 190.462 107.729 190.921C107.94 193.298 108.197 195.76 108.5 198.306L109.276 204.824L113.485 199.788C124.604 186.486 138.202 178.507 154.378 175.773C160.132 174.8 164.975 172.624 168.91 169.278C170.675 170.751 172.525 172.249 174.461 173.773L179.618 177.834L179.033 171.296L178.983 170.708C177.58 153.682 181.571 138.619 190.968 125.399C193.96 121.189 195.782 116.816 196.449 112.295C199.099 112.07 201.856 111.787 204.72 111.447L211.238 110.672L206.202 106.462C192.9 95.3434 184.921 81.7448 182.187 65.5687C181.214 59.8155 179.038 54.9719 175.692 51.0368C177.165 49.272 178.664 47.422 180.187 45.4866L184.248 40.3293L177.71 40.9139C160.443 42.4577 145.185 38.4839 131.813 28.9794C127.16 25.672 122.308 23.7947 117.278 23.3257C117.056 20.7288 116.778 18.0294 116.445 15.2272ZM112.841 169.887L112.867 169.47C118.656 174.295 125.168 176.484 132.333 175.968C125.455 181.428 119.021 184.478 112.975 185.181C112.622 179.473 112.579 174.373 112.841 169.887ZM81.8974 142.539C79.2836 143.498 76.4491 145.082 73.4007 147.291C72.8799 158.893 78.1544 166.731 89.2211 171.28L102.229 176.627L90.2809 176.715C92.3652 177.911 94.4094 179.221 96.4131 180.645C99.8936 183.119 103.516 184.622 107.297 185.137C106.813 177.059 106.934 170.083 107.672 164.197C104.795 160.712 102.134 156.466 99.7007 151.469C95.2973 142.428 89.6588 139.691 81.8974 142.539ZM113.644 162.465C114.236 158.928 115.098 155.94 116.225 153.508C119.699 146.006 125.621 143.954 135.128 147.234C140.495 149.085 145.476 150.215 150.055 150.624C153.705 155.255 158.525 160.21 164.517 165.507C161.437 167.908 157.742 169.46 153.433 170.188C150.524 170.68 147.69 171.33 144.931 172.136L154.45 162.476L141.471 167.893C130.58 172.439 121.411 170.738 113.644 162.465ZM67.8484 151.795L67.7434 151.889C64.2851 154.982 60.5965 158.761 56.6858 163.226C59.2855 165.321 62.4701 166.996 66.2533 168.253C69.226 169.24 71.986 169.887 75.3951 170.318C75.5866 170.342 75.7789 170.367 75.9722 170.393C76.3278 170.439 76.6866 170.487 77.0494 170.528C71.5284 165.748 68.4615 159.47 67.8484 151.795ZM157.448 150.623C164.825 149.891 170.883 146.843 175.526 141.48C174.537 150.08 172.199 156.718 168.513 161.477C164.16 157.64 160.471 154.019 157.448 150.623ZM56.6648 108.751L56.4396 108.965C48.456 116.664 46.8618 125.731 51.3459 136.474L56.7636 149.453L46.7449 139.582C46.5263 139.367 46.3095 139.152 46.0947 138.937C47.0424 142.008 47.7918 145.175 48.3431 148.437C49.0417 152.569 50.4982 156.137 52.7344 159.139C58.1701 152.963 63.2463 148.014 67.9829 144.291C68.444 139.925 69.5492 135.2 71.2979 130.131C74.5777 120.624 72.5256 114.702 65.0238 111.228C62.7294 110.165 59.9419 109.338 56.6648 108.751ZM113.86 62.4056C114.563 60.8875 115.174 59.2118 115.694 57.3773C117.241 59.6975 118.726 62.3208 120.152 65.2507C125.761 76.7666 134.339 80.9296 144.999 77.0184C146.836 76.3442 148.738 75.4287 150.704 74.2711C150.157 76.9991 149.353 79.8974 148.293 82.9705C144.116 95.0792 147.238 104.089 157.541 108.861C158.637 109.368 159.815 109.828 161.076 110.24C159.14 111.443 157.014 112.608 154.696 113.737C143.18 119.346 139.017 127.924 142.928 138.584C143.603 140.421 144.518 142.322 145.676 144.289C142.948 143.742 140.049 142.938 136.976 141.878C124.868 137.701 115.858 140.823 111.086 151.126C110.32 152.781 109.662 154.623 109.113 156.654C107.617 154.385 106.178 151.832 104.793 148.989C99.1851 137.473 90.607 133.31 79.947 137.221C78.162 137.876 76.3171 138.759 74.4099 139.87C74.9488 137.379 75.6964 134.749 76.6527 131.977C80.83 119.869 77.708 110.859 67.4047 106.087C65.8865 105.384 64.2109 104.773 62.3764 104.252C64.6965 102.706 67.3199 101.221 70.2497 99.7944C81.7656 94.1861 85.9286 85.6079 82.0174 74.948C81.3433 73.1106 80.4279 71.2096 79.2701 69.2427C81.9981 69.7899 84.8964 70.5935 87.9695 71.6537C100.078 75.831 109.088 72.709 113.86 62.4056ZM168.496 111.975L168.368 112.074C165.194 114.489 161.46 116.743 157.175 118.829C148.134 123.233 145.397 128.871 148.245 136.633C149.207 139.254 150.796 142.096 153.015 145.154C164.219 145.426 171.825 140.143 176.278 129.309L181.624 116.301L181.722 129.496C183.101 126.978 184.644 124.519 186.351 122.117C188.502 119.091 189.919 115.957 190.591 112.705C181.94 113.176 174.581 112.938 168.496 111.975ZM34.0534 107.936L34.1437 107.931C39.9946 107.595 45.1931 107.592 49.7323 107.915C44.9337 113.693 42.757 120.189 43.2711 127.336C37.7985 120.442 34.7469 113.994 34.0534 107.936ZM181.674 86.1962C182.227 93.8949 179.659 100.839 174.054 106.943C178.914 107.359 184.569 107.383 191.009 107.005C190.659 100.54 187.573 93.6275 181.674 86.1962ZM171.819 55.5447L171.921 55.4292C174.322 58.5093 175.874 62.2041 176.602 66.512C177.035 69.0717 177.59 71.5733 178.266 74.0163L178.2 73.9504L168.182 64.0797L173.599 77.0587L173.788 77.518C178.297 88.7063 176.149 98.0658 166.988 105.949C164.264 105.384 161.908 104.641 159.922 103.721C152.42 100.246 150.368 94.3245 153.647 84.8174C155.499 79.4503 156.629 74.469 157.038 69.8904C161.639 66.2637 166.56 61.4819 171.819 55.5447ZM48.6662 84.2227L43.3195 97.2311L43.2225 84.0348C41.8436 86.5526 40.3005 89.0127 38.5932 91.4147C36.1283 94.8826 34.627 98.4918 34.1064 102.257C42.1627 101.807 49.1044 101.968 54.9459 102.753C58.448 99.8451 62.7263 97.1579 67.7686 94.7023C76.8102 90.2989 79.5466 84.6605 76.6989 76.899C75.7373 74.2782 74.1474 71.4354 71.9292 68.3776C60.7248 68.1057 53.1192 73.3885 48.6662 84.2227ZM117.706 29.4114L117.69 29.1094C121.455 29.6302 125.064 31.1315 128.532 33.5962C130.934 35.3035 133.394 36.8466 135.912 38.2254L122.716 38.3225L135.724 43.6691C146.558 48.1222 151.841 55.7278 151.569 66.9324C148.511 69.1504 145.668 70.7403 143.048 71.7019C135.286 74.5496 129.648 71.8132 125.244 62.7715C122.789 57.7289 120.101 53.4504 117.194 49.9481C117.969 44.1797 118.136 37.3384 117.706 29.4114ZM56.432 52.0548C52.7462 56.8144 50.4076 63.4527 49.4192 72.051C54.0623 66.6881 60.1195 63.6408 67.4967 62.9087C64.4741 59.512 60.7855 55.8911 56.432 52.0548ZM80.7642 41.1737L81.0101 41.0977C80.7951 41.3126 80.5798 41.5293 80.3644 41.748L70.4937 51.7666L83.4726 46.349C94.3153 41.8231 103.451 43.4893 111.196 51.6679C110.608 54.9449 109.782 57.7325 108.719 60.0268C105.244 67.5286 99.3225 69.5807 89.8154 66.3009C84.4483 64.4494 79.467 63.3192 74.8884 62.9109C71.2384 58.2798 66.4182 53.3245 60.4272 48.0272C63.5073 45.6266 67.2021 44.0745 71.51 43.3462C74.6844 42.8095 77.7693 42.0852 80.7642 41.1737ZM147.895 44.4202C153.258 49.0633 156.305 55.1205 157.038 62.4977C160.435 59.4749 164.056 55.7861 167.892 51.4323C163.134 47.7478 156.495 45.4088 147.895 44.4202ZM111.707 29.0915L112.011 29.0554C112.352 34.9425 112.357 40.1707 112.032 44.7336C106.254 39.935 99.7579 37.7583 92.6111 38.2724C99.39 32.8914 105.738 29.8511 111.707 29.0915Z" fill="white"/>
</mask>
<g mask="url(#mask2_1911_42)">
<g filter="url(#filter2_f_1911_42)">
<path fill-rule="evenodd" clip-rule="evenodd" d="M18.2969 161.851C34.6953 149.504 49.9172 145.981 63.9627 151.282C78.0082 156.584 93.2302 160.107 109.629 161.851C91.0802 188.392 75.8583 194.03 63.9627 178.764C52.0672 163.498 36.8453 157.861 18.2969 161.851ZM201.314 161.85C182.766 157.86 167.544 163.497 155.648 178.763C143.753 194.029 128.531 188.391 109.982 161.85C126.381 160.106 141.603 156.583 155.648 151.281C169.694 145.98 184.916 149.503 201.314 161.85Z" fill="#626F8F"/>
</g>
<g filter="url(#filter3_f_1911_42)">
<path fill-rule="evenodd" clip-rule="evenodd" d="M112.827 163.051C141.763 163.051 165.219 139.595 165.219 110.659C165.219 81.7242 141.763 58.2676 112.827 58.2676C83.8922 58.2676 60.4355 81.7242 60.4355 110.659C60.4355 139.595 83.8922 163.051 112.827 163.051Z" fill="#556086"/>
</g>
</g>
<path fill-rule="evenodd" clip-rule="evenodd" d="M112.827 159.512C141.763 159.512 165.219 136.056 165.219 107.12C165.219 78.1851 141.763 54.7285 112.827 54.7285C83.8922 54.7285 60.4355 78.1851 60.4355 107.12C60.4355 136.056 83.8922 159.512 112.827 159.512Z" fill="url(#paint55_linear_1911_42)"/>
<path fill-rule="evenodd" clip-rule="evenodd" d="M112.827 158.096C140.981 158.096 163.803 135.274 163.803 107.12C163.803 78.9672 140.981 56.1445 112.827 56.1445C84.6742 56.1445 61.8516 78.9672 61.8516 107.12C61.8516 135.274 84.6742 158.096 112.827 158.096Z" fill="url(#paint56_linear_1911_42)"/>
<path fill-rule="evenodd" clip-rule="evenodd" d="M112.827 152.431C137.853 152.431 158.139 132.145 158.139 107.119C158.139 82.0944 137.853 61.8076 112.827 61.8076C87.8024 61.8076 67.5156 82.0944 67.5156 107.119C67.5156 132.145 87.8024 152.431 112.827 152.431Z" fill="url(#paint57_linear_1911_42)"/>
<path fill-rule="evenodd" clip-rule="evenodd" d="M75.7345 103.058L75.7972 102.232L73.9837 103.092C73.8499 102.577 73.4929 102.217 72.8562 102.169C71.9266 102.099 71.5703 102.743 71.5046 103.608L71.3984 105.006L75.5627 105.321L75.6187 104.584L73.9886 104.46L74.0364 103.831L75.7345 103.058ZM150.769 105.522L151.897 105.19L151.889 103.794L150.757 103.475L150.753 102.717L154.937 104.058L154.942 104.925L150.773 106.305L150.769 105.522ZM152.471 103.956L152.477 105.021L152.987 104.871C153.427 104.741 153.905 104.611 154.365 104.487L154.364 104.462C153.898 104.35 153.424 104.231 152.983 104.1L152.471 103.956ZM154.673 111.133C154.827 110.073 154.148 109.111 152.795 108.915C151.424 108.716 150.545 109.432 150.393 110.479C150.317 111.003 150.469 111.463 150.806 111.853L151.313 111.514C151.088 111.243 150.976 110.95 151.029 110.584C151.129 109.897 151.763 109.532 152.705 109.668C153.634 109.803 154.132 110.371 154.033 111.046C153.988 111.362 153.821 111.576 153.581 111.76L153.977 112.23C154.293 112.011 154.599 111.637 154.673 111.133ZM151.237 115.674L150.927 116.692L151.458 116.701C151.917 116.707 152.412 116.724 152.887 116.742L152.895 116.718C152.482 116.473 152.066 116.219 151.683 115.963L151.237 115.674ZM150.322 116.682L149.146 116.665L148.917 117.415L153.308 117.331L153.561 116.501L149.965 113.982L149.743 114.707L150.73 115.347L150.322 116.682ZM148.081 119.872L151.837 121.694L151.351 122.691C150.793 123.838 149.841 124.219 148.6 123.618C147.354 123.013 147.037 122.016 147.578 120.904L148.081 119.872ZM148.158 121.086L148.297 120.799L150.974 122.097L150.834 122.384C150.466 123.141 149.851 123.382 148.933 122.936C148.008 122.487 147.789 121.843 148.158 121.086ZM145.959 125.357L146.128 125.995C145.726 126.08 145.339 126.301 145.117 126.62C144.85 127.002 144.874 127.336 145.141 127.522C145.421 127.717 145.662 127.564 146.007 127.344L146.016 127.338L146.545 127.015C146.924 126.773 147.436 126.608 147.939 126.958C148.484 127.337 148.567 128.109 148.104 128.774C147.823 129.177 147.385 129.447 146.932 129.528L146.763 128.945C147.096 128.858 147.37 128.699 147.575 128.406C147.801 128.082 147.795 127.767 147.543 127.592C147.283 127.411 147.008 127.589 146.706 127.785L146.682 127.801L146.167 128.126C145.709 128.414 145.255 128.518 144.757 128.172C144.202 127.786 144.062 127.005 144.598 126.236C144.919 125.776 145.413 125.459 145.959 125.357ZM143.787 131.089C142.812 130.152 141.691 130.12 140.934 130.905C140.182 131.686 140.258 132.803 141.233 133.739C142.204 134.672 143.302 134.682 144.054 133.901C144.811 133.116 144.759 132.021 143.787 131.089ZM141.398 131.352C140.946 131.82 141.082 132.543 141.759 133.193C142.431 133.838 143.137 133.923 143.588 133.455C144.044 132.982 143.931 132.281 143.26 131.636C142.583 130.986 141.854 130.878 141.398 131.352ZM138.827 138.737C139.684 138.093 139.88 136.932 139.059 135.843C138.225 134.737 137.096 134.628 136.249 135.265C135.826 135.583 135.609 136.017 135.573 136.53L136.172 136.647C136.204 136.296 136.331 136.009 136.627 135.787C137.183 135.369 137.891 135.555 138.463 136.314C139.027 137.063 138.98 137.816 138.434 138.226C138.179 138.418 137.91 138.453 137.61 138.415L137.56 139.027C137.938 139.094 138.419 139.043 138.827 138.737ZM130.006 139.374L131.657 143.203L129.34 144.198L129.093 143.625L130.729 142.922L130.262 141.839L128.872 142.436L128.625 141.862L130.015 141.265L129.326 139.666L130.006 139.374ZM125.881 143.357C125.545 142.048 124.609 141.432 123.551 141.703C122.499 141.972 121.976 142.962 122.312 144.271C122.646 145.573 123.574 146.158 124.626 145.889C125.684 145.619 126.215 144.66 125.881 143.357ZM123.711 142.327C123.08 142.488 122.815 143.175 123.048 144.083C123.279 144.984 123.835 145.428 124.466 145.266C125.103 145.103 125.376 144.448 125.145 143.546C124.912 142.638 124.348 142.164 123.711 142.327ZM118.395 145.15L118.515 146.502L117.929 146.554C117.357 146.604 117.037 146.466 116.995 145.99C116.953 145.52 117.237 145.252 117.81 145.202L118.395 145.15ZM115.846 143.148L116.673 143.075L117.714 144.621L118.344 144.566L118.2 142.94L118.938 142.875L119.305 147.028L117.905 147.151C117.04 147.227 116.345 146.981 116.263 146.054C116.207 145.419 116.504 145.009 116.992 144.794L115.846 143.148ZM112.795 147.475L113.056 143.315L110.487 143.154L110.448 143.777L112.277 143.892L112.2 145.12L110.703 145.026L110.663 145.649L112.161 145.743L112.094 146.806L110.329 146.695L110.29 147.318L112.795 147.475ZM107.563 142.905L106.786 147.001L106.058 146.863L106.835 142.767L107.563 142.905ZM100.743 145.591C101.81 145.943 102.89 145.447 103.319 144.152C103.755 142.839 103.195 141.849 102.14 141.5C101.601 141.322 101.062 141.385 100.705 141.549L100.127 143.292L101.503 143.747L101.694 143.172L100.948 142.926L101.231 142.072C101.396 142 101.635 142.011 101.853 142.083C102.647 142.346 102.891 143.03 102.592 143.932C102.297 144.822 101.643 145.21 100.94 144.978C100.57 144.855 100.396 144.65 100.26 144.39L99.7279 144.698C99.8922 145.034 100.192 145.409 100.743 145.591ZM98.0145 140.126L96.0682 143.814L95.3959 143.461L95.3441 140.782L95.3736 139.797L95.351 139.785L95.3129 139.876L95.2705 139.979C95.1232 140.334 94.9551 140.74 94.7721 141.087L93.9269 142.688L93.3055 142.362L95.2518 138.674L95.9241 139.027L95.9758 141.705L95.9463 142.691L95.9689 142.703C96.0027 142.623 96.037 142.54 96.0719 142.456L96.0719 142.456C96.2143 142.112 96.3674 141.743 96.5419 141.412L97.393 139.799L98.0145 140.126ZM86.7493 137.209L89.1254 134.576L88.575 134.081L86.1989 136.714L85.3069 135.912L84.8881 136.376L87.2273 138.479L87.6461 138.015L86.7493 137.209ZM85.67 131.367L82.4558 134.029L80.8535 132.101L81.3352 131.702L82.4645 133.061L83.2853 132.381L82.3272 131.228L82.8088 130.83L83.7669 131.982L84.7155 131.197L83.5454 129.789L84.0271 129.39L85.67 131.367ZM79.8362 126.463L80.3886 127.373L79.8755 127.512C79.4292 127.625 78.9621 127.766 78.5038 127.909L78.4906 127.887C78.821 127.546 79.1646 127.189 79.4753 126.852L79.8362 126.463ZM81.0458 125.16L80.2477 126.023L80.9721 127.217L82.1076 126.91L82.5012 127.559L78.2211 128.552L77.7712 127.81L80.639 124.49L81.0458 125.16ZM74.8127 122.34C75.2234 123.329 76.3002 123.808 77.5626 123.286C78.8427 122.756 79.2303 121.692 78.8244 120.714C78.6215 120.226 78.2547 119.908 77.7652 119.745L77.5029 120.295C77.8352 120.413 78.0819 120.608 78.2237 120.949C78.4902 121.591 78.1329 122.229 77.254 122.592C76.3868 122.951 75.6676 122.717 75.406 122.087C75.2838 121.793 75.3172 121.524 75.4287 121.243L74.8475 121.042C74.6882 121.391 74.6171 121.869 74.8127 122.34ZM77.2669 116.946L73.2024 117.904L73.0322 117.185L74.6667 116.799L74.2793 115.162L72.6449 115.547L72.4746 114.827L76.5391 113.869L76.7093 114.589L74.907 115.014L75.2944 116.652L77.0967 116.227L77.2669 116.946ZM71.734 111.114L75.8984 110.801L75.7048 108.239L75.0808 108.286L75.2186 110.11L73.9897 110.203L73.8768 108.709L73.2528 108.756L73.3657 110.25L72.3023 110.33L72.1693 108.569L71.5453 108.616L71.734 111.114ZM72.0463 104.312L73.4026 104.415L73.447 103.83C73.4904 103.258 73.2716 102.934 72.8005 102.899C72.3229 102.863 72.1342 103.155 72.0907 103.727L72.0463 104.312Z" fill="url(#paint58_linear_1911_42)"/>
<path fill-rule="evenodd" clip-rule="evenodd" d="M115.419 91.4005C117.699 88.5705 119.146 84.6221 119.758 79.5078C116.855 82.7299 113.059 84.5467 108.43 84.9584C110.285 87.0144 112.575 89.2111 115.301 91.5438L115.419 91.4005ZM95.8221 85.6018C99.4116 89.2957 101.569 92.9055 102.334 96.4584L102.371 96.6399C98.8428 97.2903 95.6941 97.6879 92.9291 97.8354C95.5223 93.9788 96.4993 89.8855 95.8221 85.6018ZM139.495 94.4056C135.164 94.1773 131.364 92.3706 128.13 89.0323C127.7 91.7675 127.434 94.9301 127.337 98.5165L127.522 98.5176C131.156 98.5086 135.136 97.1487 139.495 94.4056ZM140.081 119.231C137.595 115.677 136.679 111.57 137.319 106.967C134.898 108.312 132.243 110.049 129.357 112.181L129.47 112.327C131.714 115.185 135.236 117.484 140.081 119.231ZM106.125 121.311C107.553 124.602 108.648 127.581 109.414 130.242C105.073 128.583 100.865 128.552 96.8431 130.175C99.6349 125.846 102.667 122.932 105.957 121.388L106.125 121.311ZM119.894 122.369C123.366 123.271 126.388 124.241 128.956 125.276C124.976 127.675 122.361 130.972 121.164 135.141C119.472 130.276 119.042 126.093 119.851 122.549L119.894 122.369ZM98.1226 109.747L98.2887 109.829C96.629 113.01 95.0038 115.736 93.4177 118.005C91.9752 113.588 89.3511 110.298 85.5586 108.194C90.6794 107.639 94.8523 108.162 98.1226 109.747Z" fill="url(#paint59_linear_1911_42)"/>
<path fill-rule="evenodd" clip-rule="evenodd" d="M20.6289 153.707C20.6289 153.707 48.4515 147.722 66.2948 170.62C84.138 193.519 111.961 153.707 111.961 153.707C111.961 153.707 87.363 151.091 66.2948 143.138C45.2265 135.186 20.6289 153.707 20.6289 153.707Z" fill="url(#paint60_linear_1911_42)"/>
<mask id="mask3_1911_42" style="mask-type:luminance" maskUnits="userSpaceOnUse" x="20" y="141" width="92" height="37">
<path fill-rule="evenodd" clip-rule="evenodd" d="M20.6289 153.707C20.6289 153.707 48.4515 147.722 66.2948 170.62C84.138 193.519 111.961 153.707 111.961 153.707C111.961 153.707 87.363 151.091 66.2948 143.138C45.2265 135.186 20.6289 153.707 20.6289 153.707Z" fill="white"/>
</mask>
<g mask="url(#mask3_1911_42)">
<path fill-rule="evenodd" clip-rule="evenodd" d="M20.6289 153.708C20.6289 153.708 47.2031 145.312 63.2919 166.572C79.3808 187.833 66.6152 193.145 64.4387 192.571C62.2621 191.997 20.6289 153.708 20.6289 153.708Z" fill="url(#paint61_linear_1911_42)"/>
<path fill-rule="evenodd" clip-rule="evenodd" d="M20.6284 153.708C20.6284 153.708 51.8893 140.248 71.317 153.708C90.7447 167.168 110.538 153.708 110.538 153.708L102.512 130.595C102.512 130.595 29.309 117.458 29.309 117.859C29.309 118.259 7.67773 138.198 7.67773 138.198L20.6284 153.708Z" fill="white"/>
</g>
<path fill-rule="evenodd" clip-rule="evenodd" d="M204.295 153.708C204.295 153.708 176.472 147.723 158.629 170.621C140.786 193.519 112.963 153.708 112.963 153.708C112.963 153.708 137.561 151.091 158.629 143.139C179.697 135.187 204.295 153.708 204.295 153.708Z" fill="url(#paint62_linear_1911_42)"/>
<mask id="mask4_1911_42" style="mask-type:luminance" maskUnits="userSpaceOnUse" x="112" y="141" width="93" height="37">
<path fill-rule="evenodd" clip-rule="evenodd" d="M204.295 153.708C204.295 153.708 176.472 147.723 158.629 170.621C140.786 193.519 112.963 153.708 112.963 153.708C112.963 153.708 137.561 151.091 158.629 143.139C179.697 135.187 204.295 153.708 204.295 153.708Z" fill="white"/>
</mask>
<g mask="url(#mask4_1911_42)">
<path fill-rule="evenodd" clip-rule="evenodd" d="M204.295 153.709C204.295 153.709 177.721 145.313 161.632 166.573C145.543 187.834 158.309 193.146 160.485 192.572C162.662 191.998 204.295 153.709 204.295 153.709Z" fill="url(#paint63_linear_1911_42)"/>
<path fill-rule="evenodd" clip-rule="evenodd" d="M204.295 153.709C204.295 153.709 173.035 140.249 153.607 153.709C134.179 167.169 114.386 153.709 114.386 153.709L122.412 130.596C122.412 130.596 195.615 117.459 195.615 117.859C195.615 118.26 217.246 138.199 217.246 138.199L204.295 153.709Z" fill="white"/>
</g>
<path d="M113.717 143.547C113.732 143.513 113.748 143.479 113.763 143.445C113.926 143.739 114.086 144.048 114.245 144.371C115.094 146.105 116.209 147.37 117.598 148.028C119.002 148.693 120.583 148.69 122.252 148.081C122.363 148.041 122.474 147.998 122.586 147.952C122.496 148.255 122.396 148.564 122.286 148.882C121.653 150.705 121.542 152.385 122.057 153.83C122.543 155.195 123.556 156.254 125.004 156.993C124.835 157.081 124.661 157.168 124.483 157.254C122.741 158.097 121.468 159.206 120.805 160.588C120.135 161.987 120.138 163.562 120.751 165.224C120.791 165.332 120.833 165.44 120.878 165.549C120.573 165.459 120.259 165.359 119.937 165.249C118.105 164.62 116.418 164.51 114.969 165.021C113.503 165.537 112.385 166.651 111.637 168.258C111.604 168.328 111.572 168.399 111.541 168.472C111.395 168.205 111.252 167.926 111.109 167.635C110.26 165.902 109.145 164.637 107.756 163.978C106.352 163.313 104.771 163.316 103.102 163.925C103.014 163.957 102.926 163.991 102.838 164.026C102.909 163.797 102.985 163.564 103.068 163.326C103.7 161.503 103.812 159.823 103.297 158.379C102.777 156.919 101.655 155.808 100.042 155.065C100.011 155.051 99.98 155.037 99.949 155.023C100.242 154.864 100.549 154.706 100.87 154.551C102.613 153.707 103.886 152.599 104.548 151.216C105.219 149.818 105.216 148.242 104.603 146.581C104.563 146.473 104.52 146.364 104.475 146.256C104.781 146.346 105.095 146.445 105.416 146.556C107.249 147.184 108.936 147.295 110.385 146.784C111.851 146.267 112.968 145.153 113.717 143.547Z" fill="url(#paint64_linear_1911_42)" stroke="url(#paint65_angular_1911_42)" stroke-width="1.416"/>
<path fill-rule="evenodd" clip-rule="evenodd" d="M112.816 156.682C116.53 156.682 119.542 155.979 119.542 153.206C119.542 150.433 116.53 148.186 112.816 148.186C109.101 148.186 106.09 150.433 106.09 153.206C106.09 155.979 109.101 156.682 112.816 156.682Z" fill="url(#paint66_linear_1911_42)"/>
<g filter="url(#filter4_f_1911_42)">
<path fill-rule="evenodd" clip-rule="evenodd" d="M113.877 149.6C116.223 149.6 118.125 147.699 118.125 145.352C118.125 143.006 116.223 141.104 113.877 141.104C111.531 141.104 109.629 143.006 109.629 145.352C109.629 147.699 111.531 149.6 113.877 149.6Z" fill="white"/>
</g>
</g>
<defs>
<filter id="filter0_d_1911_42" x="-0.0645161" y="0.16129" width="225.076" height="224.129" filterUnits="userSpaceOnUse" color-interpolation-filters="sRGB">
<feFlood flood-opacity="0" result="BackgroundImageFix"/>
<feColorMatrix in="SourceAlpha" type="matrix" values="0 0 0 0 0 0 0 0 0 0 0 0 0 0 0 0 0 0 127 0" result="hardAlpha"/>
<feOffset dy="5.22581"/>
<feGaussianBlur stdDeviation="6.53226"/>
<feColorMatrix type="matrix" values="0 0 0 0 0.327691 0 0 0 0 0.416536 0 0 0 0 0.520833 0 0 0 0.4 0"/>
<feBlend mode="normal" in2="BackgroundImageFix" result="effect1_dropShadow_1911_42"/>
<feBlend mode="normal" in="SourceGraphic" in2="effect1_dropShadow_1911_42" result="shape"/>
</filter>
<filter id="filter1_f_1911_42" x="6.00888" y="8.08896" width="212.928" height="211.512" filterUnits="userSpaceOnUse" color-interpolation-filters="sRGB">
<feFlood flood-opacity="0" result="BackgroundImageFix"/>
<feBlend mode="normal" in="SourceGraphic" in2="BackgroundImageFix" result="shape"/>
<feGaussianBlur stdDeviation="3.84907" result="effect1_foregroundBlur_1911_42"/>
</filter>
<filter id="filter2_f_1911_42" x="8.67419" y="139.27" width="202.263" height="57.4778" filterUnits="userSpaceOnUse" color-interpolation-filters="sRGB">
<feFlood flood-opacity="0" result="BackgroundImageFix"/>
<feBlend mode="normal" in="SourceGraphic" in2="BackgroundImageFix" result="shape"/>
<feGaussianBlur stdDeviation="4.81134" result="effect1_foregroundBlur_1911_42"/>
</filter>
<filter id="filter3_f_1911_42" x="41.1902" y="39.0222" width="143.274" height="143.274" filterUnits="userSpaceOnUse" color-interpolation-filters="sRGB">
<feFlood flood-opacity="0" result="BackgroundImageFix"/>
<feBlend mode="normal" in="SourceGraphic" in2="BackgroundImageFix" result="shape"/>
<feGaussianBlur stdDeviation="9.62269" result="effect1_foregroundBlur_1911_42"/>
</filter>
<filter id="filter4_f_1911_42" x="101.931" y="133.406" width="23.8924" height="23.8924" filterUnits="userSpaceOnUse" color-interpolation-filters="sRGB">
<feFlood flood-opacity="0" result="BackgroundImageFix"/>
<feBlend mode="normal" in="SourceGraphic" in2="BackgroundImageFix" result="shape"/>
<feGaussianBlur stdDeviation="3.84907" result="effect1_foregroundBlur_1911_42"/>
</filter>
<linearGradient id="paint0_linear_1911_42" x1="65.1292" y1="77.4236" x2="65.1292" y2="172.822" gradientUnits="userSpaceOnUse">
<stop stop-color="white"/>
<stop offset="0.99971" stop-color="#8790B1"/>
</linearGradient>
<linearGradient id="paint1_linear_1911_42" x1="48.4004" y1="42.6914" x2="48.4004" y2="171.547" gradientUnits="userSpaceOnUse">
<stop stop-color="#E2E4EF"/>
<stop offset="1" stop-color="#687591"/>
</linearGradient>
<linearGradient id="paint2_linear_1911_42" x1="66.6426" y1="51.1865" x2="66.6426" y2="143.558" gradientUnits="userSpaceOnUse">
<stop stop-color="#5A658A"/>
<stop offset="0.907306" stop-color="white"/>
<stop offset="1" stop-color="white"/>
</linearGradient>
<linearGradient id="paint3_linear_1911_42" x1="58.3125" y1="52.6025" x2="58.3125" y2="161.634" gradientUnits="userSpaceOnUse">
<stop stop-color="#E2E4EF"/>
<stop offset="1" stop-color="#6C7796"/>
</linearGradient>
<linearGradient id="paint4_linear_1911_42" x1="58.3125" y1="52.6025" x2="58.3125" y2="161.634" gradientUnits="userSpaceOnUse">
<stop stop-color="#FAE8C3"/>
<stop offset="1" stop-color="#F3CD90"/>
</linearGradient>
<linearGradient id="paint5_linear_1911_42" x1="32.4648" y1="27.4717" x2="32.4648" y2="186.774" gradientUnits="userSpaceOnUse">
<stop stop-color="#8992B3"/>
<stop offset="1" stop-color="#F9F9FB"/>
</linearGradient>
<linearGradient id="paint6_linear_1911_42" x1="111.904" y1="31.1153" x2="110.456" y2="31.1153" gradientUnits="userSpaceOnUse">
<stop stop-color="#BFC7DD"/>
<stop offset="1" stop-color="#8B96B9"/>
</linearGradient>
<linearGradient id="paint7_linear_1911_42" x1="103.421" y1="40.1749" x2="107.457" y2="29.9692" gradientUnits="userSpaceOnUse">
<stop stop-color="#8B97BA"/>
<stop offset="1" stop-color="#535E84"/>
</linearGradient>
<linearGradient id="paint8_linear_1911_42" x1="86.5153" y1="70.5922" x2="105" y2="47.2797" gradientUnits="userSpaceOnUse">
<stop stop-color="#D8DDEA"/>
<stop offset="0.276023" stop-color="white"/>
<stop offset="0.80021" stop-color="white"/>
<stop offset="1" stop-color="#D8DDEA"/>
</linearGradient>
<linearGradient id="paint9_linear_1911_42" x1="103.947" y1="45.1862" x2="83.531" y2="65.7641" gradientUnits="userSpaceOnUse">
<stop stop-color="#818DB0"/>
<stop offset="0.379434" stop-color="#535E84"/>
<stop offset="1" stop-color="#818DB0"/>
</linearGradient>
<linearGradient id="paint10_linear_1911_42" x1="73.3673" y1="36.8443" x2="63.1944" y2="47.8772" gradientUnits="userSpaceOnUse">
<stop stop-color="#D3D9E8"/>
<stop offset="1" stop-color="#F0F2F7"/>
</linearGradient>
<linearGradient id="paint11_linear_1911_42" x1="53.3163" y1="54.3355" x2="66.6589" y2="67.7846" gradientUnits="userSpaceOnUse">
<stop stop-color="#BBC4DB"/>
<stop offset="1" stop-color="white"/>
</linearGradient>
<linearGradient id="paint12_linear_1911_42" x1="52.2882" y1="61.1819" x2="49.0822" y2="69.4284" gradientUnits="userSpaceOnUse">
<stop stop-color="white"/>
<stop offset="1" stop-color="#DCE2F5"/>
</linearGradient>
<linearGradient id="paint13_linear_1911_42" x1="54.2222" y1="47.4169" x2="45.0383" y2="50.523" gradientUnits="userSpaceOnUse">
<stop stop-color="#535E84"/>
<stop offset="1" stop-color="#C2C9DF"/>
</linearGradient>
<linearGradient id="paint14_linear_1911_42" x1="58.0166" y1="52.2186" x2="25.3971" y2="78.7432" gradientUnits="userSpaceOnUse">
<stop offset="0.000263936" stop-color="#757FA0"/>
<stop offset="0.286529" stop-color="#535E84"/>
<stop offset="1" stop-color="#D2D9ED"/>
</linearGradient>
<linearGradient id="paint15_linear_1911_42" x1="33.8108" y1="87.1241" x2="27.2218" y2="95.7486" gradientUnits="userSpaceOnUse">
<stop stop-color="#B9C2D9"/>
<stop offset="1" stop-color="#838FB2"/>
</linearGradient>
<linearGradient id="paint16_linear_1911_42" x1="43.3072" y1="89.0059" x2="41.7953" y2="89.0059" gradientUnits="userSpaceOnUse">
<stop stop-color="#8B97BA"/>
<stop offset="1" stop-color="#535E84"/>
</linearGradient>
<linearGradient id="paint17_linear_1911_42" x1="28.8619" y1="116.197" x2="43.2577" y2="126.776" gradientUnits="userSpaceOnUse">
<stop stop-color="#A2ABC9"/>
<stop offset="0.571106" stop-color="white"/>
<stop offset="1" stop-color="#DEE1EB"/>
</linearGradient>
<linearGradient id="paint18_linear_1911_42" x1="44.3191" y1="103.065" x2="31.9957" y2="111.784" gradientUnits="userSpaceOnUse">
<stop stop-color="white"/>
<stop offset="1" stop-color="#929CBC"/>
</linearGradient>
<linearGradient id="paint19_linear_1911_42" x1="39.9491" y1="107.69" x2="39.9491" y2="109.11" gradientUnits="userSpaceOnUse">
<stop stop-color="#959FBF"/>
<stop offset="1" stop-color="#5C668B"/>
</linearGradient>
<linearGradient id="paint20_linear_1911_42" x1="46.2164" y1="115.802" x2="68.885" y2="132.713" gradientUnits="userSpaceOnUse">
<stop stop-color="#9198B4"/>
<stop offset="1" stop-color="#D9DDEC"/>
</linearGradient>
<linearGradient id="paint21_linear_1911_42" x1="49.0685" y1="156.857" x2="51.6905" y2="156.857" gradientUnits="userSpaceOnUse">
<stop stop-color="#D8DCEA"/>
<stop offset="1" stop-color="#95A0BF"/>
</linearGradient>
<linearGradient id="paint22_linear_1911_42" x1="46.0957" y1="138.683" x2="46.0957" y2="152.04" gradientUnits="userSpaceOnUse">
<stop stop-color="#959FBF"/>
<stop offset="1" stop-color="#5C668B"/>
</linearGradient>
<linearGradient id="paint23_linear_1911_42" x1="63.7" y1="166.302" x2="87.9502" y2="188.556" gradientUnits="userSpaceOnUse">
<stop stop-color="#D9DCE6"/>
<stop offset="1" stop-color="white"/>
</linearGradient>
<linearGradient id="paint24_linear_1911_42" x1="70.8839" y1="153.473" x2="87.6507" y2="177.448" gradientUnits="userSpaceOnUse">
<stop stop-color="#5C668B"/>
<stop offset="1" stop-color="#959DB7"/>
</linearGradient>
<linearGradient id="paint25_linear_1911_42" x1="94.6745" y1="176.549" x2="94.6745" y2="178.06" gradientUnits="userSpaceOnUse">
<stop stop-color="#919CBE"/>
<stop offset="1" stop-color="#586389"/>
</linearGradient>
<linearGradient id="paint26_linear_1911_42" x1="116.439" y1="182.882" x2="111.885" y2="170.896" gradientUnits="userSpaceOnUse">
<stop stop-color="#B2BBD4"/>
<stop offset="1" stop-color="#7A86A9"/>
<stop offset="1" stop-color="#7A86A9"/>
</linearGradient>
<linearGradient id="paint27_linear_1911_42" x1="134.366" y1="174.639" x2="136.194" y2="162.789" gradientUnits="userSpaceOnUse">
<stop stop-color="#D3D9E7"/>
<stop offset="1" stop-color="white"/>
</linearGradient>
<linearGradient id="paint28_linear_1911_42" x1="123.145" y1="172.24" x2="149.27" y2="148.948" gradientUnits="userSpaceOnUse">
<stop stop-color="#CDD4E5"/>
<stop offset="0.226881" stop-color="#556086"/>
<stop offset="0.637102" stop-color="#697395"/>
<stop offset="1" stop-color="#CCD3E4"/>
</linearGradient>
<linearGradient id="paint29_linear_1911_42" x1="144.347" y1="157.65" x2="154.365" y2="169.853" gradientUnits="userSpaceOnUse">
<stop stop-color="#848FB2"/>
<stop offset="1" stop-color="#556086"/>
</linearGradient>
<linearGradient id="paint30_linear_1911_42" x1="143.102" y1="160.137" x2="143.102" y2="173.493" gradientUnits="userSpaceOnUse">
<stop stop-color="#8E99BB"/>
<stop offset="1" stop-color="#556086"/>
</linearGradient>
<linearGradient id="paint31_linear_1911_42" x1="159.44" y1="157.755" x2="166.347" y2="162.575" gradientUnits="userSpaceOnUse">
<stop stop-color="#E8ECF3"/>
<stop offset="1" stop-color="#CDD4E4"/>
</linearGradient>
<linearGradient id="paint32_linear_1911_42" x1="174.857" y1="157.068" x2="181.071" y2="150.389" gradientUnits="userSpaceOnUse">
<stop stop-color="#F3F4F7"/>
<stop offset="1" stop-color="#E4E5ED"/>
</linearGradient>
<linearGradient id="paint33_linear_1911_42" x1="150.389" y1="112.308" x2="137.723" y2="133.995" gradientUnits="userSpaceOnUse">
<stop stop-color="#9EA9C6"/>
<stop offset="1" stop-color="#CDD4E5"/>
</linearGradient>
<linearGradient id="paint34_linear_1911_42" x1="165.388" y1="107.554" x2="146.822" y2="133.199" gradientUnits="userSpaceOnUse">
<stop stop-color="#9EA9C6"/>
<stop offset="1" stop-color="white"/>
</linearGradient>
<linearGradient id="paint35_linear_1911_42" x1="180.52" y1="111.976" x2="180.52" y2="130.967" gradientUnits="userSpaceOnUse">
<stop stop-color="#7480A4"/>
<stop offset="1" stop-color="#ACB7D1"/>
</linearGradient>
<linearGradient id="paint36_linear_1911_42" x1="178.629" y1="87.5684" x2="169.42" y2="94.0385" gradientUnits="userSpaceOnUse">
<stop stop-color="#8B97BA"/>
<stop offset="1" stop-color="#535E84"/>
</linearGradient>
<linearGradient id="paint37_linear_1911_42" x1="150.317" y1="74.1946" x2="158.155" y2="98.0186" gradientUnits="userSpaceOnUse">
<stop stop-color="white"/>
<stop offset="0.661584" stop-color="#BDC2D8"/>
<stop offset="1" stop-color="#F0F2F6"/>
</linearGradient>
<linearGradient id="paint38_linear_1911_42" x1="162.203" y1="56.9165" x2="153.685" y2="64.7869" gradientUnits="userSpaceOnUse">
<stop stop-color="#535E84"/>
<stop offset="1" stop-color="#98A0BD"/>
</linearGradient>
<linearGradient id="paint39_linear_1911_42" x1="166.508" y1="68.0331" x2="173.835" y2="75.0011" gradientUnits="userSpaceOnUse">
<stop stop-color="white"/>
<stop offset="1" stop-color="#9FA6C1"/>
</linearGradient>
<linearGradient id="paint40_linear_1911_42" x1="148.534" y1="52.4757" x2="158.53" y2="59.4731" gradientUnits="userSpaceOnUse">
<stop stop-color="white"/>
<stop offset="1" stop-color="#979FBC"/>
</linearGradient>
<linearGradient id="paint41_linear_1911_42" x1="158.616" y1="49.687" x2="154.355" y2="57.9857" gradientUnits="userSpaceOnUse">
<stop stop-color="#979FBC"/>
<stop offset="1" stop-color="white"/>
</linearGradient>
<linearGradient id="paint42_linear_1911_42" x1="116.338" y1="28.0352" x2="116.338" y2="50.946" gradientUnits="userSpaceOnUse">
<stop stop-color="#C6CBDE"/>
<stop offset="1" stop-color="#949CBA"/>
</linearGradient>
<linearGradient id="paint43_linear_1911_42" x1="129.413" y1="48.442" x2="136.59" y2="70.922" gradientUnits="userSpaceOnUse">
<stop stop-color="#535E84"/>
<stop offset="1" stop-color="#A6ADC6"/>
</linearGradient>
<linearGradient id="paint44_linear_1911_42" x1="171.799" y1="55.4297" x2="171.799" y2="74.0168" gradientUnits="userSpaceOnUse">
<stop stop-color="#B5BACF"/>
<stop offset="1" stop-color="#C0C5D6"/>
</linearGradient>
<linearGradient id="paint45_linear_1911_42" x1="167.674" y1="67.0935" x2="185.092" y2="85.2088" gradientUnits="userSpaceOnUse">
<stop stop-color="#7780A2"/>
<stop offset="1" stop-color="#F0F1F5"/>
</linearGradient>
<linearGradient id="paint46_linear_1911_42" x1="187.813" y1="130.944" x2="198.03" y2="123.401" gradientUnits="userSpaceOnUse">
<stop stop-color="white"/>
<stop offset="1" stop-color="#BDC2D5"/>
</linearGradient>
<linearGradient id="paint47_linear_1911_42" x1="130.973" y1="173.938" x2="126.636" y2="167.106" gradientUnits="userSpaceOnUse">
<stop stop-color="#919CBE"/>
<stop offset="1" stop-color="#586389"/>
</linearGradient>
<linearGradient id="paint48_linear_1911_42" x1="104.746" y1="164.594" x2="104.746" y2="185.136" gradientUnits="userSpaceOnUse">
<stop stop-color="#E1E3EC"/>
<stop offset="1" stop-color="#8890AE"/>
</linearGradient>
<linearGradient id="paint49_linear_1911_42" x1="61.1408" y1="157.974" x2="62.8707" y2="159.8" gradientUnits="userSpaceOnUse">
<stop stop-color="#959FBF"/>
<stop offset="1" stop-color="#5C668B"/>
</linearGradient>
<linearGradient id="paint50_linear_1911_42" x1="75.1418" y1="139.294" x2="61.5569" y2="112.648" gradientUnits="userSpaceOnUse">
<stop stop-color="#959FBF"/>
<stop offset="0.45128" stop-color="#DBDFED"/>
<stop offset="1" stop-color="#5C668B"/>
</linearGradient>
<linearGradient id="paint51_linear_1911_42" x1="60.7382" y1="57.8537" x2="35.5636" y2="81.5017" gradientUnits="userSpaceOnUse">
<stop stop-color="#535E84"/>
<stop offset="0.544632" stop-color="#E9EEFF"/>
<stop offset="0.763276" stop-color="white"/>
<stop offset="1" stop-color="#BFC8E0"/>
</linearGradient>
<linearGradient id="paint52_linear_1911_42" x1="61.992" y1="56.7489" x2="60.8718" y2="57.7578" gradientUnits="userSpaceOnUse">
<stop stop-color="#8B97BA"/>
<stop offset="1" stop-color="#535E84"/>
</linearGradient>
<linearGradient id="paint53_linear_1911_42" x1="67.8624" y1="50.5124" x2="72.8116" y2="40.3388" gradientUnits="userSpaceOnUse">
<stop stop-color="#8B97BA"/>
<stop offset="1" stop-color="#535E84"/>
</linearGradient>
<linearGradient id="paint54_linear_1911_42" x1="21.3918" y1="23.9683" x2="21.3918" y2="204.824" gradientUnits="userSpaceOnUse">
<stop stop-color="#FDFDFE"/>
<stop offset="1" stop-color="#A4ABC3"/>
</linearGradient>
<linearGradient id="paint55_linear_1911_42" x1="62.5381" y1="58.9336" x2="62.5381" y2="159.512" gradientUnits="userSpaceOnUse">
<stop stop-color="#FBFBFC"/>
<stop offset="1" stop-color="#EBBA68"/>
</linearGradient>
<linearGradient id="paint56_linear_1911_42" x1="61.8516" y1="56.1445" x2="61.8516" y2="158.096" gradientUnits="userSpaceOnUse">
<stop stop-color="#FFFCF0"/>
<stop offset="1" stop-color="#F6DDB1"/>
</linearGradient>
<linearGradient id="paint57_linear_1911_42" x1="67.5156" y1="61.8076" x2="67.5156" y2="152.431" gradientUnits="userSpaceOnUse">
<stop stop-color="white"/>
<stop offset="1" stop-color="#A7AEC5"/>
</linearGradient>
<linearGradient id="paint58_linear_1911_42" x1="88.8428" y1="105.482" x2="88.8428" y2="144.187" gradientUnits="userSpaceOnUse">
<stop stop-color="white"/>
<stop offset="0.491158" stop-color="#556086"/>
<stop offset="0.749921" stop-color="#DDE0E9"/>
<stop offset="1" stop-color="#8893B4"/>
</linearGradient>
<linearGradient id="paint59_linear_1911_42" x1="88.4353" y1="85.3783" x2="88.4353" y2="135.141" gradientUnits="userSpaceOnUse">
<stop stop-color="white"/>
<stop offset="0.391839" stop-color="#D5D9E4"/>
<stop offset="0.617742" stop-color="#EDF1FD"/>
<stop offset="1" stop-color="#949DBA"/>
</linearGradient>
<linearGradient id="paint60_linear_1911_42" x1="8.0052" y1="160.553" x2="30.6087" y2="207.17" gradientUnits="userSpaceOnUse">
<stop stop-color="#FBEDD0"/>
<stop offset="1" stop-color="#EFC47E"/>
</linearGradient>
<linearGradient id="paint61_linear_1911_42" x1="20.6289" y1="151.331" x2="20.6289" y2="192.612" gradientUnits="userSpaceOnUse">
<stop stop-color="#F0CA8B"/>
<stop offset="1" stop-color="#7A7A7A"/>
</linearGradient>
<linearGradient id="paint62_linear_1911_42" x1="216.919" y1="160.554" x2="194.315" y2="207.171" gradientUnits="userSpaceOnUse">
<stop stop-color="#FBEDD0"/>
<stop offset="1" stop-color="#EFC47E"/>
</linearGradient>
<linearGradient id="paint63_linear_1911_42" x1="204.295" y1="151.332" x2="204.295" y2="192.613" gradientUnits="userSpaceOnUse">
<stop stop-color="#F0CA8B"/>
<stop offset="1" stop-color="#7A7A7A"/>
</linearGradient>
<linearGradient id="paint64_linear_1911_42" x1="98.3027" y1="141.813" x2="98.3027" y2="170.133" gradientUnits="userSpaceOnUse">
<stop stop-color="white"/>
<stop offset="1" stop-color="#F4D6A3"/>
</linearGradient>
<radialGradient id="paint65_angular_1911_42" cx="0" cy="0" r="1" gradientUnits="userSpaceOnUse" gradientTransform="translate(112.463 155.973) scale(14.16)">
<stop offset="0.0324173" stop-color="#EEBD6E"/>
<stop offset="0.0956217" stop-color="#FFF2DE"/>
<stop offset="0.159035" stop-color="#F5D29A"/>
<stop offset="0.205681" stop-color="#E3B05B"/>
<stop offset="0.257644" stop-color="#F6D8A7"/>
<stop offset="0.306958" stop-color="#EEC177"/>
<stop offset="0.363652" stop-color="#EEC178"/>
<stop offset="0.414795" stop-color="#FEEFD9"/>
<stop offset="0.474524" stop-color="#EFC27A"/>
<stop offset="0.534371" stop-color="white"/>
<stop offset="0.579778" stop-color="#EEC37C"/>
<stop offset="0.636734" stop-color="white"/>
<stop offset="0.657152" stop-color="white"/>
<stop offset="0.75" stop-color="white"/>
<stop offset="0.860385" stop-color="white"/>
<stop offset="0.931979" stop-color="#EDBF72"/>
<stop offset="0.973136" stop-color="#FFF4E3"/>
</radialGradient>
<linearGradient id="paint66_linear_1911_42" x1="106.09" y1="148.186" x2="106.09" y2="156.682" gradientUnits="userSpaceOnUse">
<stop stop-color="white"/>
<stop offset="1" stop-color="white" stop-opacity="0.323918"/>
</linearGradient>
<clipPath id="clip0_1911_42">
<rect width="198.947" height="198" fill="white" transform="translate(13 8)"/>
</clipPath>
</defs>
</svg>
