<svg width="200" height="200" viewBox="0 0 200 200" fill="none" xmlns="http://www.w3.org/2000/svg">
<path d="M153.863 55.7155C157.809 58.5797 162.417 63.6864 166 67C164.369 67.2583 161.761 65.726 160.5 65.5C129.782 59.9946 103.927 85.003 111.658 112.943C116.404 130.096 130.901 140.62 152.691 142.731C149.926 144.648 147.16 146.565 143.623 148.505C140.78 149.25 138.339 149.545 136.697 150.761C119.248 163.685 100.1 166.058 78.2814 159.205C80.0806 158.308 81.2606 158.051 81.86 157.363C84.1398 154.744 87.6657 152.149 88.0509 149.243C88.5975 145.118 84.4743 142.794 80.1714 142.133C76.763 141.61 73.2084 141.266 69.7898 141.557C61.3498 142.273 55.6025 138.759 51.7109 132.303C49.0363 127.866 46.8611 123.175 44.3834 118.635C40.9148 112.278 36.4819 106.764 28.9284 104.093C27.3733 103.543 25.8233 102.981 24.271 102.424C24.3779 102.006 24.4847 101.587 24.5916 101.168C30.4095 101.537 36.2224 102.007 42.0465 102.249C49.1021 102.541 55.7876 101.488 60.1442 95.6598C63.6181 91.0129 62.9036 85.9992 60.5144 81.1143C57.8846 75.7378 53.419 72.0578 47.5394 69.9451C44.3209 68.7886 40.9199 68.0649 36.754 66.9114C45.739 63.5887 54.0165 62.1774 62.8172 63.3554C68.4327 64.1071 74.152 64.9421 79.7782 64.7225C90.5784 64.3008 94.6338 57.8389 90.165 48.875C95.1177 47.557 99.9841 45.9756 104.988 44.9832C121.369 41.734 136.51 42.7074 147.708 56.3552C149.87 58.9896 152.087 58.2151 153.863 55.7155Z" fill="url(#paint0_linear_3_75)"/>
<path d="M150.651 143C129.528 140.974 115.784 130.417 111.285 113.211C103.956 85.1849 129.103 59.2253 158.225 64.7477C161 65 160.371 65.1291 162.146 65.3407L163 65.5L163.971 65.9011C177.082 71.5204 186.562 80.4297 189.877 94.4028C195.786 119.319 177.747 141.753 150.651 143ZM121.084 121.402C131.436 135.704 147.864 141.027 163.059 135.004C181.775 127.585 190.327 107.117 182.064 89.5203C173.855 72.0394 152.507 64.6857 134.953 73.2922C116.968 82.1105 110.657 103.224 121.084 121.402Z" fill="white"/>
<path d="M96.3413 27.367C96.8444 28.574 97.9879 29.9745 97.6502 30.9275C97.3745 31.7057 95.335 32.3514 94.0682 32.3659C84.5029 32.4757 74.9354 32.415 64.7735 32.1432C63.8822 31.9557 63.5861 32.0324 63.29 32.1092C62.6935 30.9433 62.0971 29.7775 61.5006 28.6117C62.9115 28.0714 64.3152 27.083 65.7346 27.0634C75.2461 26.9318 84.7609 27.0064 94.8638 27.2757C95.749 27.4805 96.0452 27.4237 96.3413 27.367Z" fill="white"/>
<path d="M137.26 171.754C136.466 170.525 135.672 169.296 134.878 168.067C136.271 167.507 137.656 166.481 139.058 166.461C148.408 166.329 157.761 166.412 167.837 166.851C169.3 167.423 170.039 167.569 170.778 167.715C170.489 168.996 170.199 170.276 169.432 171.475C168.578 171.243 168.316 171.367 168.169 171.765C158.556 171.82 148.944 171.875 138.725 171.695C137.833 171.558 137.547 171.656 137.26 171.754Z" fill="white"/>
<path d="M58.9849 149.588C49.3715 149.331 39.7431 149.55 30.1196 149.613L30.1195 149.613C29.8362 149.723 29.5528 149.832 28.7658 149.79C28.1663 151.21 28.0706 152.781 27.9749 154.352V154.352C28.2813 154.334 28.5877 154.315 29.456 154.642C39.9818 154.9 49.9456 154.811 59.9093 154.723L59.9106 154.723C60.5763 154.375 61.2421 154.027 62.5965 153.388C61.8534 151.872 60.4538 149.628 58.9849 149.588Z" fill="white"/>
<path d="M31.2256 40.5167C41.573 40.4362 51.9203 40.3557 62.9851 40.6175C64.1176 41.0769 64.5326 41.194 64.9476 41.3111C64.9587 42.5388 64.9699 43.7664 64.3665 44.8955C62.4849 45.0275 61.2178 45.2581 59.9507 45.4887C59.1156 45.5608 58.2804 45.6328 56.7127 45.296C47.2791 44.7816 38.5781 44.676 29.8772 44.5704C29.6437 43.6772 29.4102 42.7839 29.7583 41.6046C30.6351 41.0513 30.9303 40.784 31.2256 40.5167Z" fill="white"/>
<path d="M121.801 165.608C123.161 165.879 124.547 166.144 125.941 166.369C128.51 166.785 132.819 165.101 132.612 169.271C132.419 173.167 128.227 171.85 125.592 171.851C120.936 171.853 120.266 170.474 122.157 165.866C121.848 165.515 121.83 165.584 121.801 165.608Z" fill="white"/>
<path d="M54.9868 27.7873C56.5286 28.1904 57.8827 28.6117 58.709 29.4675C58.997 29.7658 58.0508 31.8591 57.55 31.9C54.4964 32.1498 51.3982 32.166 48.3431 31.9384C47.8316 31.9003 46.9754 30.1849 47.1672 29.4395C47.3308 28.8038 48.7253 28.1634 49.6588 28.0323C51.2689 27.8062 52.9439 27.9738 54.9868 27.7873Z" fill="white"/>
<path d="M16.1397 41.536C19.8357 41.3556 23.1519 41.4936 26.4866 41.6324C26.3429 47.2218 22.3336 45.4567 19.6157 45.669C16.7642 45.8918 15.0268 44.8633 16.1397 41.536Z" fill="white"/>
<path d="M13.3401 150.086C17.0362 149.906 20.3523 150.044 23.6871 150.182C23.5433 155.772 19.534 154.007 16.8161 154.219C13.9646 154.442 12.2273 153.413 13.3401 150.086Z" fill="white"/>
<defs>
<linearGradient id="paint0_linear_3_75" x1="58" y1="89" x2="170" y2="94" gradientUnits="userSpaceOnUse">
<stop stop-color="#FF0000"/>
<stop offset="1" stop-color="#FF00C5"/>
</linearGradient>
</defs>
</svg>
