<svg width="536" height="478" viewBox="0 0 536 478" fill="none" xmlns="http://www.w3.org/2000/svg">
<g opacity="0.5" filter="url(#filter0_f_1774_50)">
<circle cx="268.101" cy="38.011" r="12.6067" fill="url(#paint0_radial_1774_50)"/>
</g>
<path fill-rule="evenodd" clip-rule="evenodd" d="M266 406.408C366.956 406.408 448.798 324.567 448.798 223.61C448.798 122.654 366.956 40.8126 266 40.8126C165.044 40.8126 83.2022 122.654 83.2022 223.61C83.2022 324.567 165.044 406.408 266 406.408ZM266 410.61C369.277 410.61 453 326.888 453 223.61C453 120.333 369.277 36.6104 266 36.6104C162.723 36.6104 79 120.333 79 223.61C79 326.888 162.723 410.61 266 410.61Z" fill="url(#paint1_linear_1774_50)"/>
<g filter="url(#filter1_f_1774_50)">
<path d="M268.101 17L269.903 36.0803L287.712 38.0112L269.903 39.9422L268.101 59.0225L266.299 39.9422L248.491 38.0112L266.299 36.0803L268.101 17Z" fill="white"/>
</g>
<path d="M244.953 166.139L237.615 0H296.314L288.977 166.139H244.953Z" fill="url(#paint2_linear_1774_50)"/>
<path d="M313.609 213.636L461.159 290.352L431.81 341.187L291.597 251.762L313.609 213.636Z" fill="url(#paint3_linear_1774_50)"/>
<path d="M287.928 254.712L295.265 420.852H236.566L243.903 254.712H287.928Z" fill="url(#paint4_linear_1774_50)"/>
<path d="M241.562 252.289L101.35 341.713L72 290.878L219.55 214.163L241.562 252.289Z" fill="url(#paint5_linear_1774_50)"/>
<path d="M313.609 207.477L461.159 130.762L431.81 79.9268L291.597 169.351L313.609 207.477Z" fill="url(#paint6_linear_1774_50)"/>
<path d="M241.562 168.825L101.35 79.4014L72 130.236L219.55 206.952L241.562 168.825Z" fill="url(#paint7_linear_1774_50)"/>
<g filter="url(#filter2_dd_1774_50)">
<path d="M160.5 190.294L160.5 149L63 149C63 174.809 81.2456 190.294 96.0702 190.294L160.5 190.294Z" fill="url(#paint8_linear_1774_50)"/>
<path d="M160.5 190.294L160.5 149L63 149C63 174.809 81.2456 190.294 96.0702 190.294L160.5 190.294Z" stroke="url(#paint9_linear_1774_50)" stroke-width="2.29412"/>
<path d="M194.912 227L194.912 185.706L97.4116 185.706C97.4116 211.515 115.657 227 130.482 227L194.912 227Z" fill="url(#paint10_linear_1774_50)"/>
<path d="M194.912 227L194.912 185.706L97.4116 185.706C97.4116 211.515 115.657 227 130.482 227L194.912 227Z" stroke="url(#paint11_linear_1774_50)" stroke-width="2.29412"/>
<path d="M375.323 190.294L375.323 149L472.823 149C472.823 174.809 454.578 190.294 439.753 190.294L375.323 190.294Z" fill="url(#paint12_linear_1774_50)"/>
<path d="M375.323 190.294L375.323 149L472.823 149C472.823 174.809 454.578 190.294 439.753 190.294L375.323 190.294Z" stroke="url(#paint13_linear_1774_50)" stroke-width="2.29412"/>
<path d="M340.912 227L340.912 185.706L438.412 185.706C438.412 211.515 420.166 227 405.341 227L340.912 227Z" fill="url(#paint14_linear_1774_50)"/>
<path d="M340.912 227L340.912 185.706L438.412 185.706C438.412 211.515 420.166 227 405.341 227L340.912 227Z" stroke="url(#paint15_linear_1774_50)" stroke-width="2.29412"/>
<g filter="url(#filter3_d_1774_50)">
<path fill-rule="evenodd" clip-rule="evenodd" d="M211.912 277V365.842L241.438 381.708C242.105 382.066 242.912 381.587 242.912 380.831C242.909 347.726 242.941 309.945 242.941 277H211.912Z" fill="#9CB7ED"/>
<path fill-rule="evenodd" clip-rule="evenodd" d="M211.912 277V365.842L241.438 381.708C242.105 382.066 242.912 381.587 242.912 380.831C242.909 347.726 242.941 309.945 242.941 277H211.912Z" stroke="url(#paint16_linear_1774_50)"/>
</g>
<path fill-rule="evenodd" clip-rule="evenodd" d="M214.479 361.864V327H213.912V362.336L214.148 362.376C214.932 362.506 215.804 362.97 216.516 363.648C217.227 364.325 217.753 365.191 217.883 366.105L217.905 366.257L240.844 378V338.632H240.277V377.108L218.42 365.871C218.233 364.861 217.647 363.942 216.907 363.237C216.197 362.561 215.324 362.061 214.479 361.864Z" fill="url(#paint17_linear_1774_50)"/>
<path fill-rule="evenodd" clip-rule="evenodd" d="M240.244 375.033C240.856 373.999 240.891 372.533 240.843 371.586L240.277 371.614C240.324 372.557 240.274 373.869 239.756 374.744C239.505 375.169 239.15 375.481 238.639 375.609C238.118 375.74 237.4 375.689 236.411 375.305L236.205 375.833C237.257 376.242 238.102 376.329 238.777 376.159C239.46 375.988 239.931 375.563 240.244 375.033Z" fill="#E3EFFB"/>
<g filter="url(#filter4_d_1774_50)">
<path fill-rule="evenodd" clip-rule="evenodd" d="M206.926 363.842V277H170.912V344.465C170.912 345.614 171.568 346.661 172.601 347.163L206.926 363.842Z" fill="#C6D9FF"/>
<path fill-rule="evenodd" clip-rule="evenodd" d="M206.926 363.842V277H170.912V344.465C170.912 345.614 171.568 346.661 172.601 347.163L206.926 363.842Z" stroke="url(#paint18_linear_1774_50)"/>
</g>
<path fill-rule="evenodd" clip-rule="evenodd" d="M173.58 342.139V301H172.911V342.697L173.191 342.743C174.116 342.897 175.144 343.444 175.984 344.244C176.823 345.043 177.444 346.066 177.598 347.144L177.624 347.323L204.691 360V314.726H204.022V358.948L178.231 346.868C178.011 345.676 177.319 344.592 176.446 343.76C175.608 342.962 174.578 342.372 173.58 342.139Z" fill="url(#paint19_linear_1774_50)"/>
<path fill-rule="evenodd" clip-rule="evenodd" d="M203.984 356.499C204.706 355.279 204.747 353.549 204.691 352.432L204.023 352.465C204.079 353.578 204.019 355.126 203.409 356.159C203.112 356.659 202.693 357.028 202.09 357.179C201.476 357.334 200.628 357.274 199.461 356.82L199.218 357.443C200.46 357.926 201.457 358.028 202.253 357.828C203.059 357.626 203.614 357.125 203.984 356.499Z" fill="#F2F9FF"/>
<g filter="url(#filter5_d_1774_50)">
<path fill-rule="evenodd" clip-rule="evenodd" d="M324.94 277V365.842L295.414 381.708C294.748 382.066 293.941 381.587 293.941 380.831C293.944 347.726 293.912 309.945 293.912 277H324.94Z" fill="#9CB7ED"/>
<path fill-rule="evenodd" clip-rule="evenodd" d="M324.94 277V365.842L295.414 381.708C294.748 382.066 293.941 381.587 293.941 380.831C293.944 347.726 293.912 309.945 293.912 277H324.94Z" stroke="url(#paint20_linear_1774_50)"/>
</g>
<path fill-rule="evenodd" clip-rule="evenodd" d="M322.374 361.864V327H322.941V362.336L322.704 362.376C321.92 362.506 321.049 362.97 320.337 363.648C319.626 364.325 319.1 365.191 318.969 366.105L318.947 366.257L296.009 378V338.632H296.576V377.108L318.433 365.871C318.619 364.861 319.206 363.942 319.946 363.237C320.656 362.561 321.529 362.061 322.374 361.864Z" fill="url(#paint21_linear_1774_50)"/>
<path fill-rule="evenodd" clip-rule="evenodd" d="M296.608 375.033C295.997 373.999 295.962 372.533 296.009 371.586L296.576 371.614C296.528 372.557 296.579 373.869 297.096 374.744C297.347 375.169 297.703 375.481 298.214 375.609C298.734 375.74 299.453 375.689 300.442 375.305L300.648 375.833C299.595 376.242 298.75 376.329 298.076 376.159C297.392 375.988 296.922 375.563 296.608 375.033Z" fill="#E3EFFB"/>
<g filter="url(#filter6_d_1774_50)">
<path fill-rule="evenodd" clip-rule="evenodd" d="M329.926 363.842V277H365.941V344.465C365.941 345.614 365.285 346.661 364.252 347.163L329.926 363.842Z" fill="#C6D9FF"/>
<path fill-rule="evenodd" clip-rule="evenodd" d="M329.926 363.842V277H365.941V344.465C365.941 345.614 365.285 346.661 364.252 347.163L329.926 363.842Z" stroke="url(#paint22_linear_1774_50)"/>
</g>
<path fill-rule="evenodd" clip-rule="evenodd" d="M363.272 342.139V301H363.941V342.697L363.662 342.743C362.737 342.897 361.708 343.444 360.868 344.244C360.029 345.043 359.408 346.066 359.254 347.144L359.229 347.323L332.161 360V314.726H332.83V358.948L358.622 346.868C358.842 345.676 359.534 344.592 360.407 343.76C361.245 342.962 362.274 342.372 363.272 342.139Z" fill="url(#paint23_linear_1774_50)"/>
<path fill-rule="evenodd" clip-rule="evenodd" d="M332.868 356.499C332.147 355.279 332.106 353.549 332.161 352.432L332.83 352.465C332.774 353.578 332.833 355.126 333.444 356.159C333.74 356.659 334.159 357.028 334.763 357.179C335.377 357.334 336.225 357.274 337.392 356.82L337.634 357.443C336.393 357.926 335.396 358.028 334.6 357.828C333.793 357.626 333.238 357.125 332.868 356.499Z" fill="#F2F9FF"/>
<g filter="url(#filter7_d_1774_50)">
<path d="M233.912 251H302.912V390.686L269.476 411.083C268.553 411.646 267.393 411.645 266.471 411.081L233.912 391.166V251Z" fill="#6A88C4"/>
<path d="M233.912 251H302.912V390.686L269.476 411.083C268.553 411.646 267.393 411.645 266.471 411.081L233.912 391.166V251Z" stroke="url(#paint24_linear_1774_50)" stroke-width="2"/>
</g>
<path fill-rule="evenodd" clip-rule="evenodd" d="M237.412 338H238.412V388.221L267.914 406.414L297.912 388.218V338H298.912V388.782L267.909 407.586L237.412 388.779V338Z" fill="url(#paint25_linear_1774_50)"/>
<path fill-rule="evenodd" clip-rule="evenodd" d="M268.344 386V404.143H267.475V386H268.344Z" fill="url(#paint26_linear_1774_50)"/>
<path fill-rule="evenodd" clip-rule="evenodd" d="M265.304 397.704C263.574 399.7 261.467 400.144 260.015 399.902L260.158 399.045C261.314 399.237 263.118 398.899 264.648 397.135C266.183 395.364 267.475 392.114 267.475 386.435H268.344C268.344 392.229 267.029 395.716 265.304 397.704Z" fill="url(#paint27_linear_1774_50)"/>
<path fill-rule="evenodd" clip-rule="evenodd" d="M270.515 397.704C272.245 399.7 274.353 400.144 275.804 399.902L275.661 399.045C274.505 399.237 272.701 398.899 271.172 397.135C269.636 395.364 268.344 392.114 268.344 386.435H267.475C267.475 392.229 268.791 395.716 270.515 397.704Z" fill="url(#paint28_linear_1774_50)"/>
<path fill-rule="evenodd" clip-rule="evenodd" d="M267.727 404.538L257.912 399.039L260.085 399.039L267.909 403.665L275.731 399H277.649L268.088 404.539C267.973 404.591 267.841 404.591 267.727 404.538Z" fill="url(#paint29_linear_1774_50)"/>
<g filter="url(#filter8_d_1774_50)">
<path d="M259.788 69.4192L151.788 128.17C146.317 131.146 142.912 136.875 142.912 143.103L142.912 277.402C142.912 283.63 146.317 289.359 151.788 292.335L259.788 351.086C264.853 353.841 270.97 353.841 276.035 351.086L384.035 292.335C389.506 289.359 392.912 283.629 392.912 277.402L392.912 143.103C392.912 136.875 389.506 131.146 384.035 128.17L276.035 69.4192C270.97 66.6637 264.853 66.6637 259.788 69.4192Z" fill="url(#paint30_linear_1774_50)"/>
<path d="M259.669 91.4025L170.755 139.771C165.304 142.736 161.912 148.444 161.912 154.648L161.912 265.352C161.912 271.556 165.304 277.264 170.755 280.229L259.669 328.597C264.715 331.343 270.809 331.343 275.855 328.597L364.769 280.229C370.219 277.264 373.612 271.556 373.612 265.352L373.612 154.648C373.612 148.444 370.219 142.736 364.769 139.771L275.855 91.4025C270.809 88.6575 264.715 88.6575 259.669 91.4025Z" fill="url(#paint31_linear_1774_50)"/>
<g filter="url(#filter9_f_1774_50)">
<path d="M259.669 91.4025L170.755 139.771C165.304 142.736 161.912 148.444 161.912 154.648L161.912 265.352C161.912 271.556 165.304 277.264 170.755 280.229L259.669 328.597C264.715 331.343 270.809 331.343 275.855 328.597L364.769 280.229C370.219 277.264 373.612 271.556 373.612 265.352L373.612 154.648C373.612 148.444 370.219 142.736 364.769 139.771L275.855 91.4025C270.809 88.6575 264.715 88.6575 259.669 91.4025Z" stroke="url(#paint32_linear_1774_50)"/>
</g>
<g opacity="0.5">
<mask id="mask0_1774_50" style="mask-type:alpha" maskUnits="userSpaceOnUse" x="170" y="99" width="196" height="223">
<path d="M260.719 101.181L179.329 145.417C174.141 148.236 170.912 153.667 170.912 159.571L170.912 260.819C170.912 266.723 174.141 272.154 179.329 274.974L260.719 319.209C265.516 321.816 271.307 321.816 276.105 319.209L357.495 274.974C362.682 272.154 365.912 266.723 365.912 260.819L365.912 159.571C365.912 153.667 362.682 148.236 357.495 145.417L276.105 101.181C271.307 98.5738 265.516 98.5738 260.719 101.181Z" fill="#A6D3DE"/>
</mask>
<g mask="url(#mask0_1774_50)">
<path d="M260.719 101.181L179.329 145.417C174.141 148.236 170.912 153.667 170.912 159.571L170.912 260.819C170.912 266.723 174.141 272.154 179.329 274.974L260.719 319.209C265.516 321.816 271.307 321.816 276.105 319.209L357.495 274.974C362.682 272.154 365.912 266.723 365.912 260.819L365.912 159.571C365.912 153.667 362.682 148.236 357.495 145.417L276.105 101.181C271.307 98.5738 265.516 98.5738 260.719 101.181Z" fill="url(#paint33_radial_1774_50)"/>
<path opacity="0.5" d="M252.112 327.862L248.239 92.5176H288.584L284.711 327.862H252.112Z" fill="url(#paint34_linear_1774_50)"/>
<path opacity="0.5" d="M251.594 325.775L130.567 123.896L165.507 103.724L279.825 309.475L251.594 325.775Z" fill="url(#paint35_linear_1774_50)"/>
<path opacity="0.5" d="M248.232 309.476L362.55 103.725L397.489 123.897L276.463 325.775L248.232 309.476Z" fill="url(#paint36_linear_1774_50)"/>
<rect x="170.912" y="196.742" width="195" height="126.638" fill="url(#paint37_linear_1774_50)"/>
<g filter="url(#filter10_i_1774_50)">
<path d="M260.719 101.181L179.329 145.417C174.141 148.236 170.912 153.667 170.912 159.571L170.912 260.819C170.912 266.723 174.141 272.154 179.329 274.974L260.719 319.209C265.516 321.816 271.307 321.816 276.105 319.209L357.495 274.974C362.682 272.154 365.912 266.723 365.912 260.819L365.912 159.571C365.912 153.667 362.682 148.236 357.495 145.417L276.105 101.181C271.307 98.5738 265.516 98.5738 260.719 101.181Z" fill="#6052B4" fill-opacity="0.01"/>
</g>
</g>
</g>
</g>
</g>
<g filter="url(#filter11_d_1774_50)">
<g filter="url(#filter12_d_1774_50)">
<path fill-rule="evenodd" clip-rule="evenodd" d="M267.151 111.233C269.643 109.541 276.766 117.329 280.553 126.116C278.79 128.848 276.757 132.01 274.454 135.601C276.342 133.033 278.892 130.847 282.105 129.043C280.765 132.402 285.298 140.822 285.227 142.871C285.179 144.237 282.657 147.791 277.661 153.534C279.314 152.001 281.58 149.796 284.458 146.921L285.108 146.271C288.411 163.527 290.064 191.434 288.449 197.414C286.834 203.393 283.101 204.17 279.044 216.69C280.948 213.698 283.543 210.244 286.828 206.328C286.349 212.749 284.446 218.756 281.119 224.35C276.29 232.472 271.781 237.314 271.217 245.647C271.217 245.647 270.517 259.025 270.517 265.715C270.517 270.096 270.706 290 270.706 290L266.83 289.719C266.83 289.719 267.017 269.719 267.017 265.301C267.017 258.227 266.317 244.079 266.317 244.079C266.118 243.324 265.906 242.603 265.684 241.917C263.191 234.236 254.901 227.805 252.301 219.64C250.568 214.197 248.761 208.065 246.88 201.244C249.809 202.038 252.727 203.876 255.636 206.76C253.712 201.157 248.829 194.34 246 187.179C248.633 173.588 247.262 151.038 252.787 140.187C254.834 125.801 264.66 112.924 267.151 111.233Z" fill="url(#paint38_linear_1774_50)"/>
<mask id="mask1_1774_50" style="mask-type:luminance" maskUnits="userSpaceOnUse" x="246" y="111" width="44" height="179">
<path fill-rule="evenodd" clip-rule="evenodd" d="M267.151 111.233C269.643 109.541 276.766 117.329 280.553 126.116C278.79 128.848 276.757 132.01 274.454 135.601C276.342 133.033 278.892 130.847 282.105 129.043C280.765 132.402 285.298 140.822 285.227 142.871C285.179 144.237 282.657 147.791 277.661 153.534C279.314 152.001 281.58 149.796 284.458 146.921L285.108 146.271C288.411 163.527 290.064 191.434 288.449 197.414C286.834 203.393 283.101 204.17 279.044 216.69C280.948 213.698 283.543 210.244 286.828 206.328C286.349 212.749 284.446 218.756 281.119 224.35C276.29 232.472 271.781 237.314 271.217 245.647C271.217 245.647 270.517 259.025 270.517 265.715C270.517 270.096 270.706 290 270.706 290L266.83 289.719C266.83 289.719 267.017 269.719 267.017 265.301C267.017 258.227 266.317 244.079 266.317 244.079C266.118 243.324 265.906 242.603 265.684 241.917C263.191 234.236 254.901 227.805 252.301 219.64C250.568 214.197 248.761 208.065 246.88 201.244C249.809 202.038 252.727 203.876 255.636 206.76C253.712 201.157 248.829 194.34 246 187.179C248.633 173.588 247.262 151.038 252.787 140.187C254.834 125.801 264.66 112.924 267.151 111.233Z" fill="white"/>
</mask>
<g mask="url(#mask1_1774_50)">
<path fill-rule="evenodd" clip-rule="evenodd" d="M289.075 186.023C289.075 196.368 279.857 207.528 279.044 216.689C285.227 206.655 287.067 202.936 290 201.356C292.933 199.776 289.075 175.678 289.075 186.023Z" fill="url(#paint39_linear_1774_50)"/>
<path fill-rule="evenodd" clip-rule="evenodd" d="M255.636 206.76L258.03 209.83C258.03 209.83 256.269 203.391 254.197 200.5C252.125 197.609 247.02 189.286 246 187.179C244.98 185.071 244.856 190.974 244.856 190.974L255.636 206.76Z" fill="url(#paint40_linear_1774_50)"/>
<path fill-rule="evenodd" clip-rule="evenodd" d="M284.587 139.965C285.21 141.685 283.876 144.479 281.352 148.157C278.827 151.834 275.193 156.028 275.193 156.028L277.661 153.535L286.346 144.275L288.029 140.649C288.029 140.649 283.965 138.244 284.587 139.965Z" fill="url(#paint41_linear_1774_50)"/>
<path fill-rule="evenodd" clip-rule="evenodd" d="M275.194 134.704L272.521 137.957C272.521 137.957 277.251 130.509 278.032 128.115C278.814 125.721 280.171 124.133 279.102 120.788C278.032 117.443 283.729 125.984 283.729 125.984L277.551 131.73L275.194 134.704Z" fill="url(#paint42_linear_1774_50)"/>
<path fill-rule="evenodd" clip-rule="evenodd" d="M266 296.302C266 296.302 266.839 275.049 267 265.592C267.234 251.847 268 119.031 268 119.031C268 119.031 270.533 238.092 270.533 266.472C270.533 294.852 276.817 300.628 276.817 300.628L266 298.47L266 296.302Z" fill="#C8CAD5"/>
</g>
</g>
<g filter="url(#filter13_d_1774_50)">
<path fill-rule="evenodd" clip-rule="evenodd" d="M268.413 290.252C267.804 290.061 267.177 289.864 266.641 291.566C266.641 302.692 265 307.2 265 307.2C265 307.2 269.069 313.307 269.069 316.911C269.069 313.416 273.138 307.2 273.138 307.2C273.138 307.2 271.497 301.681 271.497 291.566C270.9 289.671 270.308 289.915 269.669 290.179C269.474 290.26 269.274 290.342 269.069 290.366C268.856 290.39 268.636 290.321 268.413 290.252ZM270.031 299.692C270.031 300.251 269.579 300.704 269.02 300.704C268.461 300.704 268.008 300.251 268.008 299.692C268.008 299.134 268.461 298.681 269.02 298.681C269.579 298.681 270.031 299.134 270.031 299.692Z" fill="url(#paint43_linear_1774_50)"/>
<mask id="mask2_1774_50" style="mask-type:luminance" maskUnits="userSpaceOnUse" x="265" y="290" width="9" height="27">
<path fill-rule="evenodd" clip-rule="evenodd" d="M268.413 290.252C267.804 290.061 267.177 289.864 266.641 291.566C266.641 302.692 265 307.2 265 307.2C265 307.2 269.069 313.307 269.069 316.911C269.069 313.416 273.138 307.2 273.138 307.2C273.138 307.2 271.497 301.681 271.497 291.566C270.9 289.671 270.308 289.915 269.669 290.179C269.474 290.26 269.274 290.342 269.069 290.366C268.856 290.39 268.636 290.321 268.413 290.252ZM270.031 299.692C270.031 300.251 269.579 300.704 269.02 300.704C268.461 300.704 268.008 300.251 268.008 299.692C268.008 299.134 268.461 298.681 269.02 298.681C269.579 298.681 270.031 299.134 270.031 299.692Z" fill="white"/>
</mask>
<g mask="url(#mask2_1774_50)">
<path fill-rule="evenodd" clip-rule="evenodd" d="M269.069 291.565H280.398V316.91H269.069V291.565Z" fill="url(#paint44_linear_1774_50)"/>
<rect opacity="0.6" x="263" y="289.543" width="12.138" height="4.046" fill="url(#paint45_linear_1774_50)"/>
</g>
<path fill-rule="evenodd" clip-rule="evenodd" d="M269.069 313.631C269.832 310.491 273.138 307.2 273.138 307.2C273.138 307.2 269.069 313.416 269.069 316.911C269.069 313.307 265 307.2 265 307.2C265 307.2 268.183 310.526 269.069 313.631Z" fill="url(#paint46_linear_1774_50)"/>
<mask id="mask3_1774_50" style="mask-type:luminance" maskUnits="userSpaceOnUse" x="265" y="307" width="9" height="10">
<path fill-rule="evenodd" clip-rule="evenodd" d="M269.069 313.631C269.832 310.491 273.138 307.2 273.138 307.2C273.138 307.2 269.069 313.416 269.069 316.911C269.069 313.307 265 307.2 265 307.2C265 307.2 268.183 310.526 269.069 313.631Z" fill="white"/>
</mask>
<g mask="url(#mask3_1774_50)">
</g>
</g>
<g filter="url(#filter14_d_1774_50)">
<rect x="264.917" y="288.133" width="7.7" height="4" rx="1.4" fill="url(#paint47_linear_1774_50)"/>
</g>
<path fill-rule="evenodd" clip-rule="evenodd" d="M265.16 289.175C265.16 288.72 265.529 288.351 265.985 288.351H271.419C271.874 288.351 272.244 288.72 272.244 289.175C272.244 289.631 271.874 290 271.419 290H265.985C265.529 290 265.16 289.631 265.16 289.175Z" fill="white"/>
</g>
<defs>
<filter id="filter0_f_1774_50" x="252.693" y="22.6028" width="30.8164" height="30.8169" filterUnits="userSpaceOnUse" color-interpolation-filters="sRGB">
<feFlood flood-opacity="0" result="BackgroundImageFix"/>
<feBlend mode="normal" in="SourceGraphic" in2="BackgroundImageFix" result="shape"/>
<feGaussianBlur stdDeviation="1.40075" result="effect1_foregroundBlur_1774_50"/>
</filter>
<filter id="filter1_f_1774_50" x="247.65" y="16.1596" width="40.9021" height="43.7034" filterUnits="userSpaceOnUse" color-interpolation-filters="sRGB">
<feFlood flood-opacity="0" result="BackgroundImageFix"/>
<feBlend mode="normal" in="SourceGraphic" in2="BackgroundImageFix" result="shape"/>
<feGaussianBlur stdDeviation="0.420225" result="effect1_foregroundBlur_1774_50"/>
</filter>
<filter id="filter2_dd_1774_50" x="0.656582" y="10.2359" width="534.51" height="467.545" filterUnits="userSpaceOnUse" color-interpolation-filters="sRGB">
<feFlood flood-opacity="0" result="BackgroundImageFix"/>
<feColorMatrix in="SourceAlpha" type="matrix" values="0 0 0 0 0 0 0 0 0 0 0 0 0 0 0 0 0 0 127 0" result="hardAlpha"/>
<feOffset/>
<feGaussianBlur stdDeviation="10.1994"/>
<feColorMatrix type="matrix" values="0 0 0 0 0.558594 0 0 0 0 0.710156 0 0 0 0 0.9375 0 0 0 1 0"/>
<feBlend mode="normal" in2="BackgroundImageFix" result="effect1_dropShadow_1774_50"/>
<feColorMatrix in="SourceAlpha" type="matrix" values="0 0 0 0 0 0 0 0 0 0 0 0 0 0 0 0 0 0 127 0" result="hardAlpha"/>
<feOffset dy="4.07976"/>
<feGaussianBlur stdDeviation="30.5982"/>
<feColorMatrix type="matrix" values="0 0 0 0 0.670833 0 0 0 0 0.8025 0 0 0 0 1 0 0 0 0.6 0"/>
<feBlend mode="normal" in2="effect1_dropShadow_1774_50" result="effect2_dropShadow_1774_50"/>
<feBlend mode="normal" in="SourceGraphic" in2="effect2_dropShadow_1774_50" result="shape"/>
</filter>
<filter id="filter3_d_1774_50" x="203.412" y="268.5" width="48.0288" height="121.83" filterUnits="userSpaceOnUse" color-interpolation-filters="sRGB">
<feFlood flood-opacity="0" result="BackgroundImageFix"/>
<feColorMatrix in="SourceAlpha" type="matrix" values="0 0 0 0 0 0 0 0 0 0 0 0 0 0 0 0 0 0 127 0" result="hardAlpha"/>
<feOffset/>
<feGaussianBlur stdDeviation="4"/>
<feColorMatrix type="matrix" values="0 0 0 0 0.288889 0 0 0 0 0.357333 0 0 0 0 0.533333 0 0 0 0.74 0"/>
<feBlend mode="normal" in2="BackgroundImageFix" result="effect1_dropShadow_1774_50"/>
<feBlend mode="normal" in="SourceGraphic" in2="effect1_dropShadow_1774_50" result="shape"/>
</filter>
<filter id="filter4_d_1774_50" x="162.412" y="268.5" width="53.0142" height="104.141" filterUnits="userSpaceOnUse" color-interpolation-filters="sRGB">
<feFlood flood-opacity="0" result="BackgroundImageFix"/>
<feColorMatrix in="SourceAlpha" type="matrix" values="0 0 0 0 0 0 0 0 0 0 0 0 0 0 0 0 0 0 127 0" result="hardAlpha"/>
<feOffset/>
<feGaussianBlur stdDeviation="4"/>
<feColorMatrix type="matrix" values="0 0 0 0 0.288889 0 0 0 0 0.357333 0 0 0 0 0.533333 0 0 0 0.74 0"/>
<feBlend mode="normal" in2="BackgroundImageFix" result="effect1_dropShadow_1774_50"/>
<feBlend mode="normal" in="SourceGraphic" in2="effect1_dropShadow_1774_50" result="shape"/>
</filter>
<filter id="filter5_d_1774_50" x="285.412" y="268.5" width="48.0288" height="121.83" filterUnits="userSpaceOnUse" color-interpolation-filters="sRGB">
<feFlood flood-opacity="0" result="BackgroundImageFix"/>
<feColorMatrix in="SourceAlpha" type="matrix" values="0 0 0 0 0 0 0 0 0 0 0 0 0 0 0 0 0 0 127 0" result="hardAlpha"/>
<feOffset/>
<feGaussianBlur stdDeviation="4"/>
<feColorMatrix type="matrix" values="0 0 0 0 0.288889 0 0 0 0 0.357333 0 0 0 0 0.533333 0 0 0 0.74 0"/>
<feBlend mode="normal" in2="BackgroundImageFix" result="effect1_dropShadow_1774_50"/>
<feBlend mode="normal" in="SourceGraphic" in2="effect1_dropShadow_1774_50" result="shape"/>
</filter>
<filter id="filter6_d_1774_50" x="321.426" y="268.5" width="53.0142" height="104.141" filterUnits="userSpaceOnUse" color-interpolation-filters="sRGB">
<feFlood flood-opacity="0" result="BackgroundImageFix"/>
<feColorMatrix in="SourceAlpha" type="matrix" values="0 0 0 0 0 0 0 0 0 0 0 0 0 0 0 0 0 0 127 0" result="hardAlpha"/>
<feOffset/>
<feGaussianBlur stdDeviation="4"/>
<feColorMatrix type="matrix" values="0 0 0 0 0.288889 0 0 0 0 0.357333 0 0 0 0 0.533333 0 0 0 0.74 0"/>
<feBlend mode="normal" in2="BackgroundImageFix" result="effect1_dropShadow_1774_50"/>
<feBlend mode="normal" in="SourceGraphic" in2="effect1_dropShadow_1774_50" result="shape"/>
</filter>
<filter id="filter7_d_1774_50" x="224.912" y="242" width="87" height="178.505" filterUnits="userSpaceOnUse" color-interpolation-filters="sRGB">
<feFlood flood-opacity="0" result="BackgroundImageFix"/>
<feColorMatrix in="SourceAlpha" type="matrix" values="0 0 0 0 0 0 0 0 0 0 0 0 0 0 0 0 0 0 127 0" result="hardAlpha"/>
<feOffset/>
<feGaussianBlur stdDeviation="4"/>
<feColorMatrix type="matrix" values="0 0 0 0 0.288889 0 0 0 0 0.357333 0 0 0 0 0.533333 0 0 0 0.8 0"/>
<feBlend mode="normal" in2="BackgroundImageFix" result="effect1_dropShadow_1774_50"/>
<feBlend mode="normal" in="SourceGraphic" in2="effect1_dropShadow_1774_50" result="shape"/>
</filter>
<filter id="filter8_d_1774_50" x="136.912" y="67.3525" width="262" height="299.8" filterUnits="userSpaceOnUse" color-interpolation-filters="sRGB">
<feFlood flood-opacity="0" result="BackgroundImageFix"/>
<feColorMatrix in="SourceAlpha" type="matrix" values="0 0 0 0 0 0 0 0 0 0 0 0 0 0 0 0 0 0 127 0" result="hardAlpha"/>
<feOffset dy="8"/>
<feGaussianBlur stdDeviation="3"/>
<feColorMatrix type="matrix" values="0 0 0 0 0.141181 0 0 0 0 0.190317 0 0 0 0 0.316667 0 0 0 0.51 0"/>
<feBlend mode="normal" in2="BackgroundImageFix" result="effect1_dropShadow_1774_50"/>
<feBlend mode="normal" in="SourceGraphic" in2="effect1_dropShadow_1774_50" result="shape"/>
</filter>
<filter id="filter9_f_1774_50" x="161.112" y="88.5437" width="213.3" height="242.913" filterUnits="userSpaceOnUse" color-interpolation-filters="sRGB">
<feFlood flood-opacity="0" result="BackgroundImageFix"/>
<feBlend mode="normal" in="SourceGraphic" in2="BackgroundImageFix" result="shape"/>
<feGaussianBlur stdDeviation="0.15" result="effect1_foregroundBlur_1774_50"/>
</filter>
<filter id="filter10_i_1774_50" x="170.912" y="99.2256" width="195" height="221.939" filterUnits="userSpaceOnUse" color-interpolation-filters="sRGB">
<feFlood flood-opacity="0" result="BackgroundImageFix"/>
<feBlend mode="normal" in="SourceGraphic" in2="BackgroundImageFix" result="shape"/>
<feColorMatrix in="SourceAlpha" type="matrix" values="0 0 0 0 0 0 0 0 0 0 0 0 0 0 0 0 0 0 127 0" result="hardAlpha"/>
<feOffset/>
<feGaussianBlur stdDeviation="6.72414"/>
<feComposite in2="hardAlpha" operator="arithmetic" k2="-1" k3="1"/>
<feColorMatrix type="matrix" values="0 0 0 0 0.297222 0 0 0 0 0.329917 0 0 0 0 0.445833 0 0 0 1 0"/>
<feBlend mode="normal" in2="shape" result="effect1_innerShadow_1774_50"/>
</filter>
<filter id="filter11_d_1774_50" x="242" y="111" width="51.0747" height="213.911" filterUnits="userSpaceOnUse" color-interpolation-filters="sRGB">
<feFlood flood-opacity="0" result="BackgroundImageFix"/>
<feColorMatrix in="SourceAlpha" type="matrix" values="0 0 0 0 0 0 0 0 0 0 0 0 0 0 0 0 0 0 127 0" result="hardAlpha"/>
<feOffset dy="4"/>
<feGaussianBlur stdDeviation="2"/>
<feColorMatrix type="matrix" values="0 0 0 0 0.416875 0 0 0 0 0.431496 0 0 0 0 0.483333 0 0 0 0.35 0"/>
<feBlend mode="normal" in2="BackgroundImageFix" result="effect1_dropShadow_1774_50"/>
<feBlend mode="normal" in="SourceGraphic" in2="effect1_dropShadow_1774_50" result="shape"/>
</filter>
<filter id="filter12_d_1774_50" x="240.3" y="108" width="55.0747" height="191" filterUnits="userSpaceOnUse" color-interpolation-filters="sRGB">
<feFlood flood-opacity="0" result="BackgroundImageFix"/>
<feColorMatrix in="SourceAlpha" type="matrix" values="0 0 0 0 0 0 0 0 0 0 0 0 0 0 0 0 0 0 127 0" result="hardAlpha"/>
<feOffset dx="0.3" dy="3"/>
<feGaussianBlur stdDeviation="3"/>
<feColorMatrix type="matrix" values="0 0 0 0 0.625387 0 0 0 0 0.624375 0 0 0 0 0.675 0 0 0 0.2 0"/>
<feBlend mode="normal" in2="BackgroundImageFix" result="effect1_dropShadow_1774_50"/>
<feBlend mode="normal" in="SourceGraphic" in2="effect1_dropShadow_1774_50" result="shape"/>
</filter>
<filter id="filter13_d_1774_50" x="259.3" y="287" width="20.1382" height="38.9111" filterUnits="userSpaceOnUse" color-interpolation-filters="sRGB">
<feFlood flood-opacity="0" result="BackgroundImageFix"/>
<feColorMatrix in="SourceAlpha" type="matrix" values="0 0 0 0 0 0 0 0 0 0 0 0 0 0 0 0 0 0 127 0" result="hardAlpha"/>
<feOffset dx="0.3" dy="3"/>
<feGaussianBlur stdDeviation="3"/>
<feColorMatrix type="matrix" values="0 0 0 0 0.625387 0 0 0 0 0.624375 0 0 0 0 0.675 0 0 0 0.2 0"/>
<feBlend mode="normal" in2="BackgroundImageFix" result="effect1_dropShadow_1774_50"/>
<feBlend mode="normal" in="SourceGraphic" in2="effect1_dropShadow_1774_50" result="shape"/>
</filter>
<filter id="filter14_d_1774_50" x="259.217" y="285.133" width="19.7002" height="16" filterUnits="userSpaceOnUse" color-interpolation-filters="sRGB">
<feFlood flood-opacity="0" result="BackgroundImageFix"/>
<feColorMatrix in="SourceAlpha" type="matrix" values="0 0 0 0 0 0 0 0 0 0 0 0 0 0 0 0 0 0 127 0" result="hardAlpha"/>
<feOffset dx="0.3" dy="3"/>
<feGaussianBlur stdDeviation="3"/>
<feColorMatrix type="matrix" values="0 0 0 0 0.625387 0 0 0 0 0.624375 0 0 0 0 0.675 0 0 0 0.2 0"/>
<feBlend mode="normal" in2="BackgroundImageFix" result="effect1_dropShadow_1774_50"/>
<feBlend mode="normal" in="SourceGraphic" in2="effect1_dropShadow_1774_50" result="shape"/>
</filter>
<radialGradient id="paint0_radial_1774_50" cx="0" cy="0" r="1" gradientUnits="userSpaceOnUse" gradientTransform="translate(268.101 38.011) rotate(90) scale(20.1708)">
<stop stop-color="#E7ECFF"/>
<stop offset="0.979167" stop-color="#ABC3FF" stop-opacity="0.8825"/>
<stop offset="1" stop-color="#AACCFF" stop-opacity="0.88"/>
</radialGradient>
<linearGradient id="paint1_linear_1774_50" x1="266.7" y1="38.7115" x2="266.7" y2="338.472" gradientUnits="userSpaceOnUse">
<stop stop-color="#DEE7FF"/>
<stop offset="0.0722622" stop-color="#CCDDFF" stop-opacity="0.33"/>
<stop offset="1" stop-color="#98C6F0" stop-opacity="0"/>
</linearGradient>
<linearGradient id="paint2_linear_1774_50" x1="266.965" y1="0" x2="266.965" y2="166.139" gradientUnits="userSpaceOnUse">
<stop stop-color="#AACCFF" stop-opacity="0"/>
<stop offset="1" stop-color="#AACCFF" stop-opacity="0.3"/>
</linearGradient>
<linearGradient id="paint3_linear_1774_50" x1="446.484" y1="315.769" x2="302.603" y2="232.699" gradientUnits="userSpaceOnUse">
<stop stop-color="#AACCFF" stop-opacity="0"/>
<stop offset="1" stop-color="#AACCFF" stop-opacity="0.3"/>
</linearGradient>
<linearGradient id="paint4_linear_1774_50" x1="265.916" y1="420.852" x2="265.916" y2="254.712" gradientUnits="userSpaceOnUse">
<stop stop-color="#AACCFF" stop-opacity="0"/>
<stop offset="1" stop-color="#AACCFF" stop-opacity="0.3"/>
</linearGradient>
<linearGradient id="paint5_linear_1774_50" x1="86.6748" y1="316.295" x2="230.556" y2="233.226" gradientUnits="userSpaceOnUse">
<stop stop-color="#AACCFF" stop-opacity="0"/>
<stop offset="1" stop-color="#AACCFF" stop-opacity="0.3"/>
</linearGradient>
<linearGradient id="paint6_linear_1774_50" x1="446.484" y1="105.344" x2="302.603" y2="188.414" gradientUnits="userSpaceOnUse">
<stop stop-color="#AACCFF" stop-opacity="0"/>
<stop offset="1" stop-color="#AACCFF" stop-opacity="0.3"/>
</linearGradient>
<linearGradient id="paint7_linear_1774_50" x1="86.6748" y1="104.819" x2="230.556" y2="187.889" gradientUnits="userSpaceOnUse">
<stop stop-color="#AACCFF" stop-opacity="0"/>
<stop offset="1" stop-color="#AACCFF" stop-opacity="0.3"/>
</linearGradient>
<linearGradient id="paint8_linear_1774_50" x1="122.647" y1="190.294" x2="87.6618" y2="155.309" gradientUnits="userSpaceOnUse">
<stop stop-color="#C3C5D1"/>
<stop offset="0.875" stop-color="#F9F9F9"/>
</linearGradient>
<linearGradient id="paint9_linear_1774_50" x1="68.7353" y1="149" x2="102" y2="190.294" gradientUnits="userSpaceOnUse">
<stop stop-color="#F9F9F9"/>
<stop offset="0.378992" stop-color="#F9F9F9"/>
<stop offset="0.480868" stop-color="#DFDFE6"/>
<stop offset="0.729174" stop-color="#B8BAC6"/>
</linearGradient>
<linearGradient id="paint10_linear_1774_50" x1="146.735" y1="221.838" x2="111.75" y2="185.706" gradientUnits="userSpaceOnUse">
<stop stop-color="#C3C5D1"/>
<stop offset="0.875" stop-color="#F9F9F9"/>
</linearGradient>
<linearGradient id="paint11_linear_1774_50" x1="102.573" y1="185.706" x2="120.353" y2="221.838" gradientUnits="userSpaceOnUse">
<stop stop-color="#F4F4F5"/>
<stop offset="0.306027" stop-color="#F4F4F5"/>
<stop offset="0.462087" stop-color="#E8E9EC"/>
<stop offset="0.682292" stop-color="#DFDFE6"/>
<stop offset="1" stop-color="#B8BAC6"/>
</linearGradient>
<linearGradient id="paint12_linear_1774_50" x1="413.176" y1="190.294" x2="448.161" y2="155.309" gradientUnits="userSpaceOnUse">
<stop stop-color="#C3C5D1"/>
<stop offset="0.875" stop-color="#F9F9F9"/>
</linearGradient>
<linearGradient id="paint13_linear_1774_50" x1="467.088" y1="149" x2="433.823" y2="190.294" gradientUnits="userSpaceOnUse">
<stop stop-color="#F9F9F9"/>
<stop offset="0.378992" stop-color="#F9F9F9"/>
<stop offset="0.480868" stop-color="#DFDFE6"/>
<stop offset="0.729174" stop-color="#B8BAC6"/>
</linearGradient>
<linearGradient id="paint14_linear_1774_50" x1="389.088" y1="221.838" x2="424.073" y2="185.706" gradientUnits="userSpaceOnUse">
<stop stop-color="#C3C5D1"/>
<stop offset="0.875" stop-color="#F9F9F9"/>
</linearGradient>
<linearGradient id="paint15_linear_1774_50" x1="433.25" y1="185.706" x2="415.47" y2="221.838" gradientUnits="userSpaceOnUse">
<stop stop-color="#F4F4F5"/>
<stop offset="0.306027" stop-color="#F4F4F5"/>
<stop offset="0.462087" stop-color="#E8E9EC"/>
<stop offset="0.682292" stop-color="#DFDFE6"/>
<stop offset="1" stop-color="#B8BAC6"/>
</linearGradient>
<linearGradient id="paint16_linear_1774_50" x1="242.941" y1="348.032" x2="210.242" y2="353.094" gradientUnits="userSpaceOnUse">
<stop stop-color="#91B1E3"/>
<stop offset="0.208702" stop-color="#F0F6FF"/>
<stop offset="0.514766" stop-color="#A4BFE9"/>
<stop offset="0.728274" stop-color="#8BADE0"/>
<stop offset="0.971703" stop-color="#D0DEF3"/>
</linearGradient>
<linearGradient id="paint17_linear_1774_50" x1="215.183" y1="355.814" x2="231.391" y2="350.982" gradientUnits="userSpaceOnUse">
<stop stop-color="#FAFCFF"/>
<stop offset="0.309893" stop-color="#D7E6FC"/>
<stop offset="0.523799" stop-color="#C1D8F4"/>
<stop offset="0.77229" stop-color="#BBD6FF"/>
<stop offset="1" stop-color="white"/>
</linearGradient>
<linearGradient id="paint18_linear_1774_50" x1="169.912" y1="327" x2="208.521" y2="370.258" gradientUnits="userSpaceOnUse">
<stop stop-color="#91B1E3"/>
<stop offset="0.208702" stop-color="#F0F6FF"/>
<stop offset="0.648432" stop-color="#A4BFE9"/>
<stop offset="0.780206" stop-color="#8BADE0"/>
<stop offset="0.971703" stop-color="#93B3E4"/>
</linearGradient>
<linearGradient id="paint19_linear_1774_50" x1="174.411" y1="335" x2="193.537" y2="329.298" gradientUnits="userSpaceOnUse">
<stop stop-color="#FAFCFF"/>
<stop offset="0.309893" stop-color="#D7E6FC"/>
<stop offset="0.523799" stop-color="#C1D8F4"/>
<stop offset="0.77229" stop-color="#BBD6FF"/>
<stop offset="1" stop-color="white"/>
</linearGradient>
<linearGradient id="paint20_linear_1774_50" x1="293.912" y1="348.032" x2="326.611" y2="353.094" gradientUnits="userSpaceOnUse">
<stop stop-color="#91B1E3"/>
<stop offset="0.208702" stop-color="#F0F6FF"/>
<stop offset="0.514766" stop-color="#A4BFE9"/>
<stop offset="0.728274" stop-color="#8BADE0"/>
<stop offset="0.971703" stop-color="#D0DEF3"/>
</linearGradient>
<linearGradient id="paint21_linear_1774_50" x1="321.67" y1="355.814" x2="305.462" y2="350.982" gradientUnits="userSpaceOnUse">
<stop stop-color="#FAFCFF"/>
<stop offset="0.309893" stop-color="#D7E6FC"/>
<stop offset="0.523799" stop-color="#C1D8F4"/>
<stop offset="0.77229" stop-color="#BBD6FF"/>
<stop offset="1" stop-color="white"/>
</linearGradient>
<linearGradient id="paint22_linear_1774_50" x1="366.941" y1="327" x2="328.332" y2="370.258" gradientUnits="userSpaceOnUse">
<stop stop-color="#91B1E3"/>
<stop offset="0.208702" stop-color="#F0F6FF"/>
<stop offset="0.648432" stop-color="#A4BFE9"/>
<stop offset="0.780206" stop-color="#8BADE0"/>
<stop offset="0.971703" stop-color="#93B3E4"/>
</linearGradient>
<linearGradient id="paint23_linear_1774_50" x1="362.441" y1="335" x2="343.316" y2="329.298" gradientUnits="userSpaceOnUse">
<stop stop-color="#FAFCFF"/>
<stop offset="0.309893" stop-color="#D7E6FC"/>
<stop offset="0.523799" stop-color="#C1D8F4"/>
<stop offset="0.77229" stop-color="#BBD6FF"/>
<stop offset="1" stop-color="white"/>
</linearGradient>
<linearGradient id="paint24_linear_1774_50" x1="233.912" y1="365.5" x2="305.122" y2="380.705" gradientUnits="userSpaceOnUse">
<stop stop-color="#91B1E3"/>
<stop offset="0.208702" stop-color="#F0F6FF"/>
<stop offset="0.648432" stop-color="#A4BFE9"/>
<stop offset="0.780206" stop-color="#8BADE0"/>
<stop offset="0.971703" stop-color="#93B3E4"/>
</linearGradient>
<linearGradient id="paint25_linear_1774_50" x1="296.009" y1="378.1" x2="263.489" y2="362.193" gradientUnits="userSpaceOnUse">
<stop stop-color="#FAFCFF"/>
<stop offset="0.309893" stop-color="#D7E6FC"/>
<stop offset="0.523799" stop-color="#C1D8F4"/>
<stop offset="0.77229" stop-color="#BBD6FF"/>
<stop offset="1" stop-color="white"/>
</linearGradient>
<linearGradient id="paint26_linear_1774_50" x1="267.909" y1="386" x2="267.909" y2="402.95" gradientUnits="userSpaceOnUse">
<stop stop-color="#6A88C3"/>
<stop offset="0.479167" stop-color="#E4EFFD"/>
<stop offset="1" stop-color="#E1ECFD"/>
</linearGradient>
<linearGradient id="paint27_linear_1774_50" x1="264.18" y1="386.435" x2="264.18" y2="399.962" gradientUnits="userSpaceOnUse">
<stop stop-color="#E2F5FF" stop-opacity="0"/>
<stop offset="0.479167" stop-color="#B6CAFE"/>
<stop offset="1" stop-color="#CCD7FF"/>
</linearGradient>
<linearGradient id="paint28_linear_1774_50" x1="271.64" y1="386.435" x2="271.64" y2="399.962" gradientUnits="userSpaceOnUse">
<stop stop-color="#E2F5FF" stop-opacity="0"/>
<stop offset="0.479167" stop-color="#B6CAFE"/>
<stop offset="1" stop-color="#CCD7FF"/>
</linearGradient>
<linearGradient id="paint29_linear_1774_50" x1="266.856" y1="400.907" x2="255.58" y2="402.242" gradientUnits="userSpaceOnUse">
<stop stop-color="#C9DEFC"/>
<stop offset="0.309893" stop-color="#ECF4FF"/>
<stop offset="0.523799" stop-color="#EAF6FF"/>
<stop offset="0.613641" stop-color="#CCE7FF"/>
<stop offset="1" stop-color="#CEE4F9"/>
</linearGradient>
<linearGradient id="paint30_linear_1774_50" x1="215.412" y1="100" x2="327.912" y2="323.5" gradientUnits="userSpaceOnUse">
<stop stop-color="#FAFAFA"/>
<stop offset="1" stop-color="#C2C4CD"/>
</linearGradient>
<linearGradient id="paint31_linear_1774_50" x1="214.412" y1="118.5" x2="311.412" y2="297.5" gradientUnits="userSpaceOnUse">
<stop stop-color="#CDCFD6"/>
<stop offset="1" stop-color="#EFEFF1"/>
</linearGradient>
<linearGradient id="paint32_linear_1774_50" x1="224.912" y1="112" x2="329.412" y2="300" gradientUnits="userSpaceOnUse">
<stop stop-color="#DDDFE2"/>
<stop offset="1" stop-color="white"/>
</linearGradient>
<radialGradient id="paint33_radial_1774_50" cx="0" cy="0" r="1" gradientUnits="userSpaceOnUse" gradientTransform="translate(268.412 210.195) rotate(90) scale(113.195 97.5)">
<stop stop-color="#F5F7FF"/>
<stop offset="1" stop-color="#B3B5C5"/>
</radialGradient>
<linearGradient id="paint34_linear_1774_50" x1="268.412" y1="92.5176" x2="268.412" y2="327.862" gradientUnits="userSpaceOnUse">
<stop stop-color="white"/>
<stop offset="1" stop-color="#F2EDED" stop-opacity="0"/>
</linearGradient>
<linearGradient id="paint35_linear_1774_50" x1="148.037" y1="113.81" x2="265.709" y2="317.625" gradientUnits="userSpaceOnUse">
<stop stop-color="white"/>
<stop offset="1" stop-color="#F2EDED" stop-opacity="0"/>
</linearGradient>
<linearGradient id="paint36_linear_1774_50" x1="380.02" y1="113.811" x2="262.347" y2="317.625" gradientUnits="userSpaceOnUse">
<stop stop-color="white"/>
<stop offset="1" stop-color="#F2EDED" stop-opacity="0"/>
</linearGradient>
<linearGradient id="paint37_linear_1774_50" x1="268.412" y1="251.656" x2="267.823" y2="315.534" gradientUnits="userSpaceOnUse">
<stop stop-color="white" stop-opacity="0"/>
<stop offset="1" stop-color="#D0DBFF"/>
</linearGradient>
<linearGradient id="paint38_linear_1774_50" x1="264.126" y1="66.1304" x2="296.203" y2="68.4763" gradientUnits="userSpaceOnUse">
<stop offset="0.168737" stop-color="#F4F3F8"/>
<stop offset="0.360439" stop-color="white"/>
<stop offset="0.451944" stop-color="white"/>
<stop offset="0.627859" stop-color="#E7E6EE"/>
<stop offset="0.80404" stop-color="#F3F3F3"/>
</linearGradient>
<linearGradient id="paint39_linear_1774_50" x1="284.118" y1="175.119" x2="293.035" y2="176.102" gradientUnits="userSpaceOnUse">
<stop offset="0.168737" stop-color="#F4F3F8"/>
<stop offset="0.360439" stop-color="white"/>
<stop offset="0.451944" stop-color="white"/>
<stop offset="0.627859" stop-color="#E7E6EE"/>
<stop offset="0.80404" stop-color="#F3F3F3"/>
</linearGradient>
<linearGradient id="paint40_linear_1774_50" x1="250.4" y1="180.807" x2="259.977" y2="182.46" gradientUnits="userSpaceOnUse">
<stop offset="0.168737" stop-color="#F4F3F8"/>
<stop offset="0.360439" stop-color="white"/>
<stop offset="0.451944" stop-color="white"/>
<stop offset="0.627859" stop-color="#E7E6EE"/>
<stop offset="0.80404" stop-color="#F3F3F3"/>
</linearGradient>
<linearGradient id="paint41_linear_1774_50" x1="280.595" y1="135.041" x2="289.711" y2="137.16" gradientUnits="userSpaceOnUse">
<stop offset="0.168737" stop-color="#F4F3F8"/>
<stop offset="0.360439" stop-color="white"/>
<stop offset="0.451944" stop-color="white"/>
<stop offset="0.627859" stop-color="#E7E6EE"/>
<stop offset="0.80404" stop-color="#F3F3F3"/>
</linearGradient>
<linearGradient id="paint42_linear_1774_50" x1="277.238" y1="115.307" x2="285.342" y2="116.831" gradientUnits="userSpaceOnUse">
<stop offset="0.168737" stop-color="#F4F3F8"/>
<stop offset="0.360439" stop-color="white"/>
<stop offset="0.451944" stop-color="white"/>
<stop offset="0.627859" stop-color="#E7E6EE"/>
<stop offset="0.80404" stop-color="#F3F3F3"/>
</linearGradient>
<linearGradient id="paint43_linear_1774_50" x1="268.424" y1="283.254" x2="274.466" y2="283.81" gradientUnits="userSpaceOnUse">
<stop offset="0.168737" stop-color="#F4F3F8"/>
<stop offset="0.360439" stop-color="white"/>
<stop offset="0.451944" stop-color="white"/>
<stop offset="0.627859" stop-color="#E7E6EE"/>
<stop offset="0.80404" stop-color="#F3F3F3"/>
</linearGradient>
<linearGradient id="paint44_linear_1774_50" x1="273.836" y1="285.212" x2="282.164" y2="286.344" gradientUnits="userSpaceOnUse">
<stop offset="0.168737" stop-color="#F4F3F8"/>
<stop offset="0.360439" stop-color="white"/>
<stop offset="0.451944" stop-color="white"/>
<stop offset="0.627859" stop-color="#E7E6EE"/>
<stop offset="0.80404" stop-color="#F3F3F3"/>
</linearGradient>
<linearGradient id="paint45_linear_1774_50" x1="268.108" y1="288.529" x2="273.07" y2="293.053" gradientUnits="userSpaceOnUse">
<stop offset="0.168737" stop-color="#F4F3F8"/>
<stop offset="0.360439" stop-color="white"/>
<stop offset="0.451944" stop-color="white"/>
<stop offset="0.627859" stop-color="#E7E6EE"/>
<stop offset="0.80404" stop-color="#F3F3F3"/>
</linearGradient>
<linearGradient id="paint46_linear_1774_50" x1="268.424" y1="304.766" x2="274.146" y2="306.223" gradientUnits="userSpaceOnUse">
<stop offset="0.168737" stop-color="#F4F3F8"/>
<stop offset="0.360439" stop-color="white"/>
<stop offset="0.451944" stop-color="white"/>
<stop offset="0.627859" stop-color="#E7E6EE"/>
<stop offset="0.80404" stop-color="#F3F3F3"/>
</linearGradient>
<linearGradient id="paint47_linear_1774_50" x1="268.158" y1="287.13" x2="272.452" y2="289.643" gradientUnits="userSpaceOnUse">
<stop offset="0.168737" stop-color="#F4F3F8"/>
<stop offset="0.360439" stop-color="white"/>
<stop offset="0.451944" stop-color="white"/>
<stop offset="0.627859" stop-color="#E7E6EE"/>
<stop offset="0.80404" stop-color="#F3F3F3"/>
</linearGradient>
</defs>
</svg>
