<svg width="1000" height="1000" viewBox="0 0 1000 1000" fill="none" xmlns="http://www.w3.org/2000/svg">
<path d="M299.83 699.73H752.48C814.52 640.22 853.15 556.49 853.15 463.73C853.15 283.14 706.75 136.74 526.16 136.74C345.57 136.74 199.17 283.14 199.17 463.73C199.16 556.49 237.79 640.22 299.83 699.73Z" fill="url(#paint0_linear_17_7)"/>
<path d="M760.52 153.28C712.06 153.28 672.77 192.57 672.77 241.03C672.77 258.87 678.11 275.46 687.25 289.31C674.86 295.58 661.89 300.69 648.54 304.51C665.22 308.01 682.23 307.54 698.07 302.67C713.98 318.78 736.07 328.78 760.51 328.78C808.97 328.78 848.26 289.49 848.26 241.03C848.27 192.57 808.98 153.28 760.52 153.28Z" fill="url(#paint1_linear_17_7)"/>
<path d="M817.23 260.82L816.93 257.74L814.3 230.44C813.15 218.49 803.11 209.37 791.1 209.37H731.1C719.09 209.37 709.05 218.49 707.9 230.44L704.97 260.82C704.09 269.99 711.29 277.92 720.5 277.92C725.34 277.92 729.9 275.68 732.85 271.85L743.74 257.74H778.43L789.32 271.85C792.28 275.68 796.84 277.92 801.68 277.92C810.9 277.92 818.11 269.99 817.23 260.82ZM730.81 217.92C730.81 217.25 731.36 216.7 732.03 216.7H739.86C740.53 216.7 741.08 217.25 741.08 217.92V225.68C739.08 227.68 737.95 228.81 735.95 230.81C733.95 228.81 732.82 227.68 730.82 225.68V217.92H730.81ZM720.38 238.61C719.71 238.61 719.16 238.06 719.16 237.39V229.56C719.16 228.89 719.71 228.34 720.38 228.34H728.14C730.14 230.34 731.27 231.47 733.27 233.47C731.27 235.47 730.14 236.6 728.14 238.6H720.38V238.61ZM741.07 249.05C741.07 249.72 740.52 250.27 739.85 250.27H732.02C731.35 250.27 730.8 249.72 730.8 249.05V241.29C732.8 239.29 733.93 238.16 735.93 236.16C737.93 238.16 739.06 239.29 741.06 241.29V249.05H741.07ZM752.72 237.4C752.72 238.07 752.17 238.62 751.5 238.62H743.74C741.74 236.62 740.61 235.49 738.61 233.49C740.61 231.49 741.74 230.36 743.74 228.36H751.5C752.17 228.36 752.72 228.91 752.72 229.58V237.4ZM775.47 239.53C772.13 239.53 769.42 236.82 769.42 233.48C769.42 230.14 772.13 227.43 775.47 227.43C778.81 227.43 781.52 230.14 781.52 233.48C781.52 236.82 778.8 239.53 775.47 239.53ZM787.63 251.7C784.29 251.7 781.58 248.99 781.58 245.65C781.58 242.31 784.29 239.6 787.63 239.6C790.97 239.6 793.68 242.31 793.68 245.65C793.68 248.99 790.97 251.7 787.63 251.7ZM787.63 227.37C784.29 227.37 781.58 224.66 781.58 221.32C781.58 217.98 784.29 215.27 787.63 215.27C790.97 215.27 793.68 217.98 793.68 221.32C793.68 224.65 790.97 227.37 787.63 227.37ZM799.8 239.53C796.46 239.53 793.75 236.82 793.75 233.48C793.75 230.14 796.46 227.43 799.8 227.43C803.14 227.43 805.85 230.14 805.85 233.48C805.85 236.82 803.14 239.53 799.8 239.53Z" fill="white"/>
<path opacity="0.1" d="M722.07 319.92C733.68 325.59 746.73 328.78 760.52 328.78C766.82 328.78 772.97 328.1 778.89 326.84C770.88 318.02 759.33 312.48 746.48 312.48C737.44 312.48 729.04 315.22 722.07 319.92Z" fill="url(#paint2_linear_17_7)"/>
<path d="M795.965 369.34C801.589 345.834 787.093 322.22 763.587 316.596C740.081 310.972 716.467 325.468 710.843 348.974C705.219 372.48 719.715 396.094 743.221 401.718C766.727 407.342 790.341 392.845 795.965 369.34Z" fill="white"/>
<path d="M765.59 369.48V386.81L753.37 381.02L741.15 386.81V369.48C741.49 369.93 741.82 370.55 742.14 371.17C742.96 372.73 743.88 374.5 745.72 375.1C746.1 375.22 746.51 375.29 746.93 375.29C748.28 375.29 749.56 374.66 750.79 374.05C751.73 373.59 752.7 373.11 753.37 373.11C754.04 373.11 755.01 373.59 755.95 374.05C757.18 374.66 758.46 375.29 759.81 375.29C760.23 375.29 760.64 375.23 761.02 375.1C762.86 374.5 763.78 372.73 764.6 371.17C764.92 370.55 765.25 369.93 765.59 369.48ZM770.79 365.47C769.55 367.17 765.98 366.59 764.28 367.83C762.6 369.05 762.05 372.64 760.03 373.3C758.08 373.93 755.54 371.37 753.38 371.37C751.22 371.37 748.68 373.93 746.72 373.3C744.7 372.64 744.15 369.06 742.47 367.83C740.77 366.59 737.19 367.17 735.96 365.47C734.74 363.79 736.38 360.57 735.73 358.55C735.1 356.6 731.85 354.98 731.85 352.81C731.85 350.65 735.09 349.02 735.73 347.07C736.39 345.05 734.74 341.83 735.96 340.15C737.2 338.45 740.77 339.03 742.47 337.79C744.15 336.57 744.7 332.98 746.72 332.32C748.67 331.69 751.21 334.25 753.37 334.25C755.53 334.25 758.07 331.69 760.02 332.32C762.04 332.98 762.59 336.56 764.27 337.79C765.97 339.03 769.55 338.45 770.78 340.15C772 341.83 770.36 345.05 771.01 347.07C771.64 349.02 774.89 350.64 774.89 352.81C774.89 354.97 771.64 356.59 771.01 358.55C770.37 360.57 772.02 363.78 770.79 365.47ZM763.79 349.42L756.59 348.37L753.37 341.85L750.15 348.37L742.95 349.42L748.16 354.5L746.93 361.67L753.37 358.28L759.81 361.67L758.58 354.5L763.79 349.42Z" fill="url(#paint3_linear_17_7)"/>
<path d="M590.09 333.88C581.36 333.88 574.29 340.96 574.29 349.68C574.29 355.74 577.7 358.33 582.71 359.34V365.18C582.71 366.28 583.6 367.16 584.7 367.16C585.8 367.16 586.69 366.27 586.69 365.18V363.19H588.27V365.18C588.27 366.28 589.16 367.16 590.26 367.16C591.36 367.16 592.25 366.27 592.25 365.18V363.19H593.83V365.18C593.83 366.28 594.72 367.16 595.82 367.16C596.92 367.16 597.8 366.27 597.8 365.18V359.28C602.64 358.22 605.91 355.62 605.91 349.68C605.9 340.96 598.82 333.88 590.09 333.88ZM583.81 354.94C581.06 354.94 578.82 352.71 578.82 349.95C578.82 347.19 581.05 344.96 583.81 344.96C586.56 344.96 588.8 347.19 588.8 349.95C588.8 352.71 586.57 354.94 583.81 354.94ZM596.37 354.94C593.62 354.94 591.38 352.71 591.38 349.95C591.38 347.19 593.61 344.96 596.37 344.96C599.12 344.96 601.36 347.19 601.36 349.95C601.36 352.71 599.12 354.94 596.37 354.94Z" fill="white"/>
<path d="M717.33 542.86C715.65 536.72 710.88 531.9 704.78 530.19C704.19 530.02 704.19 529.2 704.78 529.03C710.88 527.32 715.66 522.51 717.33 516.36C717.49 515.76 718.31 515.76 718.48 516.36C720.16 522.51 724.93 527.32 731.03 529.03C731.62 529.2 731.62 530.02 731.03 530.19C724.93 531.9 720.15 536.71 718.48 542.86C718.31 543.47 717.49 543.47 717.33 542.86Z" fill="white"/>
<path d="M738.07 558.35C737.2 555.18 734.74 552.69 731.59 551.81C731.28 551.72 731.28 551.3 731.59 551.21C734.74 550.33 737.21 547.84 738.07 544.67C738.15 544.36 738.58 544.36 738.66 544.67C739.53 547.84 741.99 550.33 745.14 551.21C745.45 551.3 745.45 551.72 745.14 551.81C741.99 552.69 739.52 555.18 738.66 558.35C738.58 558.66 738.15 558.66 738.07 558.35Z" fill="white"/>
<path d="M735.37 128.22C733.69 122.08 728.92 117.26 722.82 115.55C722.23 115.38 722.23 114.56 722.82 114.39C728.92 112.68 733.7 107.87 735.37 101.72C735.53 101.12 736.35 101.12 736.52 101.72C738.2 107.87 742.97 112.68 749.07 114.39C749.66 114.56 749.66 115.38 749.07 115.55C742.97 117.26 738.19 122.07 736.52 128.22C736.35 128.82 735.53 128.82 735.37 128.22Z" fill="white"/>
<path d="M669.93 174.18C669.06 171.01 666.6 168.52 663.45 167.64C663.14 167.55 663.14 167.13 663.45 167.04C666.6 166.16 669.07 163.67 669.93 160.5C670.01 160.19 670.44 160.19 670.52 160.5C671.39 163.67 673.85 166.16 677 167.04C677.31 167.13 677.31 167.55 677 167.64C673.85 168.52 671.38 171.01 670.52 174.18C670.44 174.49 670.02 174.49 669.93 174.18Z" fill="white"/>
<path d="M817.34 416.02C817.34 422.1 812.41 427.04 806.32 427.04C800.24 427.04 795.3 422.11 795.3 416.02C795.3 409.94 800.23 405 806.32 405C812.41 405.01 817.34 409.94 817.34 416.02Z" fill="url(#paint4_linear_17_7)"/>
<path d="M302.395 363.25C310.43 314.679 277.568 268.792 228.997 260.757C180.426 252.723 134.539 285.584 126.504 334.155C118.47 382.726 151.331 428.614 199.902 436.648C248.473 444.683 294.361 411.821 302.395 363.25Z" fill="white"/>
<path d="M214.78 395.33L199.61 385.52C161.83 361.1 161.83 343.62 161.83 337.04C161.83 321.61 174.34 309.09 189.78 309.09C200.73 309.09 210.2 315.38 214.79 324.55C219.38 315.39 228.85 309.09 239.8 309.09C255.23 309.09 267.75 321.6 267.75 337.04C267.75 343.62 267.75 361.09 229.97 385.52L214.78 395.33Z" fill="url(#paint5_linear_17_7)"/>
<path d="M336.82 358.11C347.391 358.11 355.96 349.541 355.96 338.97C355.96 328.399 347.391 319.83 336.82 319.83C326.249 319.83 317.68 328.399 317.68 338.97C317.68 349.541 326.249 358.11 336.82 358.11Z" fill="white" fill-opacity="0.6"/>
<path d="M385.4 328.84C385.4 333.81 381.37 337.84 376.4 337.84C371.43 337.84 367.4 333.81 367.4 328.84C367.4 323.87 371.43 319.84 376.4 319.84C381.37 319.83 385.4 323.86 385.4 328.84Z" fill="white" fill-opacity="0.4"/>
<path opacity="0.1" d="M214.45 259.58C211.26 259.58 208.12 259.75 205.01 260.08C214.19 283.8 237.21 300.64 264.18 300.64C272.11 300.64 279.68 299.17 286.68 296.52C270.49 274.15 244.17 259.58 214.45 259.58Z" fill="url(#paint6_linear_17_7)"/>
<path d="M271.61 296.15C306.647 296.15 335.05 267.747 335.05 232.71C335.05 197.673 306.647 169.27 271.61 169.27C236.573 169.27 208.17 197.673 208.17 232.71C208.17 267.747 236.573 296.15 271.61 296.15Z" fill="url(#paint7_linear_17_7)"/>
<path d="M252.78 475.53C254.93 477.73 257.93 479.1 261.24 479.1C264.56 479.1 267.55 477.73 269.7 475.53C268.7 470.78 266.62 467.62 263.78 466.46C265.15 465.61 266.07 464.09 266.07 462.35C266.07 459.68 263.9 457.51 261.23 457.51C258.56 457.51 256.39 459.68 256.39 462.35C256.39 464.09 257.31 465.61 258.68 466.46C255.86 467.62 253.78 470.79 252.78 475.53Z" fill="white"/>
<path d="M205.39 470.38C193.22 470.38 183.36 480.24 183.36 492.41C183.36 504.58 193.22 514.44 205.39 514.44C217.56 514.44 227.42 504.57 227.42 492.41C227.42 480.24 217.56 470.38 205.39 470.38Z" fill="url(#paint8_linear_17_7)"/>
<path d="M199.12 492.47C199.12 494.13 199.78 495.77 200.93 497.02C202.1 498.31 203.69 499.12 205.48 499.15C207.24 499.23 208.73 498.78 210.13 497.58C210.91 496.97 211.6 496.55 212.31 496.55C212.9 496.55 213.46 496.8 213.99 497.26C214.5 497.73 214.77 498.31 214.77 499.02C214.75 499.73 214.43 500.39 213.87 500.96C211.91 502.99 209.03 504.09 205.92 504.09C202.71 504.09 199.75 502.87 197.6 500.74C195.43 498.66 194.13 495.7 194.13 492.55V492.53C194.13 492.51 194.13 492.51 194.15 492.51V492.49C194.13 492.49 194.13 492.49 194.13 492.47C194.13 489.26 195.43 486.35 197.6 484.18C199.75 482.03 202.71 480.75 205.92 480.75C209.03 480.75 211.91 481.85 213.87 483.88C214.43 484.44 214.75 485.1 214.77 485.81C214.77 486.52 214.5 487.13 213.99 487.6C213.45 488.06 212.91 488.31 212.35 488.31C211.59 488.31 210.91 487.87 210.12 487.26C208.75 486.16 207.31 485.69 205.62 485.69C203.84 485.69 202.15 486.52 200.95 487.82C199.78 489.09 199.12 490.76 199.12 492.42L199.1 492.47H199.12Z" fill="white"/>
<path d="M165.84 234.3C164.16 228.16 159.39 223.34 153.29 221.63C152.7 221.46 152.7 220.64 153.29 220.47C159.39 218.76 164.17 213.95 165.84 207.8C166 207.2 166.82 207.2 166.99 207.8C168.67 213.95 173.44 218.76 179.54 220.47C180.13 220.64 180.13 221.46 179.54 221.63C173.44 223.34 168.66 228.15 166.99 234.3C166.83 234.9 166.01 234.9 165.84 234.3Z" fill="white"/>
<path d="M183.43 249.47C182.56 246.3 180.1 243.81 176.95 242.93C176.64 242.84 176.64 242.42 176.95 242.33C180.1 241.45 182.57 238.96 183.43 235.79C183.51 235.48 183.94 235.48 184.02 235.79C184.89 238.96 187.35 241.45 190.5 242.33C190.81 242.42 190.81 242.84 190.5 242.93C187.35 243.81 184.88 246.3 184.02 249.47C183.94 249.78 183.52 249.78 183.43 249.47Z" fill="white"/>
<path d="M156.04 460.58C162.065 460.58 166.95 455.695 166.95 449.67C166.95 443.645 162.065 438.76 156.04 438.76C150.014 438.76 145.13 443.645 145.13 449.67C145.13 455.695 150.014 460.58 156.04 460.58Z" fill="url(#paint9_linear_17_7)"/>
<path d="M337.69 395.33C337.69 400.49 333.51 404.67 328.35 404.67C323.19 404.67 319.01 400.49 319.01 395.33C319.01 390.17 323.19 385.99 328.35 385.99C333.51 385.99 337.69 390.18 337.69 395.33Z" fill="url(#paint10_linear_17_7)"/>
<path d="M587.42 497.75C540.12 478.38 466.79 484.51 438.44 497.75C410.09 510.99 492.78 590.14 513.75 588.46C534.72 586.79 613.14 508.28 587.42 497.75Z" fill="#25215F"/>
<path d="M420.94 553.49C423.83 560.61 427 567.61 430.16 574.68C437.53 591.18 444.66 607.91 456.7 620.45C482.78 647.63 521.51 661.34 555.53 652.56C594.91 642.39 620.83 610.65 640.31 572.57C597.58 550.4 538.67 519.1 538.68 515.09C538.7 508.8 542.56 462.95 542.56 462.95H482.33C482.33 462.95 486.19 508.8 486.21 515.09C486.22 518.02 454.63 535.59 420.94 553.49Z" fill="url(#paint11_linear_17_7)"/>
<path d="M539.66 499.12C521.39 503.65 501.84 501.17 484.7 492.32C483.61 478.2 482.33 462.94 482.33 462.94H542.56C542.55 462.94 540.81 483.63 539.66 499.12Z" fill="url(#paint12_linear_17_7)"/>
<path d="M566.79 533.3C565.56 532.61 564.35 531.92 563.17 531.26C550.14 545.34 522.87 573.55 513.11 573.99C505.15 574.35 474.95 545.07 461.35 531.46C460.16 532.14 458.92 532.83 457.67 533.54C464.53 551.86 483 592.1 512.91 592.02C540.8 591.93 559.47 552.25 566.79 533.3Z" fill="url(#paint13_linear_17_7)"/>
<path opacity="0.3" d="M732.34 823.46L731.56 822.64L732.34 823.46Z" fill="url(#paint14_linear_17_7)"/>
<path d="M683 904L656.5 601L666 583L588.151 523C588.151 523 526.364 573.464 512.566 573.221C496.12 572.935 438.039 525.51 438.039 525.51L379.5 566.5C371.127 570.326 359.5 583 359.5 583L367.5 600.5L332 903.993H683V904Z" fill="url(#paint15_linear_17_7)"/>
<path d="M666.12 582.76C673.96 591.48 673.1 613.06 673.1 613.06L740.91 721.5H652.39L643.85 611.9L666.12 582.76Z" fill="url(#paint16_linear_17_7)"/>
<path opacity="0.2" d="M652.39 721.5H681.66C663.27 689.53 650.55 654.31 644.32 617.96L652.39 721.5Z" fill="url(#paint17_linear_17_7)"/>
<path d="M673.54 613.78C671.72 634.82 677.14 656.48 688.89 674.04C699.57 690 715.37 702.4 733.27 709.3L673.54 613.78Z" fill="url(#paint18_linear_17_7)"/>
<path d="M359.75 582.76C351.91 591.48 352.77 613.06 352.77 613.06L284.96 721.5H373.47L382.01 611.9L359.75 582.76Z" fill="url(#paint19_linear_17_7)"/>
<path opacity="0.2" d="M373.48 721.5H344.2C362.59 689.53 375.31 654.31 381.54 617.96L373.48 721.5Z" fill="url(#paint20_linear_17_7)"/>
<path d="M352.32 613.78C354.14 634.82 348.72 656.48 336.97 674.04C326.3 690 310.49 702.4 292.59 709.3L352.32 613.78Z" fill="url(#paint21_linear_17_7)"/>
<path opacity="0.5" d="M671.5 908L648.36 613.16L657.86 596.91L656.76 577.17L638.81 566.44C627.14 634.56 610.18 700.89 588.24 763.78C580.15 786.96 570.17 811.31 553.26 821.33C536.19 831.45 516.5 824.18 499.49 813.86C473.75 798.24 450.26 775.53 430.38 747.74C413.04 723.49 390.14 687.61 383.65 653.46C378.51 626.39 391.27 637.91 401.39 646.87C414.78 658.72 428.63 669.56 442.84 679.34C457.05 689.12 471.63 697.84 486.5 705.45C499.06 711.88 518.83 714.21 529.79 724.16C480.6 679.51 437.95 620.9 404.6 553.22C395.74 558.21 387.64 562.91 382.13 566.43C377.59 569.32 371.42 573.86 366.7 577.42L365.59 592.77L377.5 613.15L353.5 902.44L671.5 908ZM599.57 902.44C558.22 921.51 518.25 901.24 479.02 874.75C439.79 848.26 412.96 800.3 397.64 742.96C453.71 819.38 524.02 874.91 599.57 902.44Z" fill="url(#paint22_linear_17_7)"/>
<path d="M437.18 373.55C437.18 373.55 424.84 351.58 406.9 364.07C388.96 376.57 408.84 422.39 428.39 421.58C438.09 421.18 441.63 406.66 441.63 406.66L437.18 373.55Z" fill="url(#paint23_linear_17_7)"/>
<path d="M408.33 377.31C420.2 381.34 429.79 392.54 431.37 405.09C431.64 407.24 431.37 409.53 430.18 411.33C428.99 413.14 426.77 414.34 424.66 413.91C421.68 413.32 420.1 410.03 419.39 407.07C418.16 401.97 418.14 396.58 419.34 391.48C416.88 387.07 412.34 380.36 408.33 377.31Z" fill="url(#paint24_linear_17_7)"/>
<path d="M437.18 373.55C437.18 373.55 424.84 351.58 406.9 364.07C404.76 365.56 403.17 367.54 402.04 369.85C405.87 368.39 410.05 367.71 414.1 367.85C422.2 368.15 429.88 371.04 437.3 374.46L437.18 373.55Z" fill="url(#paint25_linear_17_7)"/>
<path d="M588.69 373.55C588.69 373.55 601.03 351.58 618.97 364.07C636.91 376.57 617.03 422.39 597.48 421.58C587.78 421.18 584.24 406.66 584.24 406.66L588.69 373.55Z" fill="url(#paint26_linear_17_7)"/>
<path d="M617.54 377.31C605.67 381.34 596.08 392.54 594.5 405.09C594.23 407.24 594.5 409.53 595.69 411.33C596.88 413.14 599.1 414.34 601.21 413.91C604.19 413.32 605.77 410.03 606.48 407.07C607.71 401.97 607.73 396.58 606.53 391.48C608.99 387.07 613.53 380.36 617.54 377.31Z" fill="url(#paint27_linear_17_7)"/>
<path d="M588.69 373.55C588.69 373.55 601.03 351.58 618.97 364.07C621.11 365.56 622.7 367.54 623.83 369.85C620 368.39 615.82 367.71 611.77 367.85C603.67 368.15 595.99 371.04 588.57 374.46L588.69 373.55Z" fill="url(#paint28_linear_17_7)"/>
<path d="M512.91 252.78C442.27 252.78 424.02 329.93 424.02 329.93C424.02 329.93 433.92 429.42 443.62 447.49C446.52 452.89 471.56 493.89 512.91 493.89H512.95C554.3 493.89 579.34 452.89 582.24 447.49C591.94 429.42 601.84 329.93 601.84 329.93C601.84 329.93 583.59 252.78 512.95 252.78H512.91Z" fill="url(#paint29_linear_17_7)"/>
<path d="M483.8 425.41C482.49 426.44 480.7 427.38 478.95 427.13C478.55 427.07 478.16 426.87 477.99 426.53C477.65 425.83 478.7 424.91 479.22 424.53C480.08 423.91 481.11 423.56 482.13 423.22C483.01 422.93 484.23 422.75 484.63 423.53C484.98 424.18 484.4 424.93 483.8 425.41Z" fill="url(#paint30_linear_17_7)"/>
<path d="M551.49 434.31C552.05 436.09 551.17 437.5 548.46 435.25C547.94 434.82 547.41 434.36 547.09 433.77C546.78 433.18 546.73 432.43 547.16 431.92C547.75 431.21 549.01 431.31 549.77 431.89C550.64 432.55 551.23 433.47 551.49 434.31Z" fill="url(#paint31_linear_17_7)"/>
<path d="M481.33 425.28C481.33 425.28 480.45 445.1 491.83 454.98C499.59 461.72 519.74 465.14 529.87 458.54C544.28 449.16 548.64 433.67 548.64 433.67C548.64 433.67 537.67 439.13 517.2 436.05C496.81 432.98 490.84 432.72 481.33 425.28Z" fill="url(#paint32_linear_17_7)"/>
<path d="M547.79 434.05L542.09 435.71C536.82 436.85 528.45 437.75 517.18 436.05C500.32 433.51 489.45 430.32 482.15 425.97C482.15 425.97 481.62 439.32 489.85 446.83C493.33 450.01 499.9 453.44 508.77 454.6C514.93 455.41 523.72 456.01 531.93 451.89C541.1 447.31 547.79 434.05 547.79 434.05Z" fill="#7A336E"/>
<path d="M540.56 440.02C541.74 439.28 543.01 437.11 543.96 435.17L542.1 435.71C536.83 436.85 528.46 437.75 517.19 436.05C503.42 433.97 493.64 431.46 486.55 428.25C486.86 430.11 487.31 432.26 487.92 433.72C489.2 436.79 502.49 443.94 514.49 444.96C526.5 445.98 538.26 441.47 540.56 440.02Z" fill="white"/>
<path d="M548.63 433.67C527.31 443.42 499.43 440.52 481.33 425.28C495.23 431.43 504.18 429.17 519.73 431.43C526.4 432.4 535.06 436.18 548.63 433.67Z" fill="url(#paint33_linear_17_7)"/>
<path d="M503.22 253.29C440.59 259.93 424.02 329.94 424.02 329.94C424.02 329.94 426.88 358.7 431.04 388.1L435.24 390.78C439.19 382.97 438.97 373.8 438.94 365.05C438.91 356.3 439.32 346.99 444.25 339.75C449.28 332.35 458.54 327.07 467.32 328.75C468.27 317.15 480.18 310.19 491.76 309.02C503.35 307.85 514.73 312.46 524.98 317.98C535.23 323.5 545.07 330.09 556.21 333.47C571.14 338 587.75 335.83 601.45 328.43C598.92 319.34 583.72 271.56 539.94 257.01C536.01 256.12 532.04 255.37 528.04 254.78C519.84 253.57 511.52 253.07 503.22 253.29Z" fill="url(#paint34_linear_17_7)"/>
<path d="M431.34 362.24C431.78 353.08 435.37 344.1 441.37 337.17C447.37 330.24 455.73 326.87 467.31 328.74C469.7 314.82 478.44 305.69 488.94 301.91C499.45 298.12 511.95 298.98 522.68 302.07C518.03 293.53 508.84 288.27 499.42 285.86C479.67 280.8 457.4 287.24 443.41 302.07C429.44 316.89 425.14 342.82 431.34 362.24Z" fill="url(#paint35_linear_17_7)"/>
<path d="M565.75 347C573.06 349.5 580.1 358.86 580.1 358.86C580.7 360.88 580.79 406.68 580.79 406.68C580.79 406.68 542.92 413.65 531.08 399.21C531.08 399.21 519.55 370.11 525.27 334.65L565.75 347Z" fill="url(#paint36_linear_17_7)"/>
<path d="M575.05 386.92C575.05 386.92 565.65 403.39 552.38 404.25C539.12 405.1 534.62 394.12 534.62 394.12L575.05 386.92Z" fill="url(#paint37_linear_17_7)"/>
<path d="M533.39 343.99C526.35 344.1 523.34 334.91 526.53 330.09C550.11 330.65 567.54 338.63 577.89 352.6C578.78 354.67 579.2 356.78 580.09 358.86C566.64 351 553.04 343.68 533.39 343.99Z" fill="#25215F"/>
<path d="M575.05 386.92C575.05 386.92 563.62 367.39 548.14 366.94C533.76 366.52 530.69 377.78 531.53 382.59C532.36 387.4 575.05 386.92 575.05 386.92Z" fill="url(#paint38_linear_17_7)"/>
<path d="M575.05 386.92C575.05 386.92 567.51 399.22 552.43 401.78C537.57 404.3 534.33 394.79 533.53 391.86C532.73 388.93 533.47 378.94 539.86 376.7C546.26 374.44 557.67 366.95 575.05 386.92Z" fill="#FDEBED"/>
<path d="M531.53 382.58C535.82 371.95 546.2 366.68 558.68 370.94C563.17 372.47 569.01 377.1 575.06 386.91C562.84 373.49 550.36 372.62 540.5 378.32C537.35 380.14 533.18 384.12 533.54 391.84C533.54 391.85 531.39 384.37 531.53 382.58Z" fill="url(#paint39_linear_17_7)"/>
<mask id="mask0_17_7" style="mask-type:luminance" maskUnits="userSpaceOnUse" x="533" y="373" width="43" height="30">
<path d="M575.05 386.92C575.05 386.92 567.51 399.22 552.43 401.78C537.57 404.3 534.33 394.79 533.53 391.86C532.73 388.93 533.47 378.94 539.86 376.7C546.26 374.44 557.67 366.95 575.05 386.92Z" fill="white"/>
</mask>
<g mask="url(#mask0_17_7)">
<path d="M549.18 406.53C555.962 406.53 561.46 401.032 561.46 394.25C561.46 387.468 555.962 381.97 549.18 381.97C542.398 381.97 536.9 387.468 536.9 394.25C536.9 401.032 542.398 406.53 549.18 406.53Z" fill="url(#paint40_linear_17_7)"/>
<path d="M549.18 402.73C553.863 402.73 557.66 398.933 557.66 394.25C557.66 389.567 553.863 385.77 549.18 385.77C544.497 385.77 540.7 389.567 540.7 394.25C540.7 398.933 544.497 402.73 549.18 402.73Z" fill="url(#paint41_linear_17_7)"/>
<path d="M539.74 405.18C538.49 403.8 543.19 397.98 545.32 399.4C547.45 400.82 541.57 407.21 539.74 405.18ZM554.64 387.57C553.18 387.57 552 388.75 552 390.21C552 391.67 553.18 392.85 554.64 392.85C556.1 392.85 557.28 391.67 557.28 390.21C557.28 388.75 556.1 387.57 554.64 387.57Z" fill="white"/>
</g>
<path d="M470.38 353.63C463.07 356.13 451.9 366.39 451.9 366.39C451.3 368.41 445.09 406.68 445.09 406.68C445.09 406.68 482.96 413.65 494.8 399.21C494.8 399.21 501.94 380.41 496.22 344.94L470.38 353.63Z" fill="url(#paint42_linear_17_7)"/>
<path d="M450.81 386.92C450.81 386.92 460.21 403.39 473.48 404.25C486.74 405.1 491.24 394.12 491.24 394.12L450.81 386.92Z" fill="url(#paint43_linear_17_7)"/>
<path d="M490.09 354.9C496.29 354.54 497.95 345.23 494.62 340.66C473.95 342.78 459.49 351.85 451.9 366.4C451.34 368.52 451.2 370.64 450.64 372.75C461.62 364.06 472.79 355.9 490.09 354.9Z" fill="#25215F"/>
<path d="M450.81 386.92C450.81 386.92 462.24 367.39 477.72 366.94C492.1 366.52 495.17 377.78 494.33 382.59C493.49 387.4 450.81 386.92 450.81 386.92Z" fill="url(#paint44_linear_17_7)"/>
<path d="M450.81 386.92C450.81 386.92 458.35 399.22 473.43 401.78C488.29 404.3 491.53 394.79 492.33 391.86C493.13 388.93 492.39 378.94 486 376.7C479.61 374.44 468.2 366.95 450.81 386.92Z" fill="#FDEBED"/>
<path d="M494.34 382.58C490.05 371.95 479.67 366.68 467.19 370.94C462.7 372.47 456.86 377.1 450.81 386.91C463.03 373.49 475.51 372.62 485.37 378.32C488.52 380.14 492.69 384.12 492.33 391.84C492.33 391.85 494.48 384.37 494.34 382.58Z" fill="url(#paint45_linear_17_7)"/>
<mask id="mask1_17_7" style="mask-type:luminance" maskUnits="userSpaceOnUse" x="450" y="373" width="43" height="30">
<path d="M450.81 386.92C450.81 386.92 458.35 399.22 473.43 401.78C488.29 404.3 491.53 394.79 492.33 391.86C493.13 388.93 492.39 378.94 486 376.7C479.61 374.44 468.2 366.95 450.81 386.92Z" fill="white"/>
</mask>
<g mask="url(#mask1_17_7)">
<path d="M476.69 406.53C483.472 406.53 488.97 401.032 488.97 394.25C488.97 387.468 483.472 381.97 476.69 381.97C469.908 381.97 464.41 387.468 464.41 394.25C464.41 401.032 469.908 406.53 476.69 406.53Z" fill="url(#paint46_linear_17_7)"/>
<path d="M485.17 394.25C485.17 398.93 481.37 402.73 476.69 402.73C472.01 402.73 468.21 398.93 468.21 394.25C468.21 389.57 472.01 385.77 476.69 385.77C481.37 385.77 485.17 389.56 485.17 394.25Z" fill="url(#paint47_linear_17_7)"/>
<path d="M467.25 405.18C466 403.8 470.7 397.98 472.83 399.4C474.96 400.82 469.08 407.21 467.25 405.18ZM482.16 387.57C480.7 387.57 479.52 388.75 479.52 390.21C479.52 391.67 480.7 392.85 482.16 392.85C483.62 392.85 484.8 391.67 484.8 390.21C484.8 388.75 483.61 387.57 482.16 387.57Z" fill="white"/>
</g>
<path d="M509.5 391.58C513.73 379.53 526.24 412.75 526.24 412.75C526.24 412.75 520.66 421.6 512.93 421.6C505.2 421.6 499.52 412.14 499.52 412.14C499.52 412.14 502.96 410.21 509.5 391.58Z" fill="#F9B198"/>
<path d="M499.52 412.14C499.52 412.14 503.36 418.52 509.03 420.79C509.06 420.79 509.06 420.82 509.09 420.82C510.29 421.3 511.57 421.59 512.93 421.59C520.67 421.59 526.25 412.74 526.25 412.74C516.51 417.58 506.89 415.13 502.31 413.37C500.54 412.71 499.52 412.14 499.52 412.14Z" fill="url(#paint48_linear_17_7)"/>
<path d="M499.52 412.14C499.52 412.14 503.36 418.52 509.03 420.79C503.65 417.15 502.31 413.36 502.31 413.36C502.31 413.36 508.68 403.57 510.98 381.26C507.25 402.5 499.71 410.72 499.52 412.14Z" fill="#CB4E7A"/>
<path d="M520.26 417.63C521.11 417.14 522.05 416.87 523.01 416.67C521.59 418.08 519.76 419.54 517.64 420.51C518.19 419.31 519.11 418.29 520.26 417.63Z" fill="#A04A8B"/>
<path d="M551.67 420.44C551.67 425.38 557.38 429.39 564.42 429.39C571.46 429.39 577.17 425.38 577.17 420.44C577.17 415.5 571.46 411.49 564.42 411.49C557.38 411.49 551.67 415.49 551.67 420.44Z" fill="url(#paint49_linear_17_7)"/>
<path d="M474.2 420.44C474.2 425.38 468.49 429.39 461.45 429.39C454.41 429.39 448.7 425.38 448.7 420.44C448.7 415.5 454.41 411.49 461.45 411.49C468.49 411.49 474.2 415.49 474.2 420.44Z" fill="url(#paint50_linear_17_7)"/>
<path d="M404.6 553.22C395.47 544.21 403.07 534.75 414.61 531.54C426.15 528.33 411.55 504.43 438.44 497.75C438.44 497.75 429.56 514.2 512.94 582.99V598.98C512.94 598.98 440.23 588.4 404.6 553.22Z" fill="url(#paint51_linear_17_7)"/>
<path d="M621.26 553.22C630.39 544.21 622.79 534.75 611.25 531.54C599.71 528.33 614.31 504.43 587.42 497.75C587.42 497.75 596.27 515.48 512.94 582.99V598.98C512.94 598.98 585.64 588.4 621.26 553.22Z" fill="url(#paint52_linear_17_7)"/>
<path d="M604.11 309.43C607.1 308.78 611.26 320.36 611.73 322.34C613.47 329.72 612.31 337.78 608.75 344.47C601.71 357.68 595.99 376.28 592.54 403.38C589.53 389.11 591.39 373.84 591.8 359.27C592.21 344.69 589.86 328.8 579.39 318.64C587.05 312.8 594.71 311.48 604.11 309.43Z" fill="url(#paint53_linear_17_7)"/>
<path d="M604.11 309.43C607.1 308.78 611.26 320.36 611.73 322.34C613.47 329.72 612.31 337.78 608.75 344.47C601.71 357.68 595.99 376.28 592.54 403.38C589.53 389.11 591.39 373.84 591.8 359.27C592.21 344.69 589.86 328.8 579.39 318.64C587.05 312.8 594.71 311.48 604.11 309.43Z" fill="url(#paint54_linear_17_7)"/>
<path d="M467.32 328.74C462.58 320.68 462.08 303.25 469.07 297.05C476.06 290.85 486.17 289.05 495.41 290.47C504.65 291.89 513.2 296.18 521.25 300.94C529.3 305.7 537.06 311.01 545.61 314.81C567.13 324.38 593.23 323.27 613.59 311.42C633.95 299.57 647.87 277.12 648.89 253.58C649.49 239.67 645.74 225.6 638.29 213.84C626.65 226.53 610.68 240.89 595.09 249.7C601.32 239.73 605.72 223.33 605.01 211.6C600.42 226.22 584.09 236.3 568.92 238.48C553.75 240.66 538.4 237.12 523.48 233.64C508.55 230.16 493.18 226.7 478.03 229.03C463.59 231.25 450.04 238.89 440.67 250.1C431.3 261.31 426.18 276 426.56 290.61C420.01 291.04 414.29 291.64 408.03 293.65C401.77 295.65 395.83 299.4 392.53 305.08C387.41 313.85 389.66 325.27 394.73 334.06C399.8 342.86 407.32 349.95 413.48 358.03C425.71 374.08 428.66 383.21 434.83 414.45C439.38 398.66 438.59 381.46 435.51 365.31C433.42 354.34 429.68 342.48 434.71 332.51C439.63 322.7 457.68 323.47 467.32 328.74Z" fill="url(#paint55_linear_17_7)"/>
<path d="M595.09 249.7C581.06 257.71 556.04 263.27 537.02 264.66C537.02 264.66 567.22 294.57 605.68 275.64C644.14 256.71 638.29 213.83 638.29 213.83C626.64 226.53 610.67 240.89 595.09 249.7Z" fill="url(#paint56_linear_17_7)"/>
<path d="M427.78 292.11C425.4 289.45 423.9 286.33 422.88 283.09C421.88 279.84 421.41 276.44 421.43 273.05C421.45 269.66 421.98 266.27 423.03 263.03C424.1 259.81 425.64 256.7 428.08 254.09C428.61 257.61 428.72 260.79 428.81 263.92C428.88 267.04 428.9 270.07 428.87 273.11C428.84 276.15 428.78 279.18 428.66 282.3C428.51 285.42 428.36 288.6 427.78 292.11Z" fill="url(#paint57_linear_17_7)"/>
<path d="M560.9 271.26C567.82 269.66 574.17 268.11 580.25 265.98C586.32 263.9 592.08 261.36 597.54 258.33C603 255.29 608.19 251.74 613.17 247.69C618.19 243.65 622.87 239.09 627.89 234.06C626.76 241.11 623.45 247.67 619.06 253.37C614.63 259.06 608.99 263.89 602.6 267.43C596.21 270.97 589.13 273.21 581.96 273.96C574.8 274.66 567.49 274.01 560.9 271.26Z" fill="#FD3D34"/>
<path opacity="0.5" d="M469.07 297.05C476.06 290.84 486.17 289.05 495.41 290.47C504.65 291.89 513.2 296.18 521.25 300.94C529.3 305.7 537.06 311.01 545.61 314.81C567.13 324.38 593.23 323.27 613.59 311.42C617.81 308.97 621.73 306.03 625.33 302.75C623.09 303.51 620.83 304.21 618.55 304.85C599.37 310.24 578.38 311.07 559.84 303.76C549.31 299.61 539.94 293.03 530.57 286.68C521.19 280.34 511.53 274.1 500.71 270.78C489.89 267.46 477.6 267.36 467.75 272.95C450.3 282.85 453.37 315.43 467.32 328.74C462.58 320.68 462.08 303.25 469.07 297.05Z" fill="url(#paint58_linear_17_7)"/>
<path d="M426.54 290.61C419.99 291.04 414.27 291.64 408.01 293.65C401.75 295.65 395.81 299.4 392.51 305.08C387.39 313.85 389.64 325.27 394.71 334.06C396.62 337.37 398.87 340.43 401.26 343.4C432.31 339.54 426.54 290.61 426.54 290.61Z" fill="url(#paint59_linear_17_7)"/>
<path d="M553.2 252.55C570.1 250.55 585.66 240.47 595.09 226.37C587.89 232.85 578.19 237.14 568.92 238.48C553.75 240.66 538.4 237.12 523.48 233.64C508.55 230.16 493.18 226.7 478.03 229.03C463.59 231.25 450.04 238.89 440.67 250.1C439.88 251.04 439.14 252.01 438.41 253C441.37 255.96 445.44 257.95 449.61 258.68C456.22 259.85 463.01 258.38 469.39 256.3C475.77 254.22 481.97 251.52 488.53 250.11C509.71 245.59 531.68 255.09 553.2 252.55Z" fill="url(#paint60_linear_17_7)"/>
<path d="M499.85 263.52C502.94 262.6 506.13 262.55 509.23 262.94C512.34 263.35 515.38 264.25 518.22 265.57C521.07 266.88 523.72 268.62 526.05 270.73C528.36 272.85 530.38 275.31 531.67 278.27C528.67 277.11 526.04 275.83 523.42 274.6L515.72 270.97L507.98 267.44C505.36 266.23 502.67 265.05 499.85 263.52Z" fill="#FD3C37"/>
<path opacity="0.5" d="M429.24 324.61C424.78 335.2 416.42 344.01 406.24 349.31C407.94 351.28 409.63 353.25 411.27 355.26C413.43 354 415.47 352.51 417.31 350.81C424.41 344.24 429.2 334.27 429.24 324.61Z" fill="url(#paint61_linear_17_7)"/>
<path d="M467.32 328.74C460.12 323.28 455.38 307.37 459.44 298.87C460.44 296.76 461.85 294.74 463.61 292.89C465.39 291.05 467.53 289.43 469.87 288.07C474.57 285.32 480.12 283.6 485.72 282.83C491.34 282.05 497.05 282.11 502.6 282.93C508.22 283.71 513.35 285.26 518.25 287.09C523.11 288.95 527.58 291.19 531.81 293.5C536 295.86 539.95 298.34 543.75 300.75C547.52 303.2 551.2 305.58 554.87 307.78C558.51 310.03 562.22 312.02 565.97 313.77C573.38 317.19 580.58 319.3 588.62 319.29C592.65 319.27 596.51 318.66 600.35 317.36C604.16 316.04 607.88 314.1 611.29 311.74C618.21 307.05 628.03 299.44 634.11 293.25C631.47 300.74 622.73 312.61 618.34 316.33C615.19 319.66 611.35 322.74 606.67 325.18C602.01 327.63 596.38 329.29 590.73 329.9C585.06 330.51 579.35 330.25 573.94 329.31C568.51 328.44 563.32 326.85 558.49 324.95C548.86 321.12 540.81 315.98 533.24 311.18C529.48 308.75 525.83 306.39 522.13 304.24C518.48 302.03 514.76 300.08 510.98 298.4C507.23 296.71 503.27 295.38 499.4 294.49C497.44 294.04 495.43 293.73 493.4 293.55C491.38 293.35 489.34 293.25 487.33 293.34C479.3 293.6 471.55 296.28 467.02 301.79C464.74 304.51 463.35 307.87 463.05 311.44C462.75 315.02 465.31 325.13 467.32 328.74Z" fill="#FD3C37"/>
<path d="M691.64 818.44C692.66 816.75 694.24 815.27 696.2 814.19C701.37 811.33 746.53 810.05 760.9 809.46C760.99 809.62 761.08 809.77 761.16 809.95C762.99 814.45 758.98 820.34 755.34 822.55C750.25 825.64 743.95 825.69 738 825.65C727.26 825.57 716.53 825.49 705.79 825.42C702.77 825.4 699.67 825.36 696.88 824.22C694.37 823.19 692.16 821.04 691.64 818.44Z" fill="url(#paint62_linear_17_7)"/>
<path d="M753.53 858.19C752.39 862.44 752.65 867.05 754.25 871.15C750.61 868.56 750.61 861.57 753.53 858.19Z" fill="url(#paint63_linear_17_7)"/>
<path d="M740.95 788.7C741.25 786.39 741.55 784.08 741.85 781.77C739.62 783.61 739.4 786.26 740.95 788.7Z" fill="url(#paint64_linear_17_7)"/>
<path d="M788.97 712.21C780.6 709.21 760.76 704.82 730.51 700.6C730.57 700.68 730.62 700.75 730.67 700.83C730.37 700.74 730.08 700.64 729.76 700.6C682.66 694.02 610.33 687.83 516.78 687.83C424.01 687.83 352.11 693.92 304.99 700.44C304.65 700.49 304.34 700.59 304.02 700.68C274.07 704.88 254.41 709.23 246.08 712.22C224.68 719.9 213.42 737 225.85 754.05C238.28 771.1 276.32 903.77 289.3 907.84C293.74 909.23 318.13 910.25 349.56 910.99C349.62 910.99 349.68 911.01 349.74 911.01C410.13 912.42 495.86 912.8 516.78 912.8C537.69 912.8 623.43 912.41 683.82 911.01C684.08 911 684.34 910.95 684.59 910.92C684.58 910.95 684.57 910.98 684.56 911.01C716.44 910.27 741.26 909.24 745.75 907.84C758.73 903.77 796.77 771.11 809.2 754.05C821.63 736.98 810.37 719.88 788.97 712.21Z" fill="url(#paint65_linear_17_7)"/>
<path opacity="0.3" d="M759.94 883.15C760.91 880.31 761.88 877.32 762.84 874.21C576.29 874.18 389.75 830.84 222.5 748.17C223.32 750.11 224.42 752.07 225.85 754.03C238.28 771.08 276.32 903.75 289.3 907.82C293.74 909.21 318.13 910.23 349.56 910.97C349.62 910.97 349.68 910.99 349.74 910.99C353.51 911.08 357.39 911.16 361.34 911.24C363.32 911.28 365.31 911.32 367.32 911.36C369.33 911.4 371.36 911.44 373.4 911.47C381.56 911.62 389.95 911.75 398.38 911.86C400.49 911.89 402.6 911.92 404.71 911.95C405.76 911.96 406.82 911.98 407.87 911.99C413.14 912.06 418.41 912.12 423.62 912.18C424.66 912.19 425.7 912.2 426.74 912.21C428.82 912.23 430.88 912.25 432.94 912.27C434.99 912.29 437.04 912.31 439.06 912.33C474.52 912.67 505.35 912.78 516.78 912.78C519.07 912.78 522.13 912.78 525.85 912.77C533.82 912.75 544.81 912.7 557.66 912.62C559.37 912.61 561.12 912.6 562.9 912.59C572.67 912.52 583.36 912.44 594.5 912.34C596.53 912.32 598.57 912.3 600.62 912.28C601.65 912.27 602.68 912.26 603.71 912.25C605.78 912.23 607.85 912.21 609.94 912.18C634.96 911.91 661.17 911.52 683.82 910.99C684.08 910.98 684.34 910.93 684.59 910.9C684.58 910.93 684.57 910.96 684.56 910.99C700.5 910.62 714.68 910.18 725.43 909.65C726.1 909.62 726.76 909.58 727.41 909.55C728.7 909.48 729.93 909.41 731.11 909.35C731.7 909.32 732.27 909.28 732.83 909.24C738.41 908.89 742.5 908.5 744.68 908.07C744.9 908.03 745.1 907.98 745.28 907.94C745.46 907.9 745.62 907.85 745.76 907.81C749.1 906.77 754.12 897.14 759.94 883.15Z" fill="url(#paint66_linear_17_7)"/>
<path opacity="0.7" d="M788.97 722.22C767.57 714.54 671.17 697.83 517.53 697.83C363.89 697.83 267.49 714.54 246.09 722.22C233.02 726.91 223.74 735.11 221.33 744.68C217.93 731.01 228.63 718.47 246.09 712.21C267.49 704.53 363.89 687.82 517.53 687.82C611.09 687.82 683.42 694.02 730.51 700.59C760.76 704.82 780.6 709.2 788.97 712.2C806.44 718.47 817.14 731 813.73 744.67C811.32 735.12 802.04 726.91 788.97 722.22Z" fill="white"/>
<defs>
<linearGradient id="paint0_linear_17_7" x1="526.16" y1="136.74" x2="526.16" y2="699.73" gradientUnits="userSpaceOnUse">
<stop stop-color="#2D0529"/>
<stop offset="1" stop-color="#120428"/>
</linearGradient>
<linearGradient id="paint1_linear_17_7" x1="682.5" y1="241" x2="848" y2="253.5" gradientUnits="userSpaceOnUse">
<stop stop-color="#401488"/>
<stop offset="1" stop-color="#077CC0"/>
</linearGradient>
<linearGradient id="paint2_linear_17_7" x1="733.931" y1="390.151" x2="754.151" y2="308.573" gradientUnits="userSpaceOnUse">
<stop stop-color="#CDECFC"/>
<stop offset="1" stop-color="#9769AD"/>
</linearGradient>
<linearGradient id="paint3_linear_17_7" x1="594.641" y1="34.5328" x2="799.878" y2="452.954" gradientUnits="userSpaceOnUse">
<stop offset="0.00202546" stop-color="#8E4D9E"/>
<stop offset="0.9985" stop-color="#625EA9"/>
</linearGradient>
<linearGradient id="paint4_linear_17_7" x1="711.429" y1="-24.2904" x2="832.012" y2="535.214" gradientUnits="userSpaceOnUse">
<stop stop-color="#97D3BB"/>
<stop offset="1" stop-color="#4CC7F3"/>
</linearGradient>
<linearGradient id="paint5_linear_17_7" x1="179" y1="321" x2="245" y2="384" gradientUnits="userSpaceOnUse">
<stop offset="0.00202546" stop-color="#EF0FA9"/>
<stop offset="0.9985" stop-color="#FC3B36"/>
</linearGradient>
<linearGradient id="paint6_linear_17_7" x1="255.233" y1="256.262" x2="228.661" y2="318.639" gradientUnits="userSpaceOnUse">
<stop stop-color="#FD3D34"/>
<stop offset="1" stop-color="#9769AD"/>
</linearGradient>
<linearGradient id="paint7_linear_17_7" x1="335" y1="233" x2="222.5" y2="252" gradientUnits="userSpaceOnUse">
<stop stop-color="#EF0FA9"/>
<stop offset="1" stop-color="#FD3D34"/>
</linearGradient>
<linearGradient id="paint8_linear_17_7" x1="189.842" y1="450.665" x2="221.262" y2="535.02" gradientUnits="userSpaceOnUse">
<stop stop-color="#97D3BB"/>
<stop offset="1" stop-color="#4CC7F3"/>
</linearGradient>
<linearGradient id="paint9_linear_17_7" x1="94.0076" y1="161.845" x2="214.59" y2="721.349" gradientUnits="userSpaceOnUse">
<stop stop-color="#97D3BB"/>
<stop offset="1" stop-color="#4CC7F3"/>
</linearGradient>
<linearGradient id="paint10_linear_17_7" x1="269.861" y1="123.942" x2="390.446" y2="683.453" gradientUnits="userSpaceOnUse">
<stop stop-color="#97D3BB"/>
<stop offset="1" stop-color="#4CC7F3"/>
</linearGradient>
<linearGradient id="paint11_linear_17_7" x1="529.433" y1="464.482" x2="530.639" y2="564.529" gradientUnits="userSpaceOnUse">
<stop offset="0.016" stop-color="#FBC2AA"/>
<stop offset="1" stop-color="#F59395"/>
</linearGradient>
<linearGradient id="paint12_linear_17_7" x1="518.785" y1="525.086" x2="512.227" y2="464.751" gradientUnits="userSpaceOnUse">
<stop stop-color="#F48080"/>
<stop offset="1" stop-color="#CF6074"/>
</linearGradient>
<linearGradient id="paint13_linear_17_7" x1="457.673" y1="561.63" x2="566.794" y2="561.63" gradientUnits="userSpaceOnUse">
<stop stop-color="#F48080"/>
<stop offset="1" stop-color="#CF6074"/>
</linearGradient>
<linearGradient id="paint14_linear_17_7" x1="732.029" y1="823.441" x2="731.892" y2="822.768" gradientUnits="userSpaceOnUse">
<stop stop-color="#9769AD"/>
<stop offset="1" stop-color="#CDECFC"/>
</linearGradient>
<linearGradient id="paint15_linear_17_7" x1="506.58" y1="772.789" x2="505.7" y2="528.23" gradientUnits="userSpaceOnUse">
<stop stop-color="#333B97"/>
<stop offset="1" stop-color="#0465A6"/>
</linearGradient>
<linearGradient id="paint16_linear_17_7" x1="805.447" y1="603.685" x2="682.254" y2="662.232" gradientUnits="userSpaceOnUse">
<stop stop-color="#0465A6"/>
<stop offset="1" stop-color="#333B97"/>
</linearGradient>
<linearGradient id="paint17_linear_17_7" x1="756.905" y1="625.091" x2="631.064" y2="684.896" gradientUnits="userSpaceOnUse">
<stop offset="0.0005167" stop-color="#5F1B57"/>
<stop offset="1" stop-color="#11102A"/>
</linearGradient>
<linearGradient id="paint18_linear_17_7" x1="762.715" y1="633.353" x2="674.949" y2="675.063" gradientUnits="userSpaceOnUse">
<stop stop-color="#333B97"/>
<stop offset="1" stop-color="#0465A6"/>
</linearGradient>
<linearGradient id="paint19_linear_17_7" x1="220.421" y1="603.685" x2="343.613" y2="662.232" gradientUnits="userSpaceOnUse">
<stop stop-color="#0465A6"/>
<stop offset="1" stop-color="#333B97"/>
</linearGradient>
<linearGradient id="paint20_linear_17_7" x1="268.961" y1="625.09" x2="394.803" y2="684.896" gradientUnits="userSpaceOnUse">
<stop offset="0.0005167" stop-color="#5F1B57"/>
<stop offset="1" stop-color="#11102A"/>
</linearGradient>
<linearGradient id="paint21_linear_17_7" x1="263.152" y1="633.353" x2="350.918" y2="675.063" gradientUnits="userSpaceOnUse">
<stop stop-color="#333B97"/>
<stop offset="1" stop-color="#0465A6"/>
</linearGradient>
<linearGradient id="paint22_linear_17_7" x1="514.793" y1="608.435" x2="512" y2="910" gradientUnits="userSpaceOnUse">
<stop stop-color="#180529"/>
<stop offset="1" stop-color="#F62575"/>
</linearGradient>
<linearGradient id="paint23_linear_17_7" x1="406.552" y1="405.106" x2="432.604" y2="380.066" gradientUnits="userSpaceOnUse">
<stop offset="0.016" stop-color="#F9AB8C"/>
<stop offset="1" stop-color="#F59395"/>
</linearGradient>
<linearGradient id="paint24_linear_17_7" x1="408.33" y1="395.657" x2="431.464" y2="395.657" gradientUnits="userSpaceOnUse">
<stop stop-color="#F48080"/>
<stop offset="1" stop-color="#CF6074"/>
</linearGradient>
<linearGradient id="paint25_linear_17_7" x1="429.792" y1="379.956" x2="416.17" y2="367.595" gradientUnits="userSpaceOnUse">
<stop stop-color="#F8A696"/>
<stop offset="0.984" stop-color="#FBC2AA"/>
</linearGradient>
<linearGradient id="paint26_linear_17_7" x1="619.315" y1="405.107" x2="593.263" y2="380.066" gradientUnits="userSpaceOnUse">
<stop offset="0.016" stop-color="#F9AB8C"/>
<stop offset="1" stop-color="#F59395"/>
</linearGradient>
<linearGradient id="paint27_linear_17_7" x1="617.537" y1="395.657" x2="594.403" y2="395.657" gradientUnits="userSpaceOnUse">
<stop stop-color="#F48080"/>
<stop offset="1" stop-color="#CF6074"/>
</linearGradient>
<linearGradient id="paint28_linear_17_7" x1="596.075" y1="379.956" x2="609.698" y2="367.595" gradientUnits="userSpaceOnUse">
<stop stop-color="#F8A696"/>
<stop offset="0.984" stop-color="#FBC2AA"/>
</linearGradient>
<linearGradient id="paint29_linear_17_7" x1="512.934" y1="492.215" x2="512.934" y2="286.004" gradientUnits="userSpaceOnUse">
<stop offset="0.016" stop-color="#FBC2AA"/>
<stop offset="1" stop-color="#F59395"/>
</linearGradient>
<linearGradient id="paint30_linear_17_7" x1="481.534" y1="426.95" x2="481.182" y2="423.73" gradientUnits="userSpaceOnUse">
<stop offset="0.016" stop-color="#F8A38B"/>
<stop offset="1" stop-color="#F59395"/>
</linearGradient>
<linearGradient id="paint31_linear_17_7" x1="548.919" y1="436.101" x2="549.556" y2="432.238" gradientUnits="userSpaceOnUse">
<stop offset="0.016" stop-color="#F8A38B"/>
<stop offset="1" stop-color="#F59395"/>
</linearGradient>
<linearGradient id="paint32_linear_17_7" x1="513.451" y1="440.987" x2="510.65" y2="462.052" gradientUnits="userSpaceOnUse">
<stop stop-color="#E1616A"/>
<stop offset="1" stop-color="#F48784"/>
</linearGradient>
<linearGradient id="paint33_linear_17_7" x1="513.446" y1="438.789" x2="514.955" y2="429.636" gradientUnits="userSpaceOnUse">
<stop stop-color="#E1616A"/>
<stop offset="1" stop-color="#F48784"/>
</linearGradient>
<linearGradient id="paint34_linear_17_7" x1="424.023" y1="322.003" x2="601.446" y2="322.003" gradientUnits="userSpaceOnUse">
<stop stop-color="#CF6074"/>
<stop offset="1" stop-color="#F48080"/>
</linearGradient>
<linearGradient id="paint35_linear_17_7" x1="475.633" y1="284.143" x2="475.633" y2="362.237" gradientUnits="userSpaceOnUse">
<stop stop-color="#5A2C87"/>
<stop offset="1" stop-color="#564DA0"/>
</linearGradient>
<linearGradient id="paint36_linear_17_7" x1="559.565" y1="408.565" x2="547.206" y2="334.551" gradientUnits="userSpaceOnUse">
<stop stop-color="#F8A38B" stop-opacity="0.6"/>
<stop offset="1" stop-color="#F59395"/>
</linearGradient>
<linearGradient id="paint37_linear_17_7" x1="556.869" y1="413.184" x2="555.598" y2="398.978" gradientUnits="userSpaceOnUse">
<stop offset="0.016" stop-color="#F8A38B"/>
<stop offset="1" stop-color="#F59395"/>
</linearGradient>
<linearGradient id="paint38_linear_17_7" x1="571.928" y1="374.001" x2="531.799" y2="383.71" gradientUnits="userSpaceOnUse">
<stop stop-color="#CF6074"/>
<stop offset="1" stop-color="#F48080"/>
</linearGradient>
<linearGradient id="paint39_linear_17_7" x1="564.979" y1="418.657" x2="544.833" y2="368.579" gradientUnits="userSpaceOnUse">
<stop stop-color="#272A67"/>
<stop offset="1" stop-color="#012537"/>
</linearGradient>
<linearGradient id="paint40_linear_17_7" x1="550.218" y1="407.195" x2="547.884" y2="378.143" gradientUnits="userSpaceOnUse">
<stop stop-color="#85449A"/>
<stop offset="1" stop-color="#645BA7"/>
</linearGradient>
<linearGradient id="paint41_linear_17_7" x1="557.66" y1="394.249" x2="540.696" y2="394.249" gradientUnits="userSpaceOnUse">
<stop stop-color="#272A67"/>
<stop offset="1" stop-color="#012537"/>
</linearGradient>
<linearGradient id="paint42_linear_17_7" x1="468.926" y1="410.818" x2="479.61" y2="346.843" gradientUnits="userSpaceOnUse">
<stop stop-color="#F8A38B" stop-opacity="0.6"/>
<stop offset="1" stop-color="#F59395"/>
</linearGradient>
<linearGradient id="paint43_linear_17_7" x1="468.999" y1="413.184" x2="470.269" y2="398.978" gradientUnits="userSpaceOnUse">
<stop offset="0.016" stop-color="#F8A38B"/>
<stop offset="1" stop-color="#F59395"/>
</linearGradient>
<linearGradient id="paint44_linear_17_7" x1="453.939" y1="374.001" x2="494.069" y2="383.71" gradientUnits="userSpaceOnUse">
<stop stop-color="#CF6074"/>
<stop offset="1" stop-color="#F48080"/>
</linearGradient>
<linearGradient id="paint45_linear_17_7" x1="460.888" y1="418.657" x2="481.034" y2="368.579" gradientUnits="userSpaceOnUse">
<stop stop-color="#272A67"/>
<stop offset="1" stop-color="#012537"/>
</linearGradient>
<linearGradient id="paint46_linear_17_7" x1="477.73" y1="407.195" x2="475.395" y2="378.143" gradientUnits="userSpaceOnUse">
<stop stop-color="#85449A"/>
<stop offset="1" stop-color="#645BA7"/>
</linearGradient>
<linearGradient id="paint47_linear_17_7" x1="485.172" y1="394.249" x2="468.207" y2="394.249" gradientUnits="userSpaceOnUse">
<stop stop-color="#272A67"/>
<stop offset="1" stop-color="#012537"/>
</linearGradient>
<linearGradient id="paint48_linear_17_7" x1="526.248" y1="416.867" x2="499.515" y2="416.867" gradientUnits="userSpaceOnUse">
<stop stop-color="#E1616A"/>
<stop offset="1" stop-color="#F48784"/>
</linearGradient>
<linearGradient id="paint49_linear_17_7" x1="564.276" y1="408.69" x2="564.542" y2="430.211" gradientUnits="userSpaceOnUse">
<stop offset="0.016" stop-color="#F8A38B"/>
<stop offset="1" stop-color="#F59395"/>
</linearGradient>
<linearGradient id="paint50_linear_17_7" x1="461.316" y1="409.961" x2="461.582" y2="431.482" gradientUnits="userSpaceOnUse">
<stop offset="0.016" stop-color="#F8A38B"/>
<stop offset="1" stop-color="#F59395"/>
</linearGradient>
<linearGradient id="paint51_linear_17_7" x1="461.712" y1="469.503" x2="451.434" y2="681.495" gradientUnits="userSpaceOnUse">
<stop stop-color="#333B97"/>
<stop offset="1" stop-color="#0465A6"/>
</linearGradient>
<linearGradient id="paint52_linear_17_7" x1="573.45" y1="474.92" x2="563.172" y2="686.914" gradientUnits="userSpaceOnUse">
<stop stop-color="#333B97"/>
<stop offset="1" stop-color="#0465A6"/>
</linearGradient>
<linearGradient id="paint53_linear_17_7" x1="610.236" y1="300.343" x2="589.067" y2="353.265" gradientUnits="userSpaceOnUse">
<stop offset="0.00202546" stop-color="#8E4D9E"/>
<stop offset="0.9985" stop-color="#625EA9"/>
</linearGradient>
<linearGradient id="paint54_linear_17_7" x1="610.236" y1="300.343" x2="589.067" y2="353.265" gradientUnits="userSpaceOnUse">
<stop offset="0.00202546" stop-color="#8E4D9E"/>
<stop offset="0.9985" stop-color="#625EA9"/>
</linearGradient>
<linearGradient id="paint55_linear_17_7" x1="557.642" y1="360.447" x2="495.528" y2="229.215" gradientUnits="userSpaceOnUse">
<stop offset="0.00202546" stop-color="#F012A2"/>
<stop offset="0.9985" stop-color="#401689"/>
</linearGradient>
<linearGradient id="paint56_linear_17_7" x1="581.002" y1="225.172" x2="608.556" y2="283.549" gradientUnits="userSpaceOnUse">
<stop stop-color="#7A51A1"/>
<stop offset="1" stop-color="#7665AC"/>
</linearGradient>
<linearGradient id="paint57_linear_17_7" x1="485.051" y1="394.805" x2="422.938" y2="263.572" gradientUnits="userSpaceOnUse">
<stop offset="0.00202546" stop-color="#8E4D9E"/>
<stop offset="0.9985" stop-color="#625EA9"/>
</linearGradient>
<linearGradient id="paint58_linear_17_7" x1="455.738" y1="298.613" x2="625.328" y2="298.613" gradientUnits="userSpaceOnUse">
<stop stop-color="#CDECFC"/>
<stop offset="1" stop-color="#9769AD"/>
</linearGradient>
<linearGradient id="paint59_linear_17_7" x1="382.906" y1="360.657" x2="417.466" y2="297.61" gradientUnits="userSpaceOnUse">
<stop stop-color="#FE3E35"/>
<stop offset="1" stop-color="#F41F83"/>
</linearGradient>
<linearGradient id="paint60_linear_17_7" x1="620.992" y1="245.203" x2="474.815" y2="241.466" gradientUnits="userSpaceOnUse">
<stop stop-color="#F012A2"/>
<stop offset="1" stop-color="#FD3D34"/>
</linearGradient>
<linearGradient id="paint61_linear_17_7" x1="408.461" y1="311.805" x2="429.477" y2="368.782" gradientUnits="userSpaceOnUse">
<stop stop-color="#FC3840"/>
<stop offset="1" stop-color="#9769AD"/>
</linearGradient>
<linearGradient id="paint62_linear_17_7" x1="726.13" y1="805.782" x2="728.589" y2="852.911" gradientUnits="userSpaceOnUse">
<stop offset="0.016" stop-color="#FBC2AA"/>
<stop offset="1" stop-color="#F59395"/>
</linearGradient>
<linearGradient id="paint63_linear_17_7" x1="770.417" y1="830.207" x2="748.09" y2="876.375" gradientUnits="userSpaceOnUse">
<stop stop-color="#CF6074"/>
<stop offset="1" stop-color="#F48080"/>
</linearGradient>
<linearGradient id="paint64_linear_17_7" x1="750.897" y1="765.008" x2="737.847" y2="791.993" gradientUnits="userSpaceOnUse">
<stop stop-color="#CF6074"/>
<stop offset="1" stop-color="#F48080"/>
</linearGradient>
<linearGradient id="paint65_linear_17_7" x1="536.352" y1="650.407" x2="475.445" y2="939.151" gradientUnits="userSpaceOnUse">
<stop stop-color="#2B296A"/>
<stop offset="1" stop-color="#372E81"/>
</linearGradient>
<linearGradient id="paint66_linear_17_7" x1="489.309" y1="809.484" x2="564.717" y2="985.435" gradientUnits="userSpaceOnUse">
<stop stop-color="#9769AD"/>
<stop offset="1" stop-color="#CDECFC"/>
</linearGradient>
</defs>
</svg>
