<svg   
    width="200" height="200" viewBox="0 0 200 200" fill="none" xmlns="http://www.w3.org/2000/svg">
    <path
        d="M48.6789 94.375C49.6043 93.3323 50.5255 92.2847 51.4558 91.2474C68.0471 72.7466 84.6505 54.2591 101.213 35.7264C102.701 34.0612 105.109 32.4806 104.199 29.708C103.154 26.5227 100.22 27.2609 97.892 27.2033C93.725 27.1003 89.5255 27.526 85.392 27.0997C79.1871 26.4597 74.6325 28.9221 70.2837 33.8834C53.7305 52.768 37.3854 71.9501 19.8916 89.7123C10.249 99.503 5.91383 109.762 7.23064 124.161C7.86096 131.053 9.40482 133.63 15.7297 133.514C33.7178 133.182 51.7152 133.52 69.7066 133.328C75.0536 133.271 77.2934 135.568 77.1359 141.536C76.9361 149.105 77.2695 156.691 77.1133 164.263C77.0053 169.496 78.931 171.979 83.6894 171.906C88.9538 171.826 94.2214 172.036 99.4867 171.995C108.983 171.921 109.744 171.146 109.787 160.81C109.851 145.413 109.829 130.015 109.751 114.618C109.706 105.501 108.782 104.404 100.676 104.351C84.4391 104.245 68.2011 104.338 51.9637 104.278C48.9587 104.268 45.7932 104.911 43.0614 102.525C43.3566 98.8757 46.3522 97.5277 48.6789 94.375ZM126.136 136.374C126.72 139.628 128.771 140.633 131.448 140.635C138.91 140.638 146.372 140.611 153.833 140.625C157.741 140.632 159.299 138.325 159.279 134.166C159.241 126.099 159.495 118.024 159.24 109.967C159.089 105.161 160.564 101.645 163.609 98.3379C172.249 88.9531 180.685 79.3337 189.182 69.7857C191.343 67.3576 193.726 64.999 193.777 61.2071C193.9 52.1669 194.009 43.1253 193.999 34.0845C193.994 29.2223 191.536 27.112 187.263 27.1769C182.435 27.2502 177.606 27.159 172.777 27.1532C161.273 27.1393 159.999 27.5505 161.186 40.1657C162.868 58.0292 158.524 72.2011 145.221 82.5674C128.627 95.4984 122.597 113.135 126.136 136.374ZM143.846 43.3828C147.271 38.6095 152.583 35.4942 154.97 28.3727C145.882 26.3593 137.555 27.0196 129.257 27.6777C129.177 27.6841 129.097 27.6904 129.017 27.6967C127.697 27.8013 126.515 29.165 126.418 30.6605C125.799 40.2215 125.722 49.774 126.528 60.5289C134.016 55.7901 138.056 49.252 143.846 43.3828ZM193.84 122.83C193.494 118.388 194.822 113.7 192.82 109.708C183.667 120.123 174.723 130.298 165.984 140.24C169.661 141.254 174.263 140.693 178.809 140.688C194.878 140.671 193.833 142.256 193.84 122.83Z"
        fill="black"
    />
</svg>