<svg id="Calque_1" data-name="Calque 1" xmlns="http://www.w3.org/2000/svg" viewBox="0 0 950.98 250.75"><defs><style>.cls-1{fill:#1d1d1b;}</style></defs><title>Objet dynamique vectoriel</title><polygon class="cls-1" points="108.72 27.94 108.72 0 76.84 0 27.61 0 0 0 0 27.94 0 67.13 27.61 67.13 27.61 27.94 76.84 27.94 76.84 223.14 38.62 223.14 38.62 250.75 76.84 250.75 108.72 250.75 146.94 250.75 146.94 223.14 108.72 223.14 108.72 27.94"/><polygon class="cls-1" points="272.27 0 272.27 27.77 390.71 27.77 390.71 107.93 281.74 107.93 281.74 135.54 390.71 135.54 390.71 223.14 272.27 223.14 272.27 250.75 390.71 250.75 422.59 250.75 422.59 223.14 422.59 135.54 422.59 107.93 422.59 27.77 422.59 0 390.71 0 272.27 0"/><polygon class="cls-1" points="535.53 0 535.53 27.77 653.97 27.77 653.97 107.93 545 107.93 545 135.54 653.97 135.54 653.97 223.14 535.53 223.14 535.53 250.75 653.97 250.75 685.85 250.75 685.85 223.14 685.85 135.54 685.85 107.93 685.85 27.77 685.85 0 653.97 0 535.53 0"/><polygon class="cls-1" points="919.11 0 791.52 0 791.52 0.17 791.52 27.77 791.52 88.82 819.12 88.82 819.12 27.77 919.11 27.77 919.11 250.75 950.98 250.75 950.98 27.77 950.98 0 919.11 0"/></svg>